<mxfile host="app.diagrams.net" agent="Mozilla/5.0 (Windows NT 10.0; Win64; x64; rv:132.0) Gecko/20100101 Firefox/132.0" version="24.8.3">
  <diagram name="Seite-1" id="4YSJfOpFCfUjbprgWO81">
    <mxGraphModel dx="1050" dy="1707" grid="1" gridSize="10" guides="1" tooltips="1" connect="1" arrows="1" fold="1" page="1" pageScale="1" pageWidth="827" pageHeight="1169" math="0" shadow="0">
      <root>
        <mxCell id="0" />
        <mxCell id="1" parent="0" />
        <mxCell id="sbt_hyZxBfFW6GqUvSIC-1" value="Pong Game Lobby" style="ellipse;whiteSpace=wrap;html=1;verticalAlign=top;fontStyle=1;fontSize=14;" parent="1" vertex="1">
          <mxGeometry x="110" y="-160" width="950" height="410" as="geometry" />
        </mxCell>
        <mxCell id="sbt_hyZxBfFW6GqUvSIC-17" value="Kubernetes Cluster" style="rounded=1;whiteSpace=wrap;html=1;verticalAlign=top;" parent="1" vertex="1">
          <mxGeometry x="240" y="-90" width="390" height="280" as="geometry" />
        </mxCell>
        <mxCell id="sbt_hyZxBfFW6GqUvSIC-16" style="rounded=0;orthogonalLoop=1;jettySize=auto;html=1;" parent="1" source="sbt_hyZxBfFW6GqUvSIC-27" target="sbt_hyZxBfFW6GqUvSIC-7" edge="1">
          <mxGeometry relative="1" as="geometry" />
        </mxCell>
        <mxCell id="sbt_hyZxBfFW6GqUvSIC-8" value="" style="group" parent="1" vertex="1" connectable="0">
          <mxGeometry x="440" y="80" width="160" height="100" as="geometry" />
        </mxCell>
        <mxCell id="sbt_hyZxBfFW6GqUvSIC-3" value="Game Room" style="rounded=0;whiteSpace=wrap;html=1;" parent="sbt_hyZxBfFW6GqUvSIC-8" vertex="1">
          <mxGeometry width="120" height="60" as="geometry" />
        </mxCell>
        <mxCell id="sbt_hyZxBfFW6GqUvSIC-4" value="Game Room" style="rounded=0;whiteSpace=wrap;html=1;" parent="sbt_hyZxBfFW6GqUvSIC-8" vertex="1">
          <mxGeometry x="10" y="10" width="120" height="60" as="geometry" />
        </mxCell>
        <mxCell id="sbt_hyZxBfFW6GqUvSIC-5" value="Game Room" style="rounded=0;whiteSpace=wrap;html=1;" parent="sbt_hyZxBfFW6GqUvSIC-8" vertex="1">
          <mxGeometry x="20" y="20" width="120" height="60" as="geometry" />
        </mxCell>
        <mxCell id="sbt_hyZxBfFW6GqUvSIC-6" value="Game Room" style="rounded=0;whiteSpace=wrap;html=1;" parent="sbt_hyZxBfFW6GqUvSIC-8" vertex="1">
          <mxGeometry x="30" y="30" width="120" height="60" as="geometry" />
        </mxCell>
        <mxCell id="sbt_hyZxBfFW6GqUvSIC-7" value="&lt;div&gt;Game Rooms&lt;/div&gt;(Docker Image)" style="rounded=0;whiteSpace=wrap;html=1;" parent="sbt_hyZxBfFW6GqUvSIC-8" vertex="1">
          <mxGeometry x="40" y="40" width="120" height="60" as="geometry" />
        </mxCell>
        <mxCell id="sbt_hyZxBfFW6GqUvSIC-15" style="rounded=0;orthogonalLoop=1;jettySize=auto;html=1;" parent="1" source="sbt_hyZxBfFW6GqUvSIC-2" target="sbt_hyZxBfFW6GqUvSIC-13" edge="1">
          <mxGeometry relative="1" as="geometry" />
        </mxCell>
        <mxCell id="sbt_hyZxBfFW6GqUvSIC-9" value="" style="group" parent="1" vertex="1" connectable="0">
          <mxGeometry x="254" y="70" width="160" height="100" as="geometry" />
        </mxCell>
        <mxCell id="sbt_hyZxBfFW6GqUvSIC-10" value="Game Room" style="rounded=0;whiteSpace=wrap;html=1;" parent="sbt_hyZxBfFW6GqUvSIC-9" vertex="1">
          <mxGeometry width="120" height="60" as="geometry" />
        </mxCell>
        <mxCell id="sbt_hyZxBfFW6GqUvSIC-11" value="Game Room" style="rounded=0;whiteSpace=wrap;html=1;" parent="sbt_hyZxBfFW6GqUvSIC-9" vertex="1">
          <mxGeometry x="10" y="10" width="120" height="60" as="geometry" />
        </mxCell>
        <mxCell id="sbt_hyZxBfFW6GqUvSIC-12" value="Game Room" style="rounded=0;whiteSpace=wrap;html=1;" parent="sbt_hyZxBfFW6GqUvSIC-9" vertex="1">
          <mxGeometry x="20" y="20" width="120" height="60" as="geometry" />
        </mxCell>
        <mxCell id="sbt_hyZxBfFW6GqUvSIC-13" value="Game Room" style="rounded=0;whiteSpace=wrap;html=1;" parent="sbt_hyZxBfFW6GqUvSIC-9" vertex="1">
          <mxGeometry x="30" y="30" width="120" height="60" as="geometry" />
        </mxCell>
        <mxCell id="sbt_hyZxBfFW6GqUvSIC-14" value="&lt;div&gt;Game Rooms&lt;/div&gt;&lt;div&gt;(Docker Image)&lt;/div&gt;" style="rounded=0;whiteSpace=wrap;html=1;" parent="sbt_hyZxBfFW6GqUvSIC-9" vertex="1">
          <mxGeometry x="40" y="40" width="120" height="60" as="geometry" />
        </mxCell>
        <mxCell id="sbt_hyZxBfFW6GqUvSIC-18" value="&lt;div&gt;GHCR&lt;/div&gt;(GitHub Container Registry)" style="rounded=0;whiteSpace=wrap;html=1;verticalAlign=top;" parent="1" vertex="1">
          <mxGeometry x="815" y="100" width="120" height="60" as="geometry" />
        </mxCell>
        <mxCell id="sbt_hyZxBfFW6GqUvSIC-19" style="rounded=0;orthogonalLoop=1;jettySize=auto;html=1;endArrow=none;endFill=0;dashed=1;strokeWidth=2;strokeColor=#EA6B66;" parent="1" source="sbt_hyZxBfFW6GqUvSIC-7" target="sbt_hyZxBfFW6GqUvSIC-18" edge="1">
          <mxGeometry relative="1" as="geometry" />
        </mxCell>
        <mxCell id="sbt_hyZxBfFW6GqUvSIC-21" style="rounded=0;orthogonalLoop=1;jettySize=auto;html=1;" parent="1" source="sbt_hyZxBfFW6GqUvSIC-20" target="sbt_hyZxBfFW6GqUvSIC-18" edge="1">
          <mxGeometry relative="1" as="geometry" />
        </mxCell>
        <mxCell id="sbt_hyZxBfFW6GqUvSIC-20" value="Github Actions" style="rounded=0;whiteSpace=wrap;html=1;" parent="1" vertex="1">
          <mxGeometry x="815" y="23.5" width="120" height="60" as="geometry" />
        </mxCell>
        <mxCell id="sbt_hyZxBfFW6GqUvSIC-23" style="edgeStyle=orthogonalEdgeStyle;rounded=0;orthogonalLoop=1;jettySize=auto;html=1;" parent="1" source="sbt_hyZxBfFW6GqUvSIC-22" target="sbt_hyZxBfFW6GqUvSIC-20" edge="1">
          <mxGeometry relative="1" as="geometry" />
        </mxCell>
        <mxCell id="jPVWJ0DvIGIK1T8upTcY-4" value="" style="group" vertex="1" connectable="0" parent="1">
          <mxGeometry x="810" y="-80" width="130" height="90" as="geometry" />
        </mxCell>
        <mxCell id="sbt_hyZxBfFW6GqUvSIC-22" value="&lt;div&gt;Code Repository&lt;/div&gt;&lt;div&gt;&lt;br&gt;&lt;/div&gt;&lt;div&gt;&lt;br&gt;&lt;/div&gt;&lt;div&gt;&lt;br&gt;&lt;/div&gt;&lt;div&gt;SemArb4_GameLobby&lt;br&gt;&lt;/div&gt;" style="rounded=0;whiteSpace=wrap;html=1;verticalAlign=top;" parent="jPVWJ0DvIGIK1T8upTcY-4" vertex="1">
          <mxGeometry width="130" height="90" as="geometry" />
        </mxCell>
        <mxCell id="jPVWJ0DvIGIK1T8upTcY-3" value="" style="shape=image;verticalLabelPosition=bottom;labelBackgroundColor=default;verticalAlign=top;aspect=fixed;imageAspect=0;image=data:image/png,iVBORw0KGgoAAAANSUhEUgAAAgAAAAIACAYAAAD0eNT6AAAABHNCSVQICAgIfAhkiAAAAAlwSFlzAAAOxAAADsQBlSsOGwAAABl0RVh0U29mdHdhcmUAd3d3Lmlua3NjYXBlLm9yZ5vuPBoAACAASURBVHic7N13fBRl/gfwz8y2dCBAqKFXQ4AQIZCCxIKcKAIKKiAqyp0nUixnQxSPExUVyymK3qmnnqenpyIISlE8ihGUFnJIiUgnm7bZXmd+f2D4UZKQ7M7MM+X7fr14nReSmQ+wu893nsqBaNqwYcNSTSZTHoBsAJ04jmvDcVxrjuOacxyXzPN8AsdxcQA4AOA4zvzb/3IcxzFMTghRA0EQxN/+UxQEISyKoiAIQkgURW8kEqkWRdEeDAaPhUKh/ZFI5BDHcScFQfg1JSXl4Pfff+9jGp7EhFoADcjOzk5ISEgYKYri5TzPD+I4roPJZEo1mUwJHMfxrPMRQowhEokgHA4jHA4jGAwiGAyWC4JQKorirzzPHwRQDKDYYrHs/emnn0Ks85KGUQGgMr890d/EcdwonucvMplM7UwmUzw9rRNC1CgSicDv99cWBBAEAQCCHMf9D0CxIAi7eJ7/ITEx8UfqMVAXalUYGz58eKYoijfxPD/CZDJdZDabm7HORAgh0RBFEcFgEH6/Hz6fD6IonvnbYQA7OY7bBOCnSCSyvqSk5DCbpASgAkBxI0eOTPT5fNM5jrvJbDb3N5vNcawzEUKIHILBILxeL/x+/7nFQK1fAKzlOG6F1+tdfeDAgYDCEQ2NCgAF5ObmDjaZTPeaTKZCi8XShrrzCSFGIggCfD4fvF4vwuFwfd/mBrBOFMWvTCbT8p07dx5TMKIhUUskk8LCwgxBEB4ymUxXm0ym5tToE0KMThRFBAIBeDweBIPBhr5V4DjuewAfm0ymj7dv335coYiGQq2ShHJycnpardYFZrP5SrPZTI0+IYTUIxgMwu12IxC4YK+/AOC/HMf9OxgM/vvnn3+uVCCeIVALFTuuoKDgDyaT6T6LxdKDGn1CCGm8QCAAl8uFUKhRqwYDAL4A8EZxcfE6AHVOLCCNQ61VlHJzc/vxPP9nq9V6ldlstrHOQwghWub3++F0OhGJRBr7Iwc4jvunIAh/37179xE5s+kVFQBNNHTo0BtsNttTNputK+sshBCiNy6XC263uyk/EgLwkSAIz5eUlOyQKZYuUQHQONzw4cPvM5lMD1osllaswxBCiJ6Fw2HU1NRcaKLgeX7bY+CZXbt2rQAND1wQFQANGDFiRFw4HH7FarVOoW5+QghRltvthtvtrm8PgYbs5jjuudTU1H+uX7++3nWHRkcFQB1GjBhhjkQii2022x94nreyzkMIIUYVCoXgcDga2j+gIb8CeKpPnz5///jjjxs9ucAoqAA4G5+fn/+E1Wq9z2w2x7MOQwgh5NT+ATU1NfD5oj5KYA/HcU/v2rXrfZxaVkhABcBpeXl5j9hstkep4SeEEHXyer1wOp3RDAkAADiO2yEIwoO7d+9eLXE0TTJ8AZCXl3eFxWJ5y2q1dmSdhRBCSMNCoRCqqqpqTx2M1lpBEGaXlJT8T6pcWmTYAiA3N7ez2Wz+0GazDaXNewghRDsikQiqqqqinRdQK8Rx3GsWi+Wxn376qUaqbFpixJaPLygoeCcuLm4yx3E86zCEEEKaThRFVFZWNnYHwYbYATxUXFz8Dgy2dNBQBUBeXl6hzWb7xGw2p7LOQgghJDaiKMLhcMDv90txuQ0cx03ftWvXXikupgWGKACGDRsWb7Va/221Wq+m7n5CCNGX6upqqYoAH8dxiyKRyMKSkpKm7UKkQbpvDXNzc6fExcW9QbP7CSFEvyQsAgBgO8dxd+zatWubVBdUI90WANnZ2ZbExMTP4+LirmKdhRBCiLxEUUR1dXVjjhdurDDHcU/27t17gV43EdJlAZCTkzM0ISHhK4vF0ox1FkIIIcqpqKiQYmLgmb4HMKW4uPgXKS+qBrqbBZ+Xl7c4OTl5MzX+hBBiPC1btoTFYpHyksMAbO/Xr98UKS+qBrrpAcjNzU2zWCw/2Gy2LqyzEEIIYSccDqOysjLWzYLq8g+r1XrXTz/95JX6wizoogAYNmzYZQkJCStMJlMc6yyEEELYCwaDqKqqinrb4AbsEkVx/O7du0ulvrDSND8EkJeX90RSUtIaavwJIYTUslqtSElJkePS/TmO25aZmTlWjosrycQ6QAz44cOHfxkfH38HR4v7CSGEnMNisSASicS6ZXBdbABuaNOmTbzdbv8GGt1BUJMNZ25ubprVat1ltVrbsM5CCCFEvQRBQEVFBSIR2VbyLeM4bvKuXbs8ct1ALpobAsjNzR0YFxd3kBp/QgghF8LzPFJTZd39/VpRFDf1799fcyfKaqoAKCgouDY+Pn6r2WxOYJ2FEEKINpjNZiQlJcl5iwGiKBZlZGQMkPMmUtNMAZCXl3e/zWb7zGQymVlnIYQQoi3JycmwWq1y3qIDz/Mb+vfvP0rOm0hJE5MA8/PzX0lMTJxLk/0IIYREy2KxwOuVdQm/DcDEtLS0/Xa7vUTOG0lB9QVAQUHBu7/N9GcdhRBCiIaZTCaIoij1VsHn3YbjuHFpaWnH7Hb7djlvFCtVFwAFBQUfxsXFTaLGnxBCiBQsFgt8Pp8cGwSdiec47pq2bdvWlJWVFcl5o1iotgAoKCj4Kj4+/lpq/AkhhEiF4ziYTCYpjw6u91YARqWlpcFut38n982iocoCoKCgYEN8fPylrHMQQgjRH7PZDL/fL8dZAefhOG5EmzZteLvdvl72mzWR6gqAgoKCNfHx8SNY5yCEEKJPHMfBbDbD5/MpdctL0tLSgna7faNSN2wMVRUABQUFH8fHx1/NOgchhBB9M5vNCAaDcu4QeBaO4y5LS0tz2+327xW5YSOopgDIz8//W0JCgu7OWyaEEKJOJpNJyV4AcBx3RZs2bY7b7fZtit20AaooAPLz81+Jj4//A034I4QQohSlewFwamLgVWlpaXvVsE8A850A8/Ly5sTHx8+gxp8QQojSEhMTlb6lieO49zIzMy9X+sbnYtrq5ufnXxMfH7+MdvgjhBDCit1uV7IXoJYTQH5xcXGx0jeuxawHIDc3d6DNZvuUGn9CCCEsMegFAIAUAF/069eP2cm2TAqAgoKC1nFxcRvpYB9CCCGsxcfHg9GzaBeO477s378/kwpE8QJgxIgRZpPJVGw2m5n8gQkhhJAz8TwPm83G6vbZoii+DwbtseI3FAThG6vVyqzLgxBCCDlXfHw8y9uPzczMnKv0TRUtAPLy8p6w2WwFSt6TEEIIuZC4uDjwPNOFcfMzMzOvUvKGig165OXlXZGQkPA1TfojhBCiRg6HQ9GNgepQLYri4N27d5cqcTNFyp3c3Nw0m832BTX+hBBC1IrxMAAAtOA47tPs7OwEJW6mSAFgsVh+MJvNcUrcixBCCImG1WplPQwAAP2DweArStxI9j9pXl7eazabrYvc9yGEEEJiwXEcLBYL6xgAcFv//v1vlPsmsnbJDx06NCcpKel7nuep658QQojqeTweOJ1O1jEAwBEOhwfu2bPnkFw3kK0HIDs725KQkPA1Nf6EEEK0guF+AOdqbjab35swYYJsh/bJVgAkJCSsMpvNzeS6PiGEECI1s9mshnkAtQp+/vnnP8l1cVn+lLm5uVPi4+Mvk+PahBBCiJxUMg+g1p8HDBiQJceFJe+eHzFiRBzP85Vms1mRZQyEEEKIlNxuN1wuF+sYZ9pptVoH//TTTyEpLyp5D4AgCMuo8SeEEKJVVquVdYRzDQiFQnOkvqikBUBubu7IuLi4kVJekxBCCFGSySTbvLuoiaL4REZGRg8pryllAcDbbLYPJbweIYQQojiTyaSmiYC14nmefxMSDt1L9icsKCh4x2KxtJDqeoQQQggrZrOZdYS6jMjMzLxVqotJUknk5uZ2TkxM/IXjONWVTIQQQkhTqeBgoPrYrVZrr59++qkm1gtJ0mCbzebPqPEnhBCiFyocAqiVFggE5kpxoZj/hMOGDbvMZrPJskaREEIIYUGlQwAAAI7jZg8YMKBXrNeJuQCwWq0f0Cm/hBBC9ESNKwHOYBUE4dlYLxJTAVBQUPCAzWZLizUEIYQQoiYaeLAdM2DAgCtjuUAsBQBvsVjmx3JzQgghRI1UPAfgNEEQFiKGyfxR/wnz8vKeM5vN8dH+PCGEEKJWWigAAAzq16/f2Gh/OKo/4YgRI8xxcXF/jPamhBBCiJppYAgAAMBx3AJE2ZZH9UOhUOivJpMpLpqfJYQQQohkMvr16zchmh9scgEwYcIEa1xc3LRobkYIIYRogVZ6AACA47g/jxgxosnrFptcAJw4cWKJyWRS3VFJhBBCiEH1qqiouLGpP9TUAoC3Wq1TmnoTQgghREtEUWQdoUk4jnsATVwR0KQCIDc3d57ZbLY1KRUhhBCiMVorAABk9uvX74qm/ECTCgCbzTa7aXkIIYQQogSO4+5ryvc3ugAoKCi4no77JYQQYgSCILCOEI2RGRkZAxv7zY0uAHiej3nfYUIIIUQLNFoAgOO4exr7vY0qAHJzc/vZbLYuUScihBBCNETDBcCN/fv3b9QZPY1aN2gymejpnxCNiY+Ph8ViQWJiIoBT65rP/e9QKIRAIADg1Aee1+s9/fNerxderxehUEj58IQwptUCAIAVwC0ALthuN6YA4K1W62UxRyKExCQuLg5paWlo1aoVWrZsibS0NLRo0QJJSUlITk5GUlLSWf8t1XGmgUAALpcLHo8HLpcLbrcbHo8HTqcTdrsdFRUVqKysRHl5OaqqqhAOhyW5LyEsRSIR1hGiJoriHQCeA9DgUoYLrhnMz8+/LyEh4TmpghFC6peamor09HR07NgR6enp6NChA9q0aYNWrVqdfnpXM1EUUV1djYqKCpw4cQJHjhzB0aNHceTIERw7dgw+n491REIapbq6Gn6/n3WMWFxSXFz834a+4YI9AGazeaZ0eQghAJCYmIgePXqgZ8+e6Nq16+lGXwuNfEM4jkNqaipSU1PRq1ev836/vLwcR48exeHDh3HgwAEcOHAAhw4d0vTTFtEnHbwmpwNosABosAcgJyenZ0pKyj4t7YlMiNokJSWhZ8+e6Nmz5+lGv127dpraa1xOwWAQBw8exIEDB7B//37s378fBw8e1MMHMNGwkydPanEzoDP5AbQvLi6uru8bGuwBsFgsf6EPKUKaplmzZujbty8yMjKQlZWFHj16UGPfAKvVit69e6N3796nv+b3+1FaWoqSkhJs27YNJSUlCAaDDFMSI4lEIlpv/AEgDsAEAG/U9w0NfioVFhY6LBZLM6lTEaInzZo1Q1ZWFjIzM9G/f3+kp6dTgy+xQCCAvXv3ori4GDt27EBJSQn1EBDZ+P1+VFfX++CsJeuKi4svr+836/2Uys/PHxAfH7+DPsgIOV/nzp2Rk5ODQYMGITMzE2Zzk0/iJDHw+/3YuXMnioqKsGXLFlRUVLCORHTE7XbD5XKxjiGFiCiKHXbv3l1W12829Kn1GDX+hJwSHx+P7OxsDB48GEOGDEFqairrSIYWFxeHnJwc5OTkQBRFHDhwAFu3bkVRURH27dunh+5bwpCOhptMPM9fB2BJXb9ZbwtfWFjotFgsybLFIkTlrFYrBg0ahOHDhyM3Nxfx8fGsI5FGKC8vx6ZNm7BhwwaUlJRQMUCarKysTMsbAZ3ru+Li4hF1/UadBUBubu7gxMTELdQDQIzGYrEgOzubGn2dsNvt2Lx5MxUDpNHC4TDKy8tZx5CSYDab07dv33783N+os4UvKCj4MD4+/gb5cxGiDhkZGbjyyiuRn5+v+bX4pG5Hjx7FmjVrsGbNGlRWVrKOQ1SqdpdLnflDcXHxeasB6iwARowYcdJqtbaRPxMh7CQnJ6OgoABjxoxB165dWcchChFFETt27MDKlSuxefNm2rqYnKWqqur0+Rg68llxcfH4c794XgGQl5eXnJCQUMNR/z/RIZPJhMGDB2PUqFEYPHgwzd43uJqaGqxbtw6rVq3C4cOHWcchjImiiLKyMj0OFbkEQWhVUlJy1uzG8xr5goKCB+Lj459RLhch8ktISMCVV16J8ePHIy2tUSdlEoMpKSnB559/jo0bN+ppAhhpAh2t/z+PKIqFu3fvXn/m1857/OF5fqJiiQiRWfv27XHttddi1KhRiIuLYx2HqFhGRgYyMjJw4sQJrFy5EitXroTb7WYdiyhI44f/NIjjuN8BWH/W1879pksvvdRvNpttSoUiRGocxyE7Oxvjxo1DdnY27cpHouL1erF69Wp8/vnnOHHiBOs4RAE6W/53ruLi4uL+Z37hrE/G4cOHZ8bFxe1SNhMh0uA4Djk5OZg8eXKdJ9EREg1RFLFhwwa89957NE9Ax/Tc/f8bkeO4trt27bLXfuGsIQBRFKcqn4mQ2NQ2/DfffDN69OjBOg7RGY7jMHz4cBQUFGDLli14//33sW/fPtaxiMR8Ph/rCHLjRFEcBmBZ7RfOKgA4jrtU8UiERMlsNmPEiBG46aab0LFjR9ZxiM7VFpo5OTnYvn07/vGPf2DPnj2sYxEJCIKg6/H/WqIo5qG+AsBsNlO/KVE9juNQWFiIW265BW3btmUdhxhQVlYWsrKyUFRUhLfffhu//vor60gkBgZ4+gcAcByXd9b/r/2PYcOGpSYlJVXShCmiZllZWbjjjjuoq5+oRu0cgb///e84efIk6zgkCna73SjHSwdcLlfzX3/91Q+c0QPAcdxkavyJWnXp0gXTpk1DTk4O6yiEnKV2jkBubi5Wr16Nf/zjH3A4HKxjkUby+XxGafwBwJaYmJgNYBNwRgFgMplGMotESD3S0tIwbdo0jBgxgpbzEVUzm8246qqrMHz4cHz00Uf49NNPaZthDfB6vawjKIrn+Rz8VgDwZ3wxg1kiQs5hNpsxbtw4vPHGGygsLKTGn2hGUlISbr/9drz55psYMmQI6zikAYFAAMFg8MLfqC+n9wI4/al66aWX+sxmM22VRpjLysrCjBkzkJ6ezjoKITH74Ycf8Nprr9FmQipUWVlpxAJgW3FxcTbwWwGQnZ2dkJqa6qGnLMJSu3bt8Mc//pHG+YnuBAIBLFu2DB988IFhZpyrXSAQQFVVFesYLARatmyZtH79+jAPAHFxcaOo8SesWCwWTJ06FW+++SY1/kSXbDYbJk6ciKVLl+Liiy9mHcfwRFGEy+ViHYMVW3l5eS8AMAFA586dZ1oslsFsMxEj6t69O5544gmMGDECJpOJdRxCZJWUlITLLrsMnTt3xs6dO/V47rwm+Hw+w03+O8cGu91ewgMAz/MDWachxmKz2XD77bfjlVdeoTX9xHCGDx+ON954AwUFBayjGI4gCEZ++gcAcBzXD/htGSDHcR3YxiFGkpGRgXvvvZe27yWG1qJFCzz66KP44Ycf8PLLL6OiooJ1JENwuVx6PvGvsboBvy0D5Hm+JdssxAhsNhtmzJiB559/nhp/Qn6Tk5OD1157DcOHD2cdRfdCoZDRu/5rdQF+KwDMZnM80yhE9zp37oyXXnoJY8aMoTX9hJwjJSUFc+fOxdy5c5GUlMQ6jm7V1NSwjqAWXQGAy83NTUtKSipjnYboE8dxGDt2LG6//XZYLBbWcQhRvbKyMjzzzDMoKSlhHUVX3G634cf+zyC6XK4EU5cuXS63WCw3sk5D9Kd58+aYO3curr32WprhT0gjJSUl4fLLLwfP89i9ezdEUWQdSfNCoRCdz3A2Li4u7n0+EonQCgAiuZycHLzxxhu0FSohUTCZTJgyZQoWLVqEVq1asY6jaYIgUONft648z/PdWKcg+sHzPG6++WY88cQTaNasGes4hGhaZmYmlixZguzsbNZRNMvpdNKhTHUQRbGdqVOnTr+3WCw9WYch2peSkoLHHnsMo0aNool+hEgkLi4OhYWF4HkexcXFrONoisfjgcfjYR1DlTiO22Tq0qXLbLPZTPsAkJj06NEDTz/9NHr16sU6CiG6w3Ec+vfvj549e2Lr1q1GPMCmyYLBIM36b9g2nuO45qxTEG27/PLLsXjxYrRt25Z1FEJ0LScnB3/961/RtWtX1lFULRKJoLq6miZQNkAUxZamrl27PmIymWjhKWkys9mMWbNm4ZZbboHZbGYdhxBDSE5OxhVXXIEjR47g8OHDrOOojiAIqKqqQiQSYR1F1TiOO2Tq2rXr4yaTycY6DNGWpKQkPPHEE7SXOSEMmM1mDB8+HBzHYdeuXazjqIYoiqiurkYoFGIdRQsqTN26dXuc53l6fCON1q5dOzzzzDPo3bs36yiEGFbtvIA2bdpg69atht/fvrbxp/kRjebiOY7jWacg2nHRRRfhxRdfRKdOnVhHIYQAGDlyJBYtWmToZbeiKMLhcNDxyk0giqKNx2/nARByIZdffjkWLVqE5s1p3ighapKRkYEXXnjBkIds1Tb+fr+fdRRN4TjOxvM8Twu2yQVNmjQJ999/P+3nT4hKdejQAYsXLzbUUtzabn9q/KNi5UVRpAKA1IvjOEyfPh233HILbe5DiMo1a9YMzz77LC6++GLWUWRXO9ufuv2jZjN17959Pn2wk7rwPI977rkHY8aMYR2FENJIZrMZl1xyCY4ePYpDhw6xjiOLcDiMqqoqmu0fG9HUo0eP+axTEPWxWCyYO3cuCgsLWUchhDQRz/PIz89HdXU19u/fzzqOpEKhEK3zlwZv6t69+3zWKYi6JCYmYsGCBRg8eDDrKISQKHEch5ycHITDYezevZt1HEl4vV7a4U8ioihSAUDOlpSUhKeffhoXXXQR6yiEkBhxHIesrCzwPI+dO3eyjhO12iN96WAfaVEBQE5LTEzEU089RRv8EKIz/fv3h81mw/bt21lHabJgMEgb/MhAFEUqAMgpiYmJWLhwIfr06cM6CiFEBhkZGZorAtxuN2pqagy/y6EcqAAgAKjxJ8QotFIE1M7y9/l8rKPoliAIVAAYXUJCAhYuXIi+ffuyjkIIUUBGRgYAqPIQIVEU4Xa74XA46KlfZlQAGFxcXByeeuopavwJMZgBAwYgGAyipKSEdZTTvF4v7eevoEgkAjoF0KDMZjMeffRRavwJMahp06bB5XJh1apVTHMEg0E4nU7a1EdhoihSAWBEHMdhzpw5tM6fEAPjOA6zZs2C2+3Ghg0bFL9/MBiE2+2mJ35GBEGgAsCIfv/73+OKK65gHYMQwhjP83jooYfg8Xiwbds2Re7p8/ng9XppWR9jgiDQUcBGM2nSJIwfP551DEKISpjNZsybNw89e/aU7R6CIMDj8cBut8PhcFDjrwJUABjM7373O0ydOpV1DEKIyiQkJOAvf/kL2rdvL+l1A4EAqqurYbfb4XQ6af9+FaECwECys7Mxc+ZMOtKXEFKn5s2bY8GCBUhKSor6GqIowu/3w+FwoKysDFVVVfD7/bR3vwpRAWAQ6enpeOSRR2AymVhHIYSoWMeOHfH444/DbG789LBQKASv14uqqiqUlZWhuroaPp+P1vGrHO0DYAApKSlYtGgRWrZsyToKIUQD2rRpg5YtW6KoqOi83wuHwwiFQvD7/fB4PHA6nfB4PAgEAtS9rzFut5tWAehZ7Vp/qcf1CCH6NmrUKOzduxcfffQRwuEwIpEIIpEIPdXrSDgcpgJAz2bPno0BAwawjhGV0tJSfPnll9i5cycqKysRDofRqVMn9OnTB1lZWRg4cCCSk5NZxyQENTU12LJlC4qKilBcXIxffvkFZrMZbdq0wcUXX4yJEydq8oTNmTNnYt++fUz2CCDyqu2t4UaOHEmzM3To+uuvx/Tp01nHaDKfz4fXXnsNX3/9dYPfx3EcevbsiUGDBiE7OxsZGRk0x4EoIhKJYPv27di8eTOKiorwv//974JPxuPHj8cDDzyAhIQEhVJKw+PxYNKkSTh48CDrKERCoVAIFRUVVADoUf/+/fH0009rrkH0+Xx4+OGHsWfPnib/bFJSEi6++GIMHToUgwcPjmkmMyHncjqd2LhxI9avX4/NmzfD6XQ2+RoDBw7E0qVLER8fL0NC+ZSWlmLy5Mnwer2soxCJ+Hw+OBwOKgD0JjU1FUuWLEGLFi1YR2myRYsWYd26dTFfx2KxYMiQIbjsssswZMgQWCwWCdIRowkGg9iwYQNWrFiBDRs2SLJ5zTXXXIMnn3xSgnTK+uqrr/DAAw+wjkEk4na74XK5qADQE5PJhEWLFqFfv36sozTZnj17MGfOHMmvm5SUhMLCQowZMwadOnWS/PpEf0pLS/Hhhx9i1apVUT3pN4TjOLz77ruanJvz9NNP44MPPmAdg0iguroafr+fJgHqybRp0zTZ+APAypUrZbmu2+3G8uXLsWLFCvTr1w/XXnst8vLywPO0BQb5f4IgYP369fjXv/6FLVu2yLZxjSiK+OSTTzRZANx3330oKSnBzp07WUchMQqHwwBoEqBu5OXlYd68eZrc6U8URUycOFHSpy1BEBAKhRAMBhEIBM46arRTp0644447cPXVVzdpwxOiP+FwGCtWrMCbb76JI0eOKHLPZs2a4bvvvtNkEVpWVoYbbrgBVVVVrKOQGJw8eRKiKFIBoAdt27bFkiVLkJiYyDpKVPbv34+77747pmuIoohAIIBgMIhgMIhwOHzBp7gOHTpg+vTpGDNmDBUCBhMOh/HFF1/gzTffxLFjxxS//7/+9S9kZGQofl8pbN68GX/84x9pe1+Nql0BAIB2AtQ6juPw+OOPIz09nXWUqK1duxbbt29v8s9FIhH4/X64XC44nU74fD6EQqFGb1bicrmwfv16rFq1Cq1atUL37t2bnIFoT1FREWbPno3PPvsMLpeLSYaOHTti0KBBTO4dq/T0dDidThQXF7OOQqIQDAbh9/sBgM4C0LpJkyahf//+rGPEpLGNf+1Tfk1NDex2O+x2O2pqahAIBGJ6Gjl8+DDuv/9+TJkyBbt27Yr6OkTd9uzZg9tvvx2///3vUVpayjRLXdvsask999yDXr16sY5BonDmcCgNAWhY79698cILL2huvf+ZoyQ4HAAAIABJREFUAoEArr/++nqXWIXDYfj9/tNj+XLjeR4TJ07E7NmzNTukQs7mdrvx0ksv4eOPP1bNVrY2mw0bNmxAXFwc6yhR27dvHyZNmiTJ8kiinIqKitNFAPUAaFRcXBweeOABTTf+wKmnsnM/QCKRCNxuNyoqKlBeXg6Xy6VI4w+cmjz44YcfYsyYMVi7dq0i9yTy2bBhA6677jp89NFHqmn8gVOFr9Z7m3r16oXZs2ezjkGa6MweACoANOrOO+9Ex44dWceIWUlJCYBTjb7H40FFRQXsdjtcLtdZL1SllZeX495778WDDz7IbJyYRM/lcuHBBx/EjBkzcOLECdZx6vTTTz+xjhCzKVOmYNiwYaxjkEY692GLCgANGjZsGH73u9+xjiGJrVu3nm70nU4n00a/LqtWrcKECROimqRI2Ni+fTsmTJiAVatWsY7SoB07drCOEDOO47BgwQLaelsjqADQuMTExJiXzKlFJBJBUVGR6hr9cx0/fhzTpk3D66+/rqpuZHI2QRDw+uuvY9q0aTh+/DjrOBe0a9eu06eyaVlaWhruu+8+1jFII5z7WUsFgMbcfvvtaNWqFesYkti7d69mDhiJRCJYsmQJ7rrrLsm3hyWxczqduOuuu7BkyRLNNKoejwf79+9nHUMS48ePx5AhQ1jHIBdwbg8A7X6iIZmZmbjqqqtYx5DM3r17WUdoss2bN2PSpEl4+eWX0a1bt7N+LxAI4OjRozh27NjpX1VVVXA4HHA4HKiqqoLb7QZwqhL3+Xws/giqEx8ff/rApuTkZLRo0QLNmzdH8+bNkZqaig4dOpz+1bFjR9hstrN+/pdffsGsWbNw+PBhFvFjsnfvXvTp04d1jJhxHIfHHnsM1113nWITdknThMPh83owqQDQCKvVijlz5mhyq9/6sF6LHa3Dhw9jypQpmDlzJjweD37++Wfs3bsXR44coSGCKPh8vtPFkNPpbHBnPp7nkZ6ejt69e6NPnz5ISkrCyy+/fLqw0poDBw6wjiCZTp06YcaMGVi8eDHrKKQOtZv/nIkKAI2YPHmyLmb9n0nLH35utxtPPfUU6xiGIwgCDh06hEOHDmH16tWs48RMy++BukydOhVff/316dU9RD3q6pmhOQAa0LVrV1x//fWsY0hOL+OfhERLb+8Bnufx+OOPa35/Er0RRbHOydZUAKgcx3G4++67dXdYjdfrRXl5OesYhDBlt9t1NxekT58+mDhxIusY5Az1bZdOBYDKFRYWol+/fqxjSE6tm7MQorSTJ0+yjiC5GTNmoHnz5qxjkN/UNzGTCgAVs9lsuO2221jHkEVZWRnrCISogh7fCykpKbrZr0QP6poACFABoGqTJk1CWloa6xiy0ONTDyHR0Ot74frrr0dGRgbrGIYXDAbrXZ1EBYBKtW/fHtdddx3rGLKx2+2sIxCiCnrsAQBOTQh84IEHdLV0WYsammNCBYBK/eEPfzi9OYoe1dTUsI5AiCroeWfJrKws3ZxbokWiKNbb/Q9QAaBKWVlZGDp0KOsYstLbzGdCouXxeFhHkNXs2bPP272RKKOh7n+ACgDV4TgOt956K+sYstPqzm2ESE0r52FEq127drQskJELPWhRAaAy+fn5utgb/EL0/qFHSGPpvQcAAKZPn05HBitMFMULnstABYCK8DyPW265hXUMRTQ0LkWIkRhhOKx58+aYOnUq6xiG4vP5Lng2CRUAKjJy5Eikp6ezjqEImhlMyCk8b4yP4alTp6Jly5asYxhGYwpLY7zyNMBqtWLy5MmsYyiGCgBCTjFKAZCQkIA77riDdQxDCIfDCAaDF/w+Y7zyNGD06NG63fSnLkb50CPkQoz0XpgwYQLat2/POobuNXaOlXFeeSpmsVgMN0uWegAIOcVIBYDVajXMPCdWRFFs9LwS47zyVGzUqFFITU1lHUNRcXFxrCMQogpGey+MHz8erVu3Zh1Dt/x+/wUn/9WiAoAxnud1veVvfeikMEJOadasGesIirLZbJg0aRLrGLrVlD1WqABgrLCwEO3atWMdQ3FG+9AjpD5GfC/ccMMNSElJYR1DdwKBAMLhcKO/nwoAhjiOM9zYfy168xNyihHfC0lJSbjxxhtZx9Cdpm4qRQUAQ0OHDkWXLl1Yx2DCiE89hNTFiAUAAEyZMgXx8fGsY+hGOBy+4M5/56ICgCEjV8BGHPYgpC5GfS80b94c48ePZx1DN6I5X4UKAEb69u1riD3/69OhQwfWEQhRhY4dO7KOwMykSZMMtQxSLuFwOKrt1elvnpExY8awjsBU+/btaS8AYng8zxu2BwAA0tPTkZeXxzqG5rlcLoii2OSfowKAgWbNmqGgoIB1DKZsNhtatWrFOgYhTLVu3RpWq5V1DKZuuukm1hE0LRQKRX24GhUADIwePRoWi4V1DOY6d+7MOgIhTNF7AMjNzUWnTp1Yx9CsaMb+a1EBoDCTyYTRo0ezjqEKRp4DQQhA7wHg1DAI9QJEJ5anf4AKAMXl5eVR1/dv+vbtyzoCIUxRAXDK2LFjkZSUxDqG5rhcrph+ngoAhV1zzTWsI6gGFQDE6KgAOCUxMRFXXXUV6xia4vf7m7zu/1xUACioffv2yMzMZB1DNbp27Wr4CVDEuKxWK7p27co6hmqMHTuWdQTNEEUx5qd/gAoARV1++eW09O0M3377LYLBIOsYhDARDAaxZs0a1jFUo1+/fujWrRvrGJrg8XiatOd/fagAUAjHcbjssstYx1CN8vJyPPHEE6xjEMLUggULcPLkSdYxVMPo+6M0hiAIMc38PxMVAAoZMGAA2rZtyzqGKoiiiMcffxw1NTWsoxDClMvlwmOPPRbVJi56dM0119DOgBfgdDole73Q37RCrrjiCtYRVOODDz7Axo0bWccgRBWKiorw4Ycfso6hCq1bt0Zubi7rGKoVDAbh8/kkux4VAAqwWq30ov7NwYMH8eKLL7KOQYiqLF68GKWlpaxjqAINA9RNFEU4HA5Jr0kFgMzC4TCys7ORkJDAOgpztV3/sS5dIURvAoEAnnjiCRoKAFBYWIjk5GTWMVTH5XIhEolIek0qAGTk9/tRUVGBkSNHso6iCitWrMCOHTtYxyBElXbs2IGVK1eyjsGczWbDiBEjWMdQlXA4DK/XK/l1qQCQicfjgcPhQFJSEgYPHsw6DnN+vx+vvPIK6xiEqNoLL7wg6RivVl1++eWsI6iGKIqorq6WpXeICgAZOJ3O0zM1R4wYQQf/AHjzzTdx4sQJ1jEIUTW73Y633nqLdQzm8vLyaGvg37jdbknW/NeFCgAJCYKAqqoqeDye01+j2f/AiRMn8N5777GOQYgmvPPOOzh+/DjrGExZrVbk5+ezjsFcMBg8qz2RGhUAEqlt/M+c4JaQkIBhw4YxTKUOzz33XEwnVhFiJIFAAIsXL2YdgzmjPzwJggCHwyHrxFAqACQQCoVQUVGBUCh01teHDx8Om83GKJU67Nu3D2vXrmUdgxBNWbNmDfbv3886BlMFBQWIj49nHYOZmpoayWf9n4sKgBgFg0FUVVXV+Q9FW/8Cf/vb32hpEyFNJIoi/va3v7GOwVRcXBzy8vJYx2DC6/Uq0mtKBUAMvF4vKisrIQjCeb9nNpsNP4Z1+PBhrF69mnUMQjTp66+/xpEjR1jHYKqgoIB1BMWFw2E4nU5F7kUFQJScTmeDe9kPHDgQiYmJCiZSn7feeqvO4ogQcmGCIOCdd95hHYOpvLw8Q52gWjuXTKleUyoAouB0Oi84M9PoW//a7XasWLGCdQxCNG3ZsmUoLy9nHYOZtLQ0dO/enXUMxTgcDtnH/c9EBUAT1dTUNGpZhtELgPfeew/BYJB1DEI0LRgMGn4JrVHmAbhcLsW3SacCoAmqq6sbtR1j8+bN0adPHwUSqVMoFMIXX3zBOgYhuvD5558bupg2wsOU3++H2+1W/L5UADRC7VaMjZ2VmZuba+gzrdevX4/q6mrWMQjRBYfDgQ0bNrCOwcygQYMQFxfHOoZsQqGQ5Kf8NZZxW6lGamrjDxiny6o+n3/+OesIhOiKkd9TNpsNF198MesYsohEIopO+jsXFQANEEXxvN39GmPo0KEyJVK/8vJybN68mXUMQnRl48aNhp4MqMcdVWtn/LNcKUUFQD0EQUBlZWWTx946deqE1q1by5RK/ZYvX67oLFZCjCASieDLL79kHYOZrKws1hEkJYoiHA6HbIf8NBYVAHUQRRGVlZXnbe3bGAMGDJAhkXbQ5D9C5LFs2TLWEZjp06ePbrYFrm38lZ7xXxcqAM5R++QfbWWmt0q1KQ4dOoRffvmFdQxCdKm0tBSHDx9mHYMJs9mMzMxM1jEk4XQ6VXM4GhUAZ6id8BfNk38tIxcARp6pTIgSjPweGzhwIOsIMXM6nY1aSq4UKgB+U9v4x7LeNjk5GV27dpUwlbYY+cOJECVs3LiRdQRmtP5w5XK5GrWJnJKoAPhNdXV1zGMyAwYMMOz6f5/Ph59++ol1DEJ0bevWrap6glSSlj9f3W43k41+LkSbf5sSk6LxB/TRRRWtoqIiQ+9WRogSgsEgtm7dyjoGE0lJSejZsyfrGE3mcrngcrlYx6iT4QsAh8Mh2YSMfv36SXIdLTJy1yQhSjLyUFtGRgbrCE3idDpV+eRfy8w6AEs1NTXw+XySXc/I+/9v27aNdQRCDGHHjh2sIzDTq1cv1hEaRRRFydsXORi2B0Dq2ZitW7dGamqqZNfTEq/Xi4MHD7KOQYghHDhwQPUNi1y08pDlcDg08W9kyALA6/VKPhuzd+/ekl5PS/bs2cN0O0tCjEQQBPz888+sYzDRq1cvcBzHOka9aveRUcs6/wsxXAEQCARQU1Mj+XW1UpnKoaSkhHUEQgzlf//7H+sITCQlJaFDhw6sY9QpEolEtX08S4YqAEKhkGzH1GplbEoOVAAQoiwjv+fU2NsaDAZRUVHBfG//pjJMASAIAqqrq2U7dlGNL0qlGPnDiBAWjPyeU9vDlt/vZ36qX7QMUQDUHrso1yl1NpsNnTt3luXaahcMBnH06FHWMQgxlEOHDsW0ZbmWqelhy+12y/pgKTdDFAAOh0PWN0uXLl00u0NVrE6ePKnJypcQLRMEAXa7nXUMJtTwsFX7UKnWDX4aS/etltPplP3YxfT0dFmvr2bHjx9nHYEQQzLqe69jx45MH7hCoRAqKipUcZxvrHRdALjdbkUOX6ACgBCitBMnTrCOwITNZkNaWhqTe3u9XlRUVMg2nKw03RYAfr9fse4ZIxcARv0QIoQ1IxffnTp1UvR+giDA4XDIsoScJV0WAOFwWNF/KKVfjGpi5A8hQlgycvGt5ENX7RI/Lezs11S6OwugdrmfkhPTOnbsqNi91MaoE5EIYa2srIx1BGaUmAgoiqJqj/GViu4KgJqaGkU3Y7BarWjbtq1i91MbJeZYEELOZ+T3ntwPXaFQCA6HQ3Mb+zSVrgoAt9ut+B7M7du3N+wSQACa2fOaEL3RY5d0Y8lVANQ+9Xs8Hs2u7W8K3RQAgUCAyZpMVrNR1YIKAELYMPJ7r1WrVpJfMxgMKt6DzJouCoBwOCzbHv8XIscLUUuM/CFECEtG7gFITU2FyWSSZDmeIAhwuVySHg+vFZrvuxZFEQ6Hg1l3TevWrZncVy2oACCEDSO/93ieR2pqakzXEEURHo8HdrvdkI0/oIMCwOl0Mt0Tu2XLlszurQZGfgohhCWjv/di+ez1+/0oLy+H0+k0xFh/fTRdAHi9XuaVm9GHAIz85iGEJaOfwRFN72soFEJVVRWqq6t1s5tfLDQ7ByAcDsPpdLKOYfghAIvFoos9sQnRGqvVyjoCU0357A2FQkxWiamdZgsAluP+ZzL6EAAVAISwYbFYWEdgqjGfveFw+HTDr4b2Qm00WQC4XC7VnIXdokUL1hGYMvqHECGsGL0HICUlpd7fq234jT5P4kI0VwAEg0FVbc2YmJjIOgJTCQkJzJZgEmJkCQkJrCMwlZSUdN7XatsH6pVsHE0VALVL/tSC53nExcWxjsFU8+bNcezYMdYxCDGc5s2bs47AVO3DlyiK8Pl88Hg8htrERwqaKgAcDoeqZm4a/ekfoA8hQlgx+vBjQkLC6Q18jL4iIlqaKQC8Xq/qZnBSAUAfQoSwYvTi22azqWo4WIs0sQ9AJBJhss//hVABQKsgCGEl1p3wtC45OZl1BM3TRAFQXV2tyi4eo0/CAU6dhkgIUZ7cR+KqXV2TAEnTqL4A8Hg8qlnydy7qAQA6dOjAOgIhhmT04psKgNipugBQa9d/LVoDTwUAIawYvQeA51XdfGmCqv8Ga2pqVL17E70AT30I0d8DIcoymUyG7wEwmUysI2ieaj+5vV6v6jdz4DiOdQTmbDYbOnXqxDoGIYbSpUsXw+8ESA8esVPl36Dau/5rUQV6Sq9evVhHIMRQevbsyToCc1QAxE6Vf4NOp1OVs/7PRT0Ap9CHESHKoqKbHsCkoLoCwO/3q27Dn/pQBXrKRRddxDoCIYbSt29f1hGYowew2KlqJ0BBEOB0OlnHaDQqAE4ZOHAgeJ7XRK8NIVojiiLC4TAikQhCoRBEUUT//v1Zx2KOPn9jp6oCwO12q2qvf9I4ycnJ6Nq1K0pLS1lHIUTzgsEgwuHw6f8Nh8NnrYbKyMigXfAAeuCQgGoKgGAwCK/XyzpGk6h9lYKSsrKyqAAgpIkEQUAwGDz969zGvi5Dhw5VKJ26aWWoWM1U0YciiiKcTqeq1/zXhV6A/2/IkCGsIxCieqIoIhAIwOl0ory8HGVlZaiurj6942ljPgPz8/MVSKp+9AAWO1X0APj9ftVu99sQKgD+X25uLs0DIKQOgiDA7/cjEAggEAjE9KBjNptRUFAgYTrt8vl8rCNoHvMCQBAETaz5rwtVoP8vJSUFmZmZ2LlzJ+sohDBX2+j7/X4Eg0HJejcHDx6MZs2aSXItraPP39gxLwC0PPGPXoBny8/PpwKAGJYoivD7/fB6vQgGg7Lc49JLL5XlulpEPbCxYzoHIBKJaG7i35noBXi2kSNHso5AiOICgQAcDgfKysrgcDhka/wBYPTo0bJdW2toCCB2TAsALU78OxP1AJyta9eu6N69O+sYhMhOEAR4vV5UVFSgqqoKPp9P9s+yjIwM2nXzDPQAFjtmBUAwGNT8P6BW5y7IadSoUawjECKbcDiMmpoalJWVoaamRtHJy+PGjVPsXlrgcDhYR9A8ZgWAlnb8q08gEND0EIYcRo0aRVt0Et0JBoOoqqpCeXk5k/c8x3EYO3as4vdVs6qqKtYRNI9JAeD1ejW57K8uVIWerXPnzsjKymIdgxBJ+P1+lJeXo7KykumQX35+Pjp37szs/mpUWVnJOoLmKV4A1G76oxfV1dWsI6jOddddxzoCITGpbfirq6sRDodZx8GUKVNYR1Ad6gGIneIFgMfj0fTEv3NRD8D5Ro4cSWuViSapreEHgNTUVJr9Xwd6+IqdogWAKIpwu91K3lJ29CI8n81mo/FKoinBYBAVFRWqavhrTZo0CTabjXUM1aEegNgpWgC43W5dPf0D1ANQnylTpsBsZr7PFCENCofDqKqqQmVlpSrnJVksFtxxxx2sY6gSzQGInWIFgCiKupwxT1Vo3dq0aUMbAxHVEkURLpcLFRUVqt7PY9y4cejQoQPrGKpUUVHBOoLmKVYAuFwuXR4Uc+LECdYRVOuWW26hJYFEdbxeL+x2u+p7JDmOw4wZM1jHUKVwOEyfvRJQpADQ+pa/DaEXYf369u2L4cOHs45BCIBTjUZlZSVqamo08TAyevRoXHTRRaxjqNLJkydVN1dDixQpANReacfi+PHjrCOo2qxZs8DzTHecJgYniiI8Hg8qKipk3adfSjzP4/7772cdQ7WOHj3KOoIuyP7JHIlEdH1og91up0q0AT179sRll13GOgYxqHA4jIqKCs2dO3LttdciIyODdQzVogJAGrIXAHp++gdOHQpSVlbGOoaqzZw5k1YEEMV5PB6Ul5drrkC3Wq146KGHWMdQNSoApCFrAaDnsf8z0TyAhnXp0gU33XQT6xjEICKRCCorKzW74+jvf/97dOvWjXUMVTt27BjrCLogawGgt01/6kPzAC7szjvvRPPmzVnHIDrn8/lQXl6umbH+c7Vq1Qr33HMP6xiqd/jwYdYRdEG2AqD2vGwj+PXXX1lHUL3k5GTMmjWLdQyiYzU1NXA4HJoecpw3bx5SUlJYx1C9/fv3s46gC7IVAB6PR65Lq87BgwdZR9CE8ePHY9CgQaxjEJ0Jh8PMjumVUm5uLg2VNYLP56MhAInIUgCIoqjrmf/nKi0tZR1BE3iexxNPPEH7mhPJBAIBVFZWam6i37msViuee+452jirEfbu3auJfRy0QJYCwOfzIRKJyHFpVTpy5IhmxxyV1rlzZ/zhD39gHYPogNvtRlVVlS4agwceeAA9e/ZkHUMT9u3bxzqCbshSABip+x84Nev40KFDrGNoxm233YaBAweyjkE0ShRFVFdXw+VysY4iiSFDhuDuu+9mHUMzqACQjuQFQCAQ0Hx3XDRoGKDxTCYTnnrqKSQlJbGOQjQmEomgoqICfr+fdRRJpKSk4PXXX4fJZGIdRTP27t3LOoJuSF4AGGXp37l++eUX1hE0pUOHDnj44YdZxyAaUruXv54eMJ599lmkp6ezjqEp1AMgHUkLgFAoZNixcHpRNt0111yD8ePHs45BNCAQCKCiokJXc4tuvfVWev03kcvlomXXEpK0ADDa2P+ZiouLWUfQpEceeQT9+vVjHYOomM/nQ3V1tabX958rOzsbTz75JOsYmrNz505dTPpUC8kKAL0f+nMh5eXlKC8vZx1Dc6xWK55//nm0aNGCdRSiQl6vV/Ob+5yrVatWeOutt2C1WllH0ZwdO3awjqArkhUARm78a1EvQHTatWuHV199FXFxcayjEBVxu92oqalhHUNSNpsN7777Ltq3b886iiZt27aNdQRdkaQAEEVR87twSWH37t2sI2hWv3798Je//AU8L/sBlUQDXC6Xbpb51eI4Di+99BIGDx7MOopmUQ+AtCT5tA0EArqanBOtkpIS1hE0beTIkXReAIHL5dLlaqL58+fjuuuuYx1DsyorK3HkyBHWMXRFkgKAnv5PKS4u1tVYJQvTpk3DtGnTWMcgjOi18b/zzjtx1113sY6hadu3b2cdQXdiLgAikQgCgYAUWTTP7XbTjoASmD17Nm644QbWMYjC3G63Lhv/O+64AwsWLGAdQ/N+/PFH1hF0J+YCgCb/nY1epLHjOA4PP/wwxo4dyzoKUYjH49HdmD8ATJo0CQsXLmQdQxc2bdrEOoLuUAEgsa1bt7KOoAu1JwdOnjyZdRQiM5/PB6fTyTqG5G677Ta88MILdMKfBHw+H60AkEFMBYBR9/1vyJYtW2gegEQ4jsODDz5IpwfqWCAQ0N1SPwCYNWsWFi1aRKtaJLJlyxbD7jIrp5henTT573yVlZU4ePAg6xi6MmPGDMyZM4eepHQmFArpboe/2p6refPmsY6iK5s3b2YdQZeiLgBEUaTJf/WgeQDSmzZtGp5//nnYbDbWUYgEIpGI7hp/q9WK119/nWb7y2Djxo2sI+hS1AWA1+vV1ZtXSlu2bGEdQZcuv/xyvPHGG7RtsMaJooiqqipd7R3SqlUrfP755xg3bhzrKLrj8/loAyCZRF0A0OS/+v344490YIVMsrKy8OGHH9IBQhpWXV2tq7lD2dnZWLduHe3wJ5OioiIa/5dJVAVAJBJBKBSSOotuVFVV4X//+x/rGLrVrl07vPPOO7RCQINcLpeuhg6nTp2KL774gvb2l9Hq1atZR9CtqAoAevq/sO+++451BF2zWq148MEH8eSTTyIpKYl1HNIIfr9fNxv9pKSkYOnSpXj++efpVD+ZrVmzhnUE3YqqAPD7/VLn0B0qAJRxzTXX4JNPPsGgQYNYRyENCIfDulnud/HFF2PdunUYP3486yi69/PPP9PuqjJqcgFA3f+Ns3fvXpSVlbGOYQjt27fH3//+d8yaNYtWCaiQKIqorq7W/LwYm82GRx99FCtWrECXLl1YxzGEtWvXso6ga00uAKj7v3FEUaReAAWZTCbccccd+PTTTzFkyBDWccgZampqND/pLycnB99++y1mz54Nk8nEOo5h0Pi/vKgAkNF///tf1hEMJz09HW+++SYef/xxWi6oAn6/X9OfGa1atcJLL72E5cuXo2fPnqzjGIrD4aCt1WXWpAIgHA5rvpJX0g8//EDzJRjgOA7XXXcdVqxYgalTp8JsNrOOZEjhcBgOh4N1jKhYrVbMmDEDP/zwAyZNmkS7UDKwbt06am9k1qQCgBqzpgkEAtQLwFBycjLuv/9+fPbZZ7jyyitpX3YFiaKImpoazW0WxvM8xo0bhw0bNmD+/PlISUlhHcmwli1bxjqC7lEBILOvvvqKdQTD69y5M5599ln85z//wciRI+lpTgEej0dzm7dccsklWLt2Ld544w1069aNdRxDq6mpwbp161jH0L1GFwDhcJhm/0dhw4YNuln7rHXdu3fHc889h48++gijR4+moQGZhMNhzbzmLRYLJk6ciO+++w6ffPIJMjMzWUciAFauXKm5AlKLGl0A0NN/dAKBAL799lvWMcgZ+vTpg6eeegorV67ErbfeimbNmrGOpCtaOOSnRYsWuPvuu/Hjjz/i1VdfxUUXXcQ6EjnDZ599xjqCIXAjR45s1Du1srKSKrIo5efnY8mSJaxjkHoEg0GsX78en3zyCX744QfVN15q5nK5VP30P2DAAEydOhUTJkxAfHw86zikDpWVlejXrx9NAFRAo/pABUGgxj8GRUVFcDgcaN68OesopA5WqxUjR47EyJEjceTIEXz11Vf4+uuvsW/fPtbRNEWtXf8ZGRkYO3Ysxo0bh86dO7OOQy7Iy6WnAAAgAElEQVTgiy++oMZfIY3qAfD5fJpdzqMW8+bNw4QJE1jHIE1w8OBBrFu3Dhs2bMCuXbt0dXytHKqqqlRx0I/ZbMbgwYNx6aWX4uqrr0aPHj1YRyJNcM0116CoqIh1DENoVAFQU1MDr9erRB7d6t+/P95//33WMUiUXC4Xvv/+e2zZsgXbt29HaWmp5re2lRLLhwSe59GnTx8MHToUBQUFGD58OC3f06jS0lIMGzaMhuEU0qghADVU9Vq3a9cu7N+/n3YT06jk5OTTwwQA4Ha7sWPHDuzZswf79u3D/v37cejQIUP2EoiiCKfTqci9zGYzunfvjr59+yIjIwOZmZkYPHgwNfg68cEHH1Djr6AL9gCEw2GUl5crlUfXJk+ejAcffJB1DCKTYDCIo0eP4vjx4zh27BiOHTuGyspKOByO079cLhcEQUA4HNZNr5rT6YTH44n65xMTE2GxWMDzPJo1a4bU1FS0aNECqampSEtLQ6dOnU7/6ty5Mx2/q1OhUAgDBw6E3W5nHcUwLlgAeDwexap7vWvWrBnWrl2r6hPr9u/fj08//RRFRUU4fvw4IpEIEhMTkZycjJSUFHTs2BG9e/dGz5490bdvX7Ru3Zp1ZE2z2+146KGH8OOPP7KOEpVIJILy8vImP7UVFBRgyZIlaNu2rUzJiNasXLkSt9xyC+sYhnLBAoCW/0nr6aefxlVXXcU6xnmCwSAWLVqETz75pNFj2xzHoXfv3rjkkktwySWXICMjg3bZi8KPP/6IadOmsY4RlWgn/n355Zd0aiM5y6RJk7BmzRrWMQylwY2ARFGk3f8k9p///Id1hPMEg0Hcdddd+Pe//92kiW2iKOLnn3/G0qVLMWnSJIwfPx4ff/yxpk9/Y+HkyZOsI0QlEAhEPT/o2LFjEqchWnbixAl88803rGMYToMFQCAQoAkZEvvxxx9x6NAh1jHOsmjRImzZsiXm65SWlmLBggW44oor8Oqrr1Ih0Ai7du3C008/zTpGVGJZ8//AAw9odtiDSO+f//ynISfQstZgAUBd/9ITRREffPAB6xin7d+/H5988omk13Q6nVi6dCmuvvpqLF++nIrIemzatAnTp0/X5Bwbv98f0+eDw+HAddddR099BMFgEG+//TbrGIZEBQADy5Ytg8vlYh0DAPDpp5/Ktp69vLwcc+fOxa233orjx4/Lcg+tWrlyJWbOnKnJXhJRFCV5/Xq9XkyZMkWVw2JEOZ9++inN/Gek3gKgdqkSkZ7X61XNh54SO25t374dEydOxNq1a2W/lxZ8+eWXeOSRRzT7/vL7/ZJlD4VCuOuuu/Dpp59Kcj2iPUuXLmUdwbDqLQBCoRB13crogw8+UMWYl1IT0JxOJ+69914899xzhn5dfffdd5g3b56mdxGMZc1/XQRBwMyZM7F+/XpJr0vUb9OmTdi9ezfrGIZVbwFA3f/yOnnypCGXvLz77rt49NFHVVH8KG3btm24//77NfvkD5x6+pdjZVAwGMRtt92GHTt2SH5tol6vv/466wiGRgUAQ++99x7rCEw2Ylm+fDnuu+8+Q73GTpw4gXvuuUfz22rLedqf2+3GTTfdhMOHD8t2D6IeBw8exOrVq1nHMDQqABgqLi7G9u3bmWYYOnQok/t+8803mDdvniGGAwKBAO69915UV1ezjhKTQCAg+74gFRUVmD59On3+GMCSJUs0PRSmB6bu3bvPP/eLwWBQk7OTtchut+Pqq69mdv+2bdvi448/ZtIQHzhwABzHYfDgwYrfW0kLFizAf//7X9YxYuZ0OhUZujlx4gT8fj8KCwtlvxdh48SJE5g5c6YhhwLVpM4eAKq+lbN582bs2rWL2f179OiBiRMnMrv/66+/jlWrVjG7v9y++eYbfPbZZ6xjxCwUCik6fPHaa68Zco6MUfz1r3+ldkYF6iwAaPtfZbFeBvOnP/0JOTk5TO4tiiIee+wx/Pzzz0zuLyeHw4EFCxawjiEJpU8uFEURd999NyorKxW9L5Gf3W5XxfwnQgWAKmzYsAElJSXM7m+xWLBkyRLcdNNN4PkG94aSRSAQwJw5c+BwOBS/t5wWLlyoiwZMEAQmQ4JVVVW6KaDI/1uyZAn8fj/rGAR1zAGIRCKyzvQldauoqGB6SqDJZEJBQQGuuOIKWK1WeL1e2ZZ81cXlcmHHjh246qqrYDabFbmnnLZs2YLFixezjiEJr9fLbPVCSUkJLr30UrRv357J/Ym0qqqqcOedd9JDpkqcdxyw3+/X/GxlLeI4Dh999BH69OnDOspZAoEAXC4Xfv31V+zevRvffvstdu7cKdvs3cLCQrzwwgtMeiKkIggCbrzxRt0Ma5SXlzPdu2DgwIH4+uuvNf2aIKc8+eSTePHFF1nHIL85rwcg1kM+SPTKysqY9gLUxWw2IyEhAe3bt8fAgQMxbtw4jB49Gn6/H/v27ZN89cCvv/6KY8eOobCwEBzHSXptpXz++eeSH7DESjAYlHznv6Y6efIkOnXqhMzMTKY5SGzKysro6V9lziup6R+Hnf/+97/YunUr6xgXlJ6ejvnz5+Of//wnevbsKfn1ly9fjrlz52pyjXA4HGY+qVNKalkO/OKLL9KSMY179tlnFZ9MShp2XgGg5W1K9eCFF17QzOY4F110Ed5//31Z1mt/+eWXuO+++zS3c96qVat0c/KhKIqqKQB++eUXrFixgnUMEqX9+/fjn//8J+sY5BxnFQB0AiB7u3fvxtdff806RqPFx8fjhRdewKWXXir5tdetW4fp06drZnWAKIp46623WMeQjN/vV1Ux+tJLL6kqD2m8v/zlL9S2qNBZBQB1/6vDX//6V039W/A8j2eeeUaWCYw7duzAjTfeiD179kh+balt2rQJpaWlrGNIRi1P/7WKi4vpxEAN2rJlC1auXMk6BqnDWQUAVWjqcOTIEfz73/9mHaNJbDYbnnrqKdhsNsmvffz4cUydOlX1Z8brYce/WoIgqHIy8L/+9S/WEUgTiKKI+fPns45B6kEFgEotXboULpeLdYwm6d69O6ZNmybLtQOBAObPn485c+aocpmqw+HAd999xzqGZNTW/V/rq6++on1KNOSLL77QxMRmo6ICQKUcDgdeeeUV1jGabNq0aejYsaNs1//mm28wfvx4fPnll6pqoL766itVPjFHS23d/7V8Ph9NBtQIr9eLxx9/nHUM0gCaA6BiH330keY2k7HZbHj00UdlvUdlZSUefvhhTJ8+HQcOHJD1Xo21bt061hEkIwiCqj8L9LLHgt4tXrwYx44dYx2DNOB0ASAIgqqeqMipf5OFCxdq7t8lNzcXY8aMkf0+W7ZswfXXX4958+bhxIkTst+vPm63G9u2bWN2f6kFAgFVv+Y2bdqkueExozlw4ABee+011jHIBZwuAKj7X5127NiBZcuWsY7RZH/605/QsmVL2e8jCAKWLVuG0aNHY+7cuUxm4RcVFan6ibmp1H5QSzgcxg8//MA6BmnAo48+qqshMb06XQDQLlvq9eKLL8LpdLKO0STNmjXD3LlzFbtfOBzG8uXLMX78eNx5551Ys2aNYo3y999/r8h9lKKFzZc2bdrEOgKpx/Lly3U1JKZnp88CoDMA1Mvn88Hj8WD48OGsozRJt27dUFlZqfhRx0eOHMHq1avx8ccf4+jRo7DZbGjfvr1sZwu8+uqrqKiokOXaSgsEAqqdAHimUCiEm2++mXUMcg6Px4Obb75Zcw8sRnX6NMDq6mrVd/0ZGc/zePvtt5GVlcU6SpMEAgFMnjwZ+/btY5ojOTkZQ4YMwbBhwzBw4EB0794dJpMp5usGAgEMGzZMN0NoLpdLE8vsTCYTSktLkZiYyDoKOcNDDz2Ev//976xjkEY6XQBUVFToahxTj7p06YKPP/5Yls125PTrr7/ixhtvVNVBIHFxcejTpw+6deuGzp07Iz09HS1btkRqaipatGgBnueRlJR0wevs3LlTV0+iWvocWLNmDQYOHMg6BvnN999/j7Fjx2ryEC+jOl0AlJWV0T+cBtx666249957Wcdoso0bN+Luu++m15iKCYKAsrIy1jEabenSpRg/fjzrGASnhilHjBiBX375hXUU0gQ8cOqNTx/M2vDuu+9i+/btrGM0WX5+viYLFyPR2hwgPZ27oHULFy6kxl+DeIBWAGiJIAj485//rLkPawCYOnUqJkyYwDoGqYfWXlNq2QTK6LZu3Yo333yTdQwSBSoANKi0tBSvv/466xhReeSRR3DFFVewjkHqoJWx/1pHjhxhHcHwAoEA5syZQ22IRlEBoFFvv/02duzYwTpGk5lMJjzzzDO45JJLWEchZxBFUXMFgBZWK+jd/Pnzma/wIdE7PQeAaEskEsFDDz2kyQ9Bs9mM559/Hrm5uayjkN+EQiFVb/9bFy2+9vVkzZo1tORP46gHQMOOHz+u2dO2rFYrXn75ZYwcOZJ1FALtdf8DpzadIWxUVFRgzpw5misaydmoANC4NWvW4IsvvmAdIypWqxWLFi2iiYEqoMWNjKgHgA1RFDFr1izY7XbWUUiMaAhABxYuXIjDhw+zjhEVnucxb9483HnnnbJt1UsuTGsrAABtZtaDpUuXYs2aNaxjEAlQD4AOeL1ePPjgg5rsxq1111134dlnn0VCQgLrKIak1c8A6oJW1u7du7FgwQLWMYhEeFEU6U2kAyUlJf/X3r1HR1XeewP/Pnv23jMTLglFSOyyVlu8hokXvByrtu8p1CsiWtSK9XjAKmIOtoiX81rlINqzqiJeu6qvPXqWllOKYEXAIzcN1YK1KgKJBBpIMpMLGZLJPXPJzH7ePwwUMIRcZvYze+b7WctFLjN7f4U1s3/ze579PFi8eLHqGENy2WWX4Y033sC3vvUt1VGySjwed+x7gFNzO1FraytmzpzJzksG0dj+zxxLlizBmjVrVMcYklNOOQV/+MMfODnQRk7uHLEAsIdlWbj77rtRWVmpOgolEQuADLNgwQLs3LlTdYwhGTlyJBYtWoRFixZh5MiRquNkPCdOADyA80bs8fTTT2PdunWqY1CSsQDIMNFoFPPmzcuI/bgvu+wyLFu2DBdeeKHqKBnNqeP/ACcw22HDhg1YtGiR6hiUAiwAMlBNTQ3uv//+jHhz/OY3v4lXXnkFL7zwAgoKClTHyUhO7gBQagUCARQXF2fEewl9HQuADLVlyxbH7hfQmx/84Ad46623cMstt8AwDNVxMgo7ANSbrq4u3HrrrQiFQqqjUIqwAMhgL7/8suMnBR5q+PDhePDBB7F69WpMmzYNmqapjuR4UkpHX0Q5ByA1LMvC7NmzUVZWpjoKpZDGWbSZS0qJBQsWOHLToL4cf/zxmD9/PlasWIHLL7+chcAQOL39z/ev1FiwYAHeffdd1TEoxcQFF1wgw+Gw6hyUQnl5efj973+PE088UXWUlKirq8OyZcvw5ptvor29XXUcR4lGo45u8dbW1sI0TdUxMsqSJUvwi1/8QnUMsoE4//zzZSQSUZ2DUuykk07CG2+8gdzcXNVRUqajowOrV6/GO++8g9LSUtVxHKGrqwutra2qYwxaIBCAx+NRHSNjfPDBB5g+fbrjO0PUP+K8886T0WhUdQ6ywfnnn4+XXnopKybR7d27F6tWrcL69esdu0+CHTo6OhzdNWEBkDzl5eW4+uqrM+IWYuofce6550onrwRGA3PNNdfg8ccfz6rJU5WVlSgpKcGf//xnbNu2jZ9uDtHW1ubobXX9fj+8Xq/qGI5XV1eHyZMnIxAIqI5CNmIBkIVuueUWPPjgg6pjKBGNRlFaWoqtW7fiiy++wK5du9DQ0KA6ljItLS1w8hyg6upqbiA1RKFQCNdccw12796tOgrZTOcs2uyzZMkSjBw5ErNnz1YdxXZutxsTJkzAhAkTDv6so6MDlZWV+Pvf/459+/YhGAyisbERwWAQHR0d6OzsRCKROPhnJnHyLYAA7wIYqvb2dtx00028+GcpXXUAUuO3v/0tcnJycNttt6mOotzw4cPh8/ng8/kG/NyioqIUJLKP0y+g2TSUlWyxWAy33357xt0mTP3HhYCy2OLFi/HWW2+pjkEKOf317/QCRpVEIoFZs2bhgw8+UB2FFOJCQFlMSomFCxdi48aNqqOQIk5//Tu9gFHBsizMmTMHq1evVh2FFNPYQstulmXhgQceYBGQpZxeANDAJBIJ/PznP8ebb76pOgqlAXYACN3d3Zg3bx6X/sxCfP1njwMX/6VLl6qOQmmCi6gTgK86AQ899BDbguQoLGD6J5FI4J577sEf//hH1VEojbADQAdZloWHH34Yq1atUh2FqF/4/nVsiUQCc+bMwbJly1RHoTTD2wDpMJZl4ZFHHoGUElOmTFEdh1LM6RdQp+dPtUQigeLiYqxYsUJ1FEpDGoDMWtmEhsyyLMyfP5+fGCjtsQA4unA4jFtvvZUXfzoqDUBMdQhKP5Zl4fHHH8ezzz7LN1kih2lpacG0adOwfv161VEojbEAoD69+uqrmD9/fsYtgUtfcfptwCxOv27fvn2YMmUKPvnkE9VRKI0JIaQGgHsBU59WrlyJuXPngttGE6W3Xbt24YorrsDOnTtVR6E0d6AAYAeAjqmkpAQzZ85ES0uL6iiURE7vANA/fPrpp5gyZQpqa2tVRyEHkFKyAKD+27FjB2bMmME9wzOI0wsALgX8leXLl2Pq1KkIhUKqo5BDCCEsDUBEdRByjj179mD69OkcX8wQTi8Asp2UEk899RTuvvtuDtHRgGialtCEEM2qg5CztLa2YtasWViyZInqKDRETi8AsnkSYFdXF2bMmIEnn3wyq/8eaNCimpSyUXUKcp5EIoEnnngCCxcuRDweVx2HBknTuBq4E9XX12PKlClYs2aN6ijkUJqmdWkAmlQHIedavnw5Zs+ejdbWVtVRaBCcXgBk4xyATz75BBMnTsS2bdtURyEHE0J0agDYAaAh+etf/4obb7wR27dvVx2FBsjpQwDZ5vXXX8d1112H/fv3q45CDieEaGIHgJKivr4eM2fO5LwAh3G5XKojDEm2jH13dHTgZz/7GebNm4dYjDduUVLs16SULAAoKWKxGJ544gnMnTsX7e3tquNQPzi9AMgGpaWl+OEPf4iVK1eqjkIZRNO0Ok0IUa86CGWWjRs3Yvr06di1a5fqKHQMTp8DkOkdgGXLluGqq65CZWWl6iiUYTRNq9Isy6pSHYQyT3V1NX76059yJ7I05/QCIFMnAba1teGuu+5CcXExwuGw6jiUgaSU27WRI0dWAsjsMpqUiEajePTRR3HXXXdx0lKa4hBA+vnb3/6GiRMnsnimlIrH4x9rW7ZsCQPguzOlzObNmzFt2jRs3LhRdRQ6gqZpju8CZIpYLIbHHnsMkydPRlVVleo4lME0TbNqa2ubDrzyOcBEKdXc3Iy5c+fivvvuQ1tbm+o4dAhd11VHGLRMmQNQXl6Oyy+/HM8//3zGDmtQ+tA0rRMANAAQQlQpTUNZY926dbjxxhvx6aefqo5CPZw8DOD0AiAej+P555/HxIkTUVpaqjoOZQlN05qAngLAsqw9auNQNqmrq8Ptt9+OX/7yl47eXrirq0t1hKRwcgHQ2dmpOsKglZWV4aqrrsJjjz3Ge/vJVi6XqxroKQA0TWPpSbaSUmLVqlW4/vrrsXbtWtVxBiVThjKcPATgxH+Drq4uPPLII5g4cSK2bt2qOg5lIU3TPgV6CgAAOxRmoSzW2NiI+++/H8XFxairq1MdZ0AyZaKWkwuAiooK1REGZMOGDbjkkkvw0ksvIZFIqI5D2Wsj0FMAfOMb3ygHwM2kSZkPP/wQ1113HV5//XXHvDGWl5erjpAUTi4AduxwxmeXhoYG3HHHHbj55psRCARUx6EsZxjG+0BPAVBSUhIXQuxUG4myXTgcxqJFi3D99dfjww8/VB3nmD766CPVEZJCCOHYImDdunWqI/QpFovhlVdewUUXXYS3335bdRwi6LreVVFREQX+MQQAy7K4lRulhcrKShQXF2POnDmorq5WHadXoVAIn332meoYSWOapuoIg+L3+9N2F8rVq1fjoosuwkMPPcS9MShtuFyumgNfH7oCiDN6aZQ1Nm3ahOuuuw4LFy5Mu7sFli5d6pihiv4wDEN1hEF7+eWXVUc4zI4dO3DttddixowZ8Pv9quMQHcblch2smA8WAJqm/VVNHKKji8fjWL58OaZMmYKlS5ciHo+rjoTW1lYsXbpUdYykcuoQAAD86U9/SovJgPX19bj33nsxadIkbN68WXUcol5pmvbuga/FgS/GjRvn9nq9rQDcSlIR9cMJJ5yAu+66C5MnT1a2hO2jjz6aceu0SynR0NDg2IV1Lr30UqxYsQJCiGM/OMmamprw3HPP4bXXXkMkErH9/EQDYVlWbigUagOAgyuAhEKhRH5+/tUATlCWjOgY2tra8P777+O9997DqFGj8J3vfMfWN/33338fzz77rG3ns4sQAtFo1LHDGn6/Hzk5ObjgggtsO2dLSwuefvppzJo1C5s3b06L7hRRX3Rdb9+/f/+CA98ftgRYQUHBGQC+Z3coooFqaWnB+vXrsXHjRhx33HE4+eSTU14I7N69G3PmzMnYVdvi8Ti6u7tVxxi0jz76COPHj8e4ceNSep6Ojg68+OKLuOOOO7Bp0yZH/51RdjFN84u2trbfHfj+sAJgzJgxw4QQN9kfi2hwQqEQ1q5di02bNiE3NzdlhcDOnTtx5513ZvRsbimlo1vYUkqsWbMGp512Gk499dSkHz8UCuE3v/kNZs2ahfXr1yMa5dIp5Cwej+e/WlpaSg58f2QHIATgfrtDEQ1VY2Mj1q1bh1WrVkEIgVNPPTVpE9s2bNiAuXPnOnLZ2YHQNM3x+xskEgm88847aGlpwfe///2k7HMQCATw5JNPori4GCUlJQiHw0lISmQvIQSGDx9+e1NTU/PBnx35IJ/PVwqg0NZkREk2atQo3HzzzfjJT36CvLy8QR2jvr4ezzzzDN57770kp0tfjY2NGdPSPvvss/GrX/1q0PMCysrK8OKLL+Ltt9/m+D45nmEYXfX19cMO/dnXCoCioqKnpJT32ReLKHW8Xi+mTp2KqVOn4owzzujXc8rLy7Fs2TKsWrUq69q87e3t6OjoUB0jaYQQuOSSSzBz5kxMmjQJHo+nz8dHIhGsXbsWS5YsQUlJiWPviiA6ksfj2VJTU3PYHL/eCoCJUsoN9sUisseJJ56I8847D4WFhRg7dixGjx6NeDyOjo4O1NTUYNeuXfj4449RW1urOqoy0WgUoVBIdYyU8Hg8uPDCC1FYWIhvf/vbyMvLg6ZpaGxsRH19PT7//HN8/vnnjh8GIepNTk7OPX6//4VDf/a1AqCwsNDUNK0RwAjbkhFRWpBSIhgMwrIs1VGIKEmEENIwjOF1dXWHVbdfW0mlrKwsBuAD25IRUdoQQjh2XwAi6p1hGHVHXvyBXgoAABBCZM+sJyI6zLHGyYnIWXRd73VY/2gFwDsA2AMkykJut1vJkrpElHw9r+Une/tdrwXAtm3bagH8JYWZiChNaZrm6N0BiegfDMMI+f3+L3v7XV+7qSxLUR4iSnMcBiDKDLqu/+/RfnfUAsCyrOUAnLkzCBENidfr5TAAkcP1TOr9z6P9/qgFQFlZ2T4AH6YkFRGlNU3TeDcAkcMZhtFUUVHRa/sf6HsIAFLKPyY/EhE5gdfrVR2BiIZA1/U/9fX7PguAeDz+JgDnbg9GRIPm8Xg4DEDkUD3t/0f7ekyfBUB5eXkTgD4rCCLKTEIIdgGIHMo0zYqKioqavh7TZwEAAJZlvZK8SETkJCwAiJxJ1/XnjvWY/vT3xPjx43cJIU5JQiYicphgMIhEgjcEETmFruuxffv2eQD0uZ3lMTsAAKQQ4r+SE4uInGbYsGHHfhARpQ3DMNbgGBd/oH8FAKSU/w0gNsRMRORAXBOAyDl6Jv890J/H9qsAKC0tbRBC8JZAoiykaRrnAhA5hGmau/fs2VPRn8f2qwAAACnlU+hHS4GIMg+HAYicQdf1f+/vYwfU1/P5fOsA/GjAiYjI8UKhEKLRqOoYRHQUpmnur6urG9vfx/e7AwAAmqY9PfBIRJQJ2AUgSm+GYfx6II8f8Mwen8/3BYCzBvo8InK+xsZGdHd3q45BREfQdT28b9++YRjAUP2AOgAAIIRYPNDnEFFmYBeAKD2ZpvkyBjhPb8AFwGmnnbYEQPlAn0dEzufxeKDruuoYRHQIwzCiY8aM6detf4dyDfQJX375pczPz28G8OOBPpeInE0IAU3TEIlwjzCidOF2u58rLy9/b6DPG+zqHprP59sKoGiQzyciB9u/fz/i8bjqGERZT9f1yL59+0YAGPALcsBDAD0sIcTCQT6XiBxuxIgRqiMQEQC3270Yg7j4A4PvAACA8Pl8nwE4ZwjHICKHampqQizGFcKJVDEMo6O+vn4kBrlI32A7AMBXmwTdN4TnE5GDsQtApJbb7X4YQ1ihd8CTAA/V0NBQmZ+ffy6A04ZyHCJyHpfLhXg8zrkARAqYplkbCARuGsoxhtIBAABIKe8FwPVBibLQiBEjuFMgkc2EEHC73TOGepwhdQAAIBgMNhcUFOQC+N5Qj0VEzqJpGizL4uqARDbyeDxb/H7/L4d6nCF3AAAgGo0uBLAvGcciImcZMWIEXK4hf5Ygon7QNM1yuVxJWYcnKQXArl272gE8lIxjEZGzCCE4IZDIJm63+6Xq6ur6ZBwrmYN3ome74ElJPCYROQRvCyRKLdM0m+vq6o4DYCXjeEnpAPSQQog7AXQm8ZhE5BC5ubmqIxBlLCEEDMP4MZJ08QeSMAnwUA0NDS35+fkJsAtAlHU0TYMQgl0AohTweDyrA4HAfybzmMnsAAAARo8e/TSAz5J9XCJKf8OGDYNhGKpjEGUUXdfDAG5M9nGTXrusrtMAAAqBSURBVACUlJTEe4YCeF8QUZYRQiAvL49rAxAlkdfrva2mpiac7OOm5N6dhoaG+oKCggSAiak4PhGlL0376nMFhwKIhs7j8azx+/0Pp+LYSe8AHLB9+/ZfCyE+SNXxiSh9DR8+HKZpqo5B5Gi6rrfm5uZen6rjp6wAwFczFf8FQCiF5yCiNJWXl3ewG0BEAyOEkC6X68qysrKUtdJS+urcvn17Tc98ACLKMi6XCyNHjlQdg8iRvF7vc7W1tVtSeY6Ur9/Z0NCwMz8//yQAZ6f6XESUXgzDQCKR4I6BRAPg8Xi+DAQCU1J9Hlv6c+3t7bPBWwOJslJeXh5vDSTqJ13Xw7m5uZfacS5bCoCqqqpIPB7/sZSy0Y7zEVF6GTVqFOcDEB2DEEJ6PJ6rysrKbJk7Z9srcufOndUApgNI2HVOIkoPLpeLSwUTHYPX611QVVVVYtf5bN3DMxgM7s3PzweAf7bzvESknq7rALg+AFFvPB7PukAgcIed57R9E+9gMPhhfn7+WQBOt/vcRKSW2+3mpECiI7jd7tra2trzAEg7z6tiUM4aPnz4dAAfKzg3ESmWm5vLSYFEPXRd7/J4POciibv89ZeyBbvPOeecMfF4fDOAcaoyEJEaiUQCTU1NSCQ4JYiyl8vliufk5EyorKzcruL8yqblbt26db+UcgqAZlUZiEgNl8vFOwMoqwkhpNfrnabq4g8oLAAAoLS0dCeAqQCiKnMQkf0Mw8CoUaNUxyCynRACOTk5D1RVVa1UmcP2SYBHCgaD1WPHjt0thLgeigsSIrKXy+WCYRiIRCKqoxDZoufi/0x1dfV/qM6ivAAAgGAwWFZQUFAF4FoonJdARPbTdR26rrMIoKyQk5Pzut/vn606B5AmBQAANDQ0bMvPz28CcJXqLERkL8Mw4HK5EI1yNJAyl9frXRUIBG5SneOAtCkAACAYDP6toKCgFcAVqrMQkb0Mw4AQggsFUUbyer3rAoHA1apzHCqtCgAAaGho+LigoEAA+D+qsxCRvUzTBMDVAimzeDyejTU1NZepznGktCsAAKChoaEkPz8/DOBHqrMQkb3cbjc7AZQxPB7P+zU1NZNU5+hNWhYAABAMBv8yduzYBiHEVeDEQKKsYpomNE3jnAByNK/X+05NTc2VqnMcTdoWAAAQDAY/zc/P3wNgCniLIFFWMU2TEwPJkYQQ8Hq9rwUCgZtVZ+lLWhcAABAMBneMHTt2lxDiWjggLxElj2EYXCeAHKXnPv/Ffr+/WHWWY3FMa72wsPBiIcTbQojjVGchInvFYjE0NzfDsmzfL4Wo34QQ0uPxzAsEAs+oztIfjikAAKCwsHCcEOJdIcQpqrMQkb26u7vR3NzMDYQoLWmalsjJyZlWVVX1tuos/eWoAgAATj/99NGmaa6UUl6sOgsR2SuRSKC5uRnd3d2qoxAdpOt6p9fr/Z7KjX0Gw3Fj6o2NjeETTjhhaSKROBPAGarzEJF9NE2D1+tFPB5HPB5XHYcIpmnWjRgx4vQ9e/ZUqs4yUI7rABxC+Hy+BwD8Cg4sZIhoaDo6OtDe3q46BmUxj8fzcU1NzaUAHFmNOvrCGQwG/zJmzJgPhRBXAhimOg8R2cc0TRiGgVgsBiml6jiURTRNk16vd0EgEPgXAI6dmerkDsBB48eP/5YQYgWA81VnISJ7JRIJhEIhDgmQLVwuV9jj8VxdXV39geosQ+XoDsABwWCw7bvf/e7vY7HY8QDOUZ2HiOyjaRqGDRsGy7I4OZBSyu12/93lcp0ZCAR2qs6SDBnRATjU+PHjrxdC/D8Ao1VnISJ7RSIRtLa2cr0ASqqe+/t/EwgE5qjOkkwZVwAAQGFhYYGmaa+B2woTZZ1EIoGWlhZuJkRJoet6q9vtvrK6unqL6izJlpEFQA9RVFR0j5TySQCm6jBEZB8pJTo7O9HR0cEJgjRoXq93fSAQuBpARo4tZXIBAAAoLCw8W9O03wGYoDoLEdmru7sbra2tnBtAA+JyucJut/tf/X7/MtVZUikjJgH2Zf/+/fvOPPPMVyORSAjAJWA3gChruFwueL1eCCE4JEDHJISAx+NZ63a7z6murt6mOk+qZXwH4FBFRUUnSylfBvAj1VmIyF7xeBytra0sBKhXpmk2ezyeG/fu3btBdRa7ZFUB0EP4fL7bAPwaQL7qMERkr3A4jPb2dm4qRAAATdMsj8fzO7/fP0t1Frtl/BBAb4LB4BcFBQW/FUJ0A/gnALrqTERkD8MwkJOTAyklFw/Kcl6v9zOXy3VhIBD4H9VZVMjGDsBhCgsLT3S5XI9LKW9VnYWI7BWPx9He3o5IJKI6CtnINM0GwzBuzoTV/IYi6wuAA4qKiiZKKZ8A7xYgyjqxWAxtbW28WyDDGYbRaZrm/Orq6sWqs6QDFgBH8Pl8kwA8AeBc1VmIyF6RSATt7e0cGsgwuq5HTNN8zu/3/18AXBiiBwuA3omioqLJUsrHAJylOgwR2YuFQGYwDCNqmuarxx133M8/++wztneOwAKgDzfccIOrvLz8JwDuBwsBoqwTiUTQ0dHBoQGHMQyjyzTNl6urq+8HwNs9joIFQD+dddZZl0gpH5RSXg3+vRFllWg0is7OTkSjUdVRqA+mabbouv6M3+9/DGz1HxMvZAM0fvz4IiHEvQBuBlcVJMoq8XgcnZ2dCIfD3GMgTQghYJrmbsMwHqiqqlqpOo+TsAAYJJ/PNwrADQD+DYBPcRwispFlWQiHw+jq6uI8AUV0XY+Zprle1/V79+7du1t1HidiAZAEPp9vAoA7AdwCYJjiOERko+7ubnR1dbErYBPTNGt0XX/B7/cvAmCpzuNkLACS6Oyzz85LJBI3ALgRwD8jS1daJMpGUkqEw2FEIhHEYjEWA0kihICu6026rq90u93/UVFRUaM6U6ZgAZAihYWF33C5XJMB3CClvAJcbpgoa1iWhUgkwmJgkIQQMAyjVdf1daZpLqioqPhSdaZMxALABmecccbxuq5PFkJcIaWcBGCk6kxEZA/LshCNRg8WA5bFrnVvhBDSMIxawzDWCiEWVVVVlavOlOlYANhswoQJRjQavVgIcQWAKwEUqc5ERPaQUqK7uxvRaBSxWAzd3d1Z2x3oae13uVyuLzRNWxaNRn/X0NDQqTpXNmEBoNi4ceNGer3eC4QQl0gpLwZwMQCv6lxElHpSSsRisYMFQTwez9iCoOeC36Hr+i4hxEbDMF7Zs2dPhepc2YwFQJoZN26c2+12n6dp2gX4qjvgA1AIwKM2GRGl2oEtiru7uw8WBE5dhbDn032NpmmlQoi14XD4f/bv39+hOhf9AwsAB+hZkvgUKWWREGI8gO8IIU6SUp4M4Hjw35EoY0kpkUgkEI/HEY/HD/ta9XwCTdMsTdO6dF3fr2lalRDiCyHEpng8vq6mpiasNBwdEy8cDjdu3Dh3Tk7OSQBOllIWSClHa5o22rKsMUKI0QBGA8gFMKLnKSPw1R0J+iE/IyIHOlAcWJaFRCJx8GvLsiClPOzPA48/8N+RNE2T+Oq+ekvTtIQQIgagS9O0diFEM4Aml8tVZ1nWXk3TtiUSiS01NTUhO/9/Kbn+P/iuKcA/LZokAAAAAElFTkSuQmCC;" vertex="1" parent="jPVWJ0DvIGIK1T8upTcY-4">
          <mxGeometry x="45" y="25" width="40" height="40" as="geometry" />
        </mxCell>
        <mxCell id="jPVWJ0DvIGIK1T8upTcY-7" style="rounded=0;orthogonalLoop=1;jettySize=auto;html=1;exitX=0.25;exitY=0.25;exitDx=0;exitDy=0;exitPerimeter=0;" edge="1" parent="1" source="jPVWJ0DvIGIK1T8upTcY-5" target="jPVWJ0DvIGIK1T8upTcY-17">
          <mxGeometry relative="1" as="geometry" />
        </mxCell>
        <mxCell id="jPVWJ0DvIGIK1T8upTcY-5" value="&lt;div&gt;&lt;font style=&quot;font-size: 18px;&quot;&gt;&lt;b&gt;User&lt;/b&gt;&lt;/font&gt;&lt;/div&gt;&lt;br&gt;TBZ" style="ellipse;shape=cloud;whiteSpace=wrap;html=1;fillColor=#d5e8d4;strokeColor=#82b366;" vertex="1" parent="1">
          <mxGeometry x="60" y="-180" width="140" height="120" as="geometry" />
        </mxCell>
        <mxCell id="jPVWJ0DvIGIK1T8upTcY-8" style="rounded=0;orthogonalLoop=1;jettySize=auto;html=1;exitX=0.786;exitY=0.208;exitDx=0;exitDy=0;exitPerimeter=0;" edge="1" parent="1" source="jPVWJ0DvIGIK1T8upTcY-6" target="jPVWJ0DvIGIK1T8upTcY-17">
          <mxGeometry relative="1" as="geometry" />
        </mxCell>
        <mxCell id="jPVWJ0DvIGIK1T8upTcY-15" style="rounded=0;orthogonalLoop=1;jettySize=auto;html=1;" edge="1" parent="1" source="jPVWJ0DvIGIK1T8upTcY-9" target="sbt_hyZxBfFW6GqUvSIC-22">
          <mxGeometry relative="1" as="geometry" />
        </mxCell>
        <mxCell id="jPVWJ0DvIGIK1T8upTcY-9" value="CodeBase" style="rounded=0;whiteSpace=wrap;html=1;verticalAlign=top;" vertex="1" parent="1">
          <mxGeometry x="660" y="-100" width="120" height="200" as="geometry" />
        </mxCell>
        <mxCell id="jPVWJ0DvIGIK1T8upTcY-10" value="" style="shape=image;verticalLabelPosition=bottom;labelBackgroundColor=default;verticalAlign=top;aspect=fixed;imageAspect=0;image=data:image/png,iVBORw0KGgoAAAANSUhEUgAAAgAAAAIACAYAAAD0eNT6AAAABHNCSVQICAgIfAhkiAAAAAlwSFlzAAAOxAAADsQBlSsOGwAAABl0RVh0U29mdHdhcmUAd3d3Lmlua3NjYXBlLm9yZ5vuPBoAACAASURBVHic7H15oCRVdf53q9/sDPvmCq4guKNxF1RAVhWTGVkEt8hioglCIEZN2p1lAJNgVH5mc4kGYxaTgBFkBtnciGLExCVgWAaGRWBYhpn3us7vj/fmva665557by3dVV3n++O91+eec+/pr2+d73R11WsDhULRCBzQXzvVWzTYabHZstMg7W1verRtClpp0mQHmMG2lCYrTYJtQbTcGOxARAmM2Y6AKRBWgmgxgBVz020HIFmYnRIQtiPn6gQAm0F4ZMj4IAEzAAYGtHHO6xEAmwHcbwibiGiTMbgvhdlEwCMw9EAC2phS7z5DdF+K9Ne9xYP7XrHlx/f1+/20Sr4UCkU5mHEnoFBMMl539r+sfHSw9HFIsGtC5nFE6W5I8BiQ2R0wO4FoZ4B2ArALwAg0zf+wMG8lt6zPe5JrlqGZiLWKPgujZLkysz0A4D4AG0C4m4y5G6A7DcxdaUp3I6EN6QAbkl7vjnX9I+9xPx+FQlEFtAFQKArigP7aqcUrtjyhR+aJSM0eqaE9DPBEpHgigCcS8ESAlrPBZP1h66Yg/gvDZcV/wYdNb/hROfFfeMQ/0bzpUQO6lZCsJ5PeCpjbiGh9ArqFEvN/y7Dkpkv7h23kM1IoFCHQBkChEHBAf+3UNsunnzRIe08F0qcS8DQCPTWBeSqB9gSwKBOQ0UKnYlrOxcRf9pl1dGaxMFMJ8c88y+rEn5ud87kXoJsIuNkAN5HBTSalm2emBj+/ur/qVsD4uiOFotPQBkChwKzQr1gyeGJqzL4w2IeQ7muM2QdEzwCwvGLhgl/8HWsgTvxlr1aLf+YBM/UWGPwSoBsN4abUmJ/2YG6k3vTP1vVXP8RPrFB0C9oAKDqHA/prp5Yspb2SZLCfIbMfwewH0PMBLJv1GKtwudcAOiT+fh9nE+XjkHATAdcYQ9cnlF7/4KJl/3l9/8hHWGeFYoKhDYBionFAf+3Uim3oOUTpC0xq9iNDzyfgWQAWFxMu22dkwiUnlfUUP/e3xZ0Vf2cq5Ho6TmNMAyC2LiU/PnFwOAPgJzD0rQTJN5Y9sOyqS//8sM18AgrF5EAbAMVEYdXFF/cevGXH5yeD5AAg3R/GvBLAytnRiRMu3jNS/J1ZOZ+Kv0HIPGofhw+D6IrUmG8khi799kdX3+wJUChaCW0AFK1Gv99Pvrds/+cbkx5ACfYH4ZUgbMv5tlW4FobrFn+3z8JoJzn8Hgx9obdo5ivr+sfq7YmKiYE2AIrWYdXFF/cevWWXlwyIVgH4TQCPU+Ga9ZG9bGVrivhb87M+Y+dwAKK1ZMwXNi1e+g963YCi7dAGQNEKvO7sq1cOzOZDAHMUDA6j2f90N4dJFy7ZZ9Zxom/3g59DZ2J1cXivMfhMMo0L1527+k55YoWimdAGQNFY9Pv95LvbvOK1CSXvBOhQAEsBFS7bUTwHgfaL/8KDBnK4GcAXDXD+VZ9Y/VN5EYWiWdAGQNE4HHH+tx5H1Hs7KH0HCHsMjzVLuPw+zgZg/MKVfaQc+s7DMHlnVzLApQOYj177idXXyQsqFM2ANgCKZoDIHL5m7WEwyYkAHQ5Qb7zC5QjMLFv23b8gXO6ksp62vtszycLlSHDW6NBhp7Ep107UyaEzq61/kvlHJOn7rv7E0T/3LK5QjBXaACjGCyJzxJorjyBDfwJgvzlj5lfuT2lg3qjCVUC4rBn8PGcedY5Dtw+AGYD+amqQ/IleI6BoKrQBUIwF/X4/+cE2+7+RgD/G7D/mmUOpojtnbqdwLQyPVbjmzF3ncMGHTW/4kczhQyD6xKP3bTz3+otOmvYkpVCMFNoAKEaOw9dc8UbAfAjAM+3RSoqu4FNcuKz5WZ+6hWvWZwTCJfg0nUPZZ9ZxxHdNGPzYIHn71Wetvl5OTKEYHbQBUIwMh513+dNN2vtTGBzCe6hwNU64uPmz6YjjeVPH75qYMcb8xfKZzX/0zTUnPCwnqVDUD20AFLVjVf/GxZu2ueuDBJyJ/NfnzqPtwrXwYAKFi5+tRg7d5ong8OdJkrz9qk+86RoxV4WiZmgDoKgVR5x3xXNAyecBenZ7hcvv0xHhyqcj+lTG4bxB4NCdVNbTpsmeycqbeeR4/o6nwxlnCPT+a88+5lzA+BJXKGqBNgCK2nDEeVeeANCnQbR8JMLF+tmBTblgraXCNfuoAxw6s3I+FT/PmUcEEJl/7fUGb7n6rOPuc6amUNQEbQAUlWPV+dcu20RbPgfQsfUKV7GiK43baalwNZXDheG6OXT7LIyW4vCXiTG/dfXZR9/gTFGhqAHaACgqxes+eflu6WDqnwF6ccOLLh/UKuFa8GHTG37UWQ5nfVrA4SZD5m3XnHvM34upKhQVIhl3AorJweEXXPXkdDB1nV/85zD+oiuYmiBc7RV/z8LWeDEOncNDjvXfNeEI5Gdzc7iMDP3dy8740u+6VlIoqkZv3AkoJgOHnXfV0xMM1gLYo27hqrDoOqZU4Ro/h25Q9ofg6CO6PIfM03HP5n+iBmQOe8JLf2vZrdd+7XLXqgpFVdCPABSlcejZax/fmzLXAnjC5N+nvvDAPTU/R6xwiW1Eozn0+zgbgM5wyARmHpq/Wbxi93eu679qxpWBQlEW+hGAohSOuvDynXpT5jLMib+McRfdEOHyTRv+ztYabqFwxcKXfX4Nga3oqPAs7BGWQyG+HEvyGgSAkL518yO3f2nVqov1LK2iNmgDoCiMA/prp2Y2T30VwN7jL7oqXHUIV1Mu+lsID2syvRyGdHvhJ4Mkj+Ickll9257TfwWQnqlV1AJtABSFsc1Kcx4Br2pG0c35d064uEUFc53C5QwrxqGQkD2JyCG/eMyJkDHcNXHCi0//u0/w2SgU5aCnlxSFcOT5V7weMBcUFa6GF91cWBuES24Q2n/Ff0jX5+PQdmgDhwZ4+RNe+luP3Hbt167lM1MoikFPLSmicdS51+w6nUz/F0C7tr3oduHb/TLPspUcyj6zjhPPIZExb//Oucf9jStDhSIW+hGAIhpbkulPAqhd/HMVUh7HOITLjRDNmnWcdOESTMEc+sXfO1OjOXQuOwxjiC56yXu/8FKXu0IRCz0DoIjCYWuufGViaB1o9sIk8b1bo4tuiHARP5OcWLRwtZdDv4+zieoMh0xgCIcZc4bDW6cpef715x17Dx+kUIRDzwAogtHvU9IzdGH7xd+5rDxHxjwC4RIt/ne93jMLJeDLPr+GwFZ0VHgWdXMYAl92UeIPAE9YZNLPo9/X2q0oDd1EimBcv+23jybQs4CmF11p9rAc7L/48Zio8Cz8DZJvqZBeJuMS0UQVFK6cj4dDvWsCAoeHvmjjU97PBysU4dAGQBEGIkOUfrBc0a1CuMZWdMcqXAFUDJl9PDeTQyEhexKRQ35xthEdA4eeha1xbmpj0H/RaZ9/OT+JQhEGbQAUQTjygisOAmFvFS4BKlwowyHxCbGOspft0CQOK7prIgHM5w7o//VSfjKFwo+pcSegaAcoTU5pmXDdZlL8Nwx+BsJGMunGWXOygwHtkAJ7GdC+ILNzPr6YcDmHM451Cheq57Bi4XIjnEP9kqStMMBej26cOhPAh/hJFQoZeheAwovXn3flE2YovQnOhrF80WXqn3s2vjIOYOgyk+KrhPSKb7zv0F+5VhvGa8/6xr5IcRAZ8yZD9GJ30eWTp+wPNxp/tXpZ4Vp4oBzyJmf2DIdusxW/2aD33OvOO/Z/7IkVChl6BkDhxUyangTTVPHHgyBcODXoferfPvCa212ruPAff3jIjQBuBPDJA8++7BnJID0NoBMALFLh8i4rz5Ext4hD1/wl4Ms+v4bAVh5LUgw+C9ABgCmXpKJz0DMACi8OX7PufwF6sj0yVuEagOhTtCT90H+895Bfu1YogsM++u97TJve+QZ4o7cU13DRH8uhPTBv9Otw8QZAFC7mxeOnbjqHORZbyCGldNz3Ljjh7/hFFAoe2gAoRBy65vJ9EvRutEfGKlw/Swy9+ZIzD/4BF1UVDv7oJUfCmL8EsAubVe1X/E++cI3mrgm5EW0rhwvDBBj87Im3LN33q19dPXA6KxQ56F0AChGGpg63rf539tyfDo/YonvxYrPshXWLPwB88wOH/Wtvip4P4Do7vVEIl2Rst3A5ErInETnkF2+K+HsWtsYLi//sg71ueeKjxzqdFQoG2gAoRBiDI9iBsQiX+dSLH73mmK+f+fIH+Zmrx6VnHnZbbyW9ioB/nM+sklvVoMLlg5dD2yGGQ3+jWo7D0XxJUsb4xwf01+p1XYpg6EcACicO/8RVO2DRzF3IXCxarugWFS4DOufSPzz4TG/SNeGA/tqpqUWbv2qI3hDyzrZu4WI0xD3byIXLmdiQcHWdw4UHVXJogLd95/wT/oZfXKHIQs8AKNyYmn4pKhT/wu+4iP720jMP+kM52Xqxrv+qmYeXbTwWRNeIjq3/ZroQ4XKYKhR/j0PDOXQuK8+RMRfjkID3AaRv7BRB0AZA4QQl5gVDj8ZSdA3M9WbFzEkw47/F6br3rt5kBr03AriDdWj87X5yyDiFKz+RyKFo8c/vPbNQAr7s82sIbEVHzeHpLzn1C6/0JKBQANAGQCHAkHn+7F9jE66HZpL0mEvfc9jmgHRHgm/2X3uXMfQWOBgZn3CFwJfdWIULW/eZl8PCZ5jCepmMS8S7f5FD5gDgp/ZwGHB2JCW83eOkUADQBkAhgl44TuEimI9cdsbBvygYXhu++f7DLzOELyxYmiBcxU9bN0W4inAYQMWQ2cdzMzkUErInIYAMrXru7//19h5nhUIbAAWPw85ZuztAjwEQdla0euH6+baP/vqTASuPBYNk+gwCHvQL1xxUuCSHCjiUm6yO3TWxbIkxq/0Biq5DGwAFC5PQcwCMr+ga8/Gv9ldv8Wc6Hnzr/a/fYIBP+4XLduiWcDmHM451cug/w1KOwyZ+SRLBvC0gStFxaAOgYEHG7Dm2omtw693bb9/4f2s6PUMXECBcn6DCVdXZAffSfg6Zp+OerXIOBZOcWFkOX/SSU//2cXKgouvQBkDBIiHsOfx4lEWX0vTz15/0gumANMeKdf3D7wTw7/zo5AiX26ca4RLPITSaQ+ey8hwZc20cmoHrn3gpFHPQBkDBglLaY/7v7AhnzIyXLboJ9Rr/7n8rjEm/aFvHLVxySKxwCRIlWAPe2Yte9gjLoRAfQktR+LJHbnwcHFJKh3kmUHQc2gAoeBizJ1B10Q0qyTdf+kcH/jTEsQmYntnmMgBDZyuaIFw+WS0hXMK70oWmJey0vlf8QzqVkBMZFb/7FzlkOrdxcWgM9l+16uKeZyJFh6ENgMIB2sMpXIWLbs6fqYwGWOePbA7W9V/1EGDmvpiou8IlJGRPUkD8A6gYMvt4nnQO5922+9XjHn6Wz03RXWgDoLBBZADsyo85Qioruub7/gSbBQJ9b+hBbowNcM0TFdi8K/5Dur4g4RIeyk1W+zl0DmccZbcFB0PJywNmVHQU2gAoLBz655eupPx3AAz9yqPSokvpzwLTbA6Ifs5V5SYJ18i/mY51rP8LfhyB/Gwj59ANyv4QHMPODszD4HmeAEWHoQ2AwsLUI4uG/ovYaIvuYAo3+zNsGIy5SYWrYuGyZvRzyDwd92yVcyiY5MSiORRbMYtDeq48qaLL0AZAYWG6Z+YagNEXXdOjB0JybBKMMfcPP26WcDmX9WOswsU8qo1DOSSMw/Ami48KaJBEL3tk7qXZRy8EVLigDYDCQmLM9uMSrm03bnwoMM3GYJDOPLj17zqFKxY+yciv4ZOomKjwLBzCFTF/OZbkNUbCYZ13TRgsvemxj+o/BFKw0AZAYYFAO3o9alr7USyb8ns1Cz1MLQbqF66mXK0+EuHKD4Scga/4DEqdHAoJ2ZMU4HD4oTGDJ3sWUXQU2gAoLBhKlgMYS9EdLN9mW3+GzUKS0ErnoAqX1014KBhzLVTLOCQ+IdaxHIcEg+x/9VQotkIbAIUFIkyNreimM7sEJdkgDCjdlX33PwYOPQtb4+MTLtuhWxw6h4ccq7lrwqSGv6VX0XloA6CwkJh0EWcfRdEd0ODpASk2CgSz1/Cj4V+cN/eny6i3+zkzEXzGzaEblP0hOIadYXEvPcShoZ09kyk6Cm0AFBYo8z8AhqzMny5j8aKb7OPPsFkwwDNm//ILF6MhmfHMo8qFSzA1Ubgc8fVy6FzWDzmxaA7FViyCwxTwXNOj6Cq0AVBYoNTkzgCMUrjolSE5NgqEV7RDuMLf2VrDYxAuLr4ch3KIL/t8gMBWdFR4FvYIy+EQDMwSz6KKjkIbAIWFJMn+F8ARC9dLD+ivXepNsiF4Tf/fnw7QE2WvSr4kyRM9ecKV9y7HkryGmD1zAPDb3MPhmO6aMITWHE+K0UIbAIUN2toAjOUrVZcvWbL58BqXrRTUG6xaeODwcT5w+Ec0UZMhXNyigrniRrRODoWE7ElEDvnFA6gAmXSxb1pFN6ENgMICkTHAGItuao735dgYkHnz7G/HsPc8vQqXr0Fo/xX/IV2fj0PbIYZDhYKDNgAKFmMVLoMjDvrIN58WkOZY8eoPff1QA+ytwhXn0CTx78ZdEwoFD20AFBZSDBYejEe4er1kcLqQYiNgYP7IXXSbLlxuNEe4xs2hYArmsJozLO6l/RxqX6BwQRsAhRtjFC4y5u2HfOzSZ/uTHA8O/NDXfxOA47vW23C7Hz9HI4WrFg6dy8pzZMzVcCieQ1DxV9QIbQAUPMYvXFOpSf4MREbIciw4oH/xNgRzPj+qwlW/cJWTNV/2+TUEtqKjwrOwR1gOhXgVf4UP2gAoAuETLjmkmHDR/gd/4punBaw0UvR6yy4EwNz6N5a7Jlgvt+fohStuPKyXybhENFFi9kyDxE/t4bBpd02kAfMoOgltABQVwVfOigoXffygj3/zZYXTqhiv+dDX34EUb+HG/MJV/N1/m4UrgIohs69rbCaHQkL2JCKH/OIxZ1D8HCoUs9AGQBGAsRbdRYYG/3LgR/7tGQGJ1opXf+TrrwbMX3BjKlz84tUKV3EOPQtb47EcEp8Q6yh72Q4q/oq6oA2AwoNGCNdOSdL7j4M//h97e5KtDa/+yNdfbVLzLwCsf6rSfuFyDmcc6xQu1MxhN273U/FXxEEbAIWARgnXEwylVx340UtezE9aH17zoX99k0nNJQC2sUebLlxuUPaH4Fi/cDFPxz1b5RwKpgo59M5UK4cKhQ1tABQONE+4CNg5Meaqgz52yZmjuDvggP7aqQM/9PWzAHwZAPOFKm0QLn6O9ghXWQ6dy8pzZMzVcCieQxghhwrFVmgDoPCiYV+pOgUyZx30sUuvqPO6gFd9+N/265kHryOYMwEwzcYovpnON23NwoUA4RIt/vm9ZxZKwJd9fg2Breio8Czq5lChcIP53neFYgFBwjXsP/TT5+X2DCq6BxiT/OdBH7vks5ieOuey/sHrY/J04TX9S/YxvfQDRHQ0jDEucS9fdH2S0ADhst+Y2jOFdCohJzICCG3KhZML4XVzyC0qmPXdvyIS2gAoItGoorsUhN/D1MzJB370kn8whM9vv9dD3/rq6tUDewY3DuivXTqVPPI6gN5CGBxCNHdmrKKi2xThEhKyJykgXDH6o3dN8Iuz7/4r4lChyEMbAIUTLSq6SwxwHAwdd//PVtx/4Ef+fR0MXWOo91PTm7lpgOm7d9wy8+Bt26K3cuN2K6eTzbv0TLIXgGcYwv4pHn45Acv4nPNptle4iE/I9mqYcDXvromQ0xU+Dm2HGA4RyaFCwUEbAAWLFhfd7QG8AWTeQEhBgwQGS3BfbwlWPExIk2n0kMwvl+YnEJ9K24XLOZxxbJJwNeHi08xwEIfNumtC/xGgwgW9CFBhw6oYdRfdKoRr3PdYt0G4fI5hZwfcS1crXHrXBB9fjkOFYgHaACg8GEXRFaaYiKJbHYdun2qES2zFGs2hc1l5joy5IRwK8d4mV6GIgDYACgEdKrqjfMcVwqEjQGArOirvKXIoWsoKVzn4skduvCkcOsdD+sEAQvXdv8IHbQAUhdDWojt64fJlF94g8W+KPRzWfqtaFcJV/N1/mzkMoGLI7OO5QCOq6Dy0AVA4MJlFV15UMLdIuISE7EkaL1xt55BfnG1ER8mhQgFtABQsmOuGteiKkzfviv+Aoq8c8vH+4Yyj7GY7xHCIOjhUKOagDYDCj9YJV7miW7dw6V0TzGwj59ANyv4QHMMaVffSfg6Zp+OeTcVfEQltABQyRl50ffmocLkw0cIVxaFgkhOL5lBsxZrGoUKRgzYACjcaWnQFh+YVXV8/IQ5wPpMuXHJIGIfhTRYfFbDPRC97hOVQiFf5VowC2gAoeIyy6DZNuFzzl4Av+/waPomKiQrPognC5cuuZg4n9a4JhYKBNgAKEZ0UroD62ZSr1SdeuEbAoZCQPUkBDgOoGDL7eC7OoUKRhzYACicmQ7i4RQVzJ4WLX7wpwlU3h8QnxDqW41Deqyr+ilFDGwAFi8kRrnEX3TYIl+3QLQ6dw0OO7b74VKHgoA2AwoHJF666i67e7sfMNnIO3aDsD8ExrFF1L+3nkHk67tlU/BUVQRsARTgqLbq+tZr1larjuVVNmKIDwhXSczghJxbNodiKjZVDOUT7AIUEbQAUYYgSrmqKrphM64Ur/J2tNTypwmVFB+wDKQWvNWx+kUPR4p+/vED7stMWQOGGNgAKP5omXKKlbNEtVzBVuELhbqLE7Jl9xvdnHg67fNeEQjEHbQAUEWiIcNVadHP+VRXd1ggXt6hgHqVwleRQSMieROSQXzyAiiGzb6+q+CvqhzYAChkNF65WFN1WCZfcILT/iv+Qrs/Hoe3QCg4Vihy0AVC4ocLlXtwyqXCV5VDvmmBmq4pDhYKBNgAKHiMtuvUK19iKbjCHbnReuHx9lzOf3HCFjap7aT+HzJZwzxbNoXNZhYKFNgAKG+nWP6oQrkkvulUIFz9Hdzh0LivPkTFXw6HYzo6VQznEmb2Kv0KANgAKL+oWruYWXRUuocVhZ4uFL/v8GgJb0VHhWdgjLIdCfHkd9mWnSq+IhzYACgfCizJvnYSiK80eloP9Fz8eExWeRbHX0OkRQGhTLpxcCA87O+LlMPIdudNccSMaxmHKjys6D20AFAwWCkYzi67/bfj4i24zhSuAiiGzj+dmcigkZE8icsgvHnMGpUkXnyoUeWgDoHBiPEVXhUuFKzseyyHxCbGOspft0CQOYy4+VSg4aAOgYDG+omsv06SiW79wOYczjnUKF2rmUG/3Y2YbJYcKxRy0AVBYsD4x1KI792dZ4XKDsj8Ex7CzA+6l/RzKbyDr5lAwKYe+ZRWKKGgDoJChRTc/e0xYzsDPEcuh2Io1mkPnsvIcGXOLOHTNXwK+7PNraE+gkKANgMKNNhbdQsIlhzRCuLyl3x5hORTimy9cPmvDOAygbKTXnygUOUyNOwFF87Bleumfr1jy8OdgxrP+A5bFl0hkovYCY8Z4EiL0DjMwX5z9OzPgjx2lcAkN0kJ42Bkmr/hHNodOc8VnUFT8FXVAGwCFhXX9Vz0K4NFx56GoF694398/TJR739o04Yo4wyQ4eMSfXzzmLFSjLz5VKBzQjwAUig6j0cLlEX/iE2IdvR9vlPwIyhHIzxbJYZ13TSi6DW0AFApFQ4XLjWBdG8GdJ8zTcc9WOYeCSXVf4YE2AApF19FY4RI+96/wowF3LuMWf+ey8hwZs3YBCje0AVAouoyWCVes+Hs+QBAs/ubBe2ahBHzZ59cQ2FIonNAGQKFQVIY6hSv8MrdA8S/8mX5YL5NxiWiixOz1c39FhdAGQKHoKgacsfi7/zqFayE87LR+rPgHnAgZMvsahGZyqFDkoQ2AQqGYQ8OFS2/3g4q/okpoA6BQKNBk4QrWNa/42w4x4u//aKAch3XeNaFQcNAGQKHoPJorXJT9ITiGnR1wL+0Xf+bpuGernEPBJCemvYHCCW0AFIpOo+HCFSH+4jmERou/c1l5joxZ4ND6ek+FYhbaACgUnUX2KsDGfUmSvEpm3PMBgmDxz1/nO2hf9siNx7zH13f+Ch+0AVAoFA74ZLVm4ar9C3783Yy/lyn+7l/kMPjjk7IcKroMbQAUCkVjhEtIyJ6kgPgHaPiQ2dcgNFP8hYQUigz02wBLYFX/4sWPLNnx8YNF2KlH2C41ZhGl2MYgXQaYpSbFNmTMooWI3I3XEZ/NpbEB7AR8fPisaaEU2NvNnfPELZBakxfkKLX+KDaTnZC8nGu01Oe2YcEDYF9D8Z9Z1ylcs8MBwiWKP794zOf+bb7dL6Q3CAXdeuoyTPXeU81sI4bBJhia/VZTMhth6F4YugcJ3YWdtrvDmH7nr47QBsCD15199cotvennGEqfC+AphugJgHkCiJ7wsDG7AzBJCqSYraQGAGj2++lnf209EgnD31tP2YeQCsbCuwXme++jCgYTn0lIAgFkPHXFrsq5Z+1IcKs5vuiaQA6t+dkkyTZl5gkQLiNwPOcjvxKzPA87xAuXEXwWjAbxwlXnN9MFC9cIvuDHEcjPNnIO3aDsj/IwS5fDbDmrmsnGgGFOCbPHVmqADQ9uoTtPuxXATSD8GMB/waT/id22u7FLjYE2AEM4oL926TYr8GKi9AUE83wYPH8GW56WEM1+VELAfHE1w7LW9ncLVbzjmvSiq8LVCOHS2/1ciVUv/pONxQCeAuApMDho1pQAGx58gDacdi1SsxagfzePOe+n40yybnS+ATj8gsufjEFyIGAOBNEhBKykzLu4LhRdD/QrVZ3ojnA5l/WjKuFq/O1+ckgYh+HHuzWs4l8FtgPhUBg6FMA5dOdpN8Pgq4D5ktltzY/HnVzV6F4DQGSOPG/dywg4mkCHYAZPmRsY+jnvDMaYGW++cFVTdAWHCRCumotuw4QrFr7s82sIbEVHhWdhj7AcCvHlpdOX3bg5i0KgQwAAIABJREFUVBTAk0A4A6Az6M7TfgyTfhpm8xfNrn/x0LgTqwKdaQAOPXvt45MEx+G8de9IgaeNX7jkkEYI19iLrgpXHcLVlKvVF8LDmkwvhyEHTUhPXXEjWieHQkKKSkEA8GyQ+TRo6Vm04b2fASXnm93X3DXuzMpgohuAQ//skiXJlmVHA3grYF4JzH2Wr+8WwuYfe9HN+Tek6I5OuLhFBfNECpePQ37xACqGzL692lwOiU9IUSksfrdDSmcCg3fTHb//GcyYj5knXPDrcWRWFhPZAKz61NptNm3CO2gLTgfw+Fnr1hexu+8W6haurhRdR0L2JKWFS96revEp79AtDp3DitJwvbbz9uWAeS+m8FZa//sfwWMe+ZQxF02PLr/ymKgG4KgLL99pelPv3Y9sMu8GaEenowqX5KDC1QLhQs0c6l0TzGwj59ANyv5QVA7utXVxTTvC4ALcufxtdOfvnWh2/9Pv1ppahZiIBuDAsy7bbunUovdPP0rvIoMV7oNC3y140XnhcqNJwsU8HfdslXMomKoSrk5cfOrz4Z1V/OsGt7E4ri3bs0HmGrrj99bg1zv8sdm3v6WW9CpEu/8VMJE54rwrT1i6aNHPAPoDAlYIzipcE190qxCukkW39Rw6l5XnyJir4VBsZ8fKoQxf9vk1BLaioxRlQCgh/lvjewDOxI73XUO3vudpFSdYOVrbABy5Zt0Ljzj/ymsB+lsQ7SZ7j7tgVCdcbp9JL7odEi4hXvYoJwrNEK4ADkVLWQ5D4N6LYvbMPuO3uYdDveivBnCvKdMQuHztA/sF6OG7dNt7XlNBcrWhdR8BHPpn395lajo9n4DjAJjmC5ccEitc3S260uxhOdh/8eMxUeFZhOcX1A8GENqU60/ChYu4w9WeKfIYc5orbkTr5FBISFEKrtezsPAP/7EDEnyD7njP75vH/NmniudYH1p1BuDwC9Ye2JtOf0TAmwGYdgiXL7sSwtWIoluFcDWz6NbNYQAVQ2Yfz83kUEjInkTkkF+cPZ7HwKFnYWs8lkPiE1KUAvd6Em8PFn8rfgqEC2n9u/+UaFWvWJ71oRVnAA7or126ciX6lJo/wHzTosJVf9FV4VLhyo7XJlxeDm2HJnHYiLsmFBFwibfHj7MzrzEz+B7csfvjiU48ukm3Cjb+DMCR51+x7zYrzXcI5kwEiz/m3YSHglGLrmvxJhXd+jl0Dmcc6xQuvtAIs41cuNwI51Bv93OBsj8UpUEoJ/65+DDx34o34o7FXyHqN+aNd6MbgCPPv/IdRMn1AJ6TGdB3C3y8f3jIUYuuC8FFt/VX/Ps4FExyYh3i0LmsH1VxqAgE91oyDYHL19k4RMW/EXfc+1dE/UZobyOSsEBkjjhvbZ+IPgdgSW5MhcuB7hTd5giX2Io1mkPnsvIcGXOLOHTNXwK+7PNrCGxFRyliwIg0wVEHOUHP2eYfhsYP+c6uezzW3/O5JjQBjTkVsRUHn/sfKxaff+UXAfMGa7D1wuVc1o82Ft1CHMohtQuXvEpmXORQtPjnr7PsN0O4RsxhAKFNuf5kIVzFvzy419DFqyDcmYcF47P74m1Yf/ddAP7QMdlIMPYOZBivO/vqxy5JlqwD4BR/fbcQHxWeRROEy5ddzRzqXRMQOaxEuMpyyC0qmFvEoZCQIhqMIAS/68/Fz7sUiM8MZ/zOoNt/52gmcGRoTAPw+jXf3iedmvkeAS+wR/XdwviL7uQKl5CQPUkBDgOoGDL7eJ50DvnF2eN5DBx6FrbGYzkkPiFFFBhBFsXbE8+Ld1i8vG8MQH9F60/Zj5lkJGhEA3DYeVc9PTXp5QAeZ4+WFS7bVTRr0XXnIqTSZuEKLroqXHy8fzjjKLvZDjEc8oVbmC2Sw0ZcwKsQwL1+TEPg8nU2DgXiM3vC6bsMZL5Gd7x7F8ahdoy9ATjinCuflmCwloDH2KNVCNekF90qhKtc0W0/h87hIUe9+NQFyv4QHPVLklwI5lDhACOyBEd95AQ5Z5t/GBo/5JsZDorfA+ngS+O4KHCsDcDrzl/7VPRoLYDHsg41C1fzi64KV1OEyzvTxAsXP0d3OHQuK8+RMZfkUOEA99p5RFqyzb8WMfH5/RkdfxBuu+vdzGCtGFsDcNiab+0xIHMZ2NP+GIlwNb/oClNo0ZVRsXCJrdhYOZRDmiFcARyKFv/83lpRAr7s82sIbEVHKXxgDr5mXejnj986ZOgsuuOkfRin2jCWBuCoCy/fqWd63zLAnqxDJ4Sr5qLbRuGyosdddMctXCHwZdcADu2tZs8UctD4DpmQdBB3PIscMgcAP7WHQ73orwAYQRXF2xPvFW8h3rsBhfjs0FIMzF+O8jsDRt4A7PfZHyya3jJ1MQFPYR1ChEu06LuF1gpXo4puE4SreCNaJ4dCQvYkBTgMoGLI7OO57RwqbHCvGdMQuHydjUOB+Mw+iIy3CgABwIuxfqfTmKBaMPIG4LEPPfSnILyaHw0UrlqLbs6/IQVjdMLFLSqYJ7Lo+jjkF++KcBGfkO1VmkN5r7b/4lMV/zgwIktw8MgJcs42/zA0fsg3MxwZbw1Zz+lDdOtJT2OCK8dIG4Ajzrvydwg4hR8tJlxdKbqOhOxJtOjy8fPDAUXXy6Ht0C0OncMZxzo5tAq5NI54DhvxJUmKIXCvl0ekJdv8ixATn9+TBeKDNgstBXAuM1A5RtYAHLbmylcCdD4/qsKlwlVF0a1CuPSuCRco+0Nw9BFdnkPm6bhnq5xDwSQnFs6hYgjMZmnrhX6i75DN4PW0/sSDmckqxUgagMPOWbt7YuhrABazDjUL12QUXQ8mXrgEkwpXfvaYsJyhpHA1/uJTH4fOZeU5MmYV/2rAiKQo3p54r3gL8d7XX4gPKliMbYAL6v7q4JE0AL2p5HMAdmYHtei6EuuQcDmXlefImCdduOSQUhx6xskznvcUORQt/vnrlE5f9siN+9iKiVLkwdUMpiHgmgQuniJ887bMgRsZbx1/UfH74Pb172AGK0PtDcAR5617JxEdzg42vuh2SLiEeNmjXEFrRtFtg3D5sivBobDPFrZpWJPp5TDkoPEdMk6f4sezyCFzrNbDoYIVSYKDO5eNmIcBvvl5M8OR8dZQRDwNHUiED9Nd79qGCa4EtTYAR5575ZMAnMePtqHoSrOH5WD/xY/HRIVnEcFh4aKb829d0VXh8r6wersf6udQ4RRDSaQl2/zrUqB5IMYWGh+y95yNg2XfFY9On8w4V4LaGoB+nxJK8NcAVtqjWnTHL1zconnzpBddH4f84k0RLs/C1ngsh8QnxDqW41Deq+3n0DmsmAezQSb9Qr+M2dU4EJDgdLr11GXMoqVRWwPw/W2/fSpA+9sjxYSrKUV3coRr0otuFcJlOzSJQ71rgplt5By6QdkfChaMIIri7Yn3ircQ761PQnzQ5nA1Dh5fwm7AQ7/NOJVGLQ3AoWevfbwh6rODKlx8vH8449jtoqvC1Qjhav3Fpz4OBZOcmIp/EDiimYaAaxK4eIrwzdsyr2dkvKUPMeLP+bG+Z9Av3r2EGSiFWhqA3iJzAQD7wgUtuk5o0Q0wKYe+Zf2oSrgafwGvHBLGYfjxzkep+PNgRI7geBFdNmIeBvjmbZnh0Pg5uzUUEe885e+MfzyWPfJWxqEUKm8AXrdm3UEg/JY10PqiW4VwTXrRrUK4ShTdFnIYC1/2+TV8EhUTFZ6FPcJyKMSXl05fdjVzqBf9OeAQQ6f4eWzzx3yB+MyBGtl8WDUrIj6q0ck8PI0IhnEsjEobgH6fktTgbGugYUW3ne8W2lB0pdnDcrD/4sdjosKzGD2HTbn+JFy4iDtc7ZlCDhrfU3H6FG9E6+RQSEgBgC3yE3GhX2C8dKGfK9es29Nwy9tfwzgXRqUNwPXbXHkcgOdlrc0ruiE5ZEdqFi4tuhA5bIRwcYsK5hZxKCRkTyJyyC8eQMWQ2bdXm8sh8QkpOJETxdsT7xVvIT5IvB3xIXvN2TgUfK4AMmdITPIuJqgwKmsAVvVvXJwafDhrVeGqv+jyHHal6DoSsicpLVzyXm3/xacBwuXl0HboFofO4Q6De00YkeOEj4unCN+8LfM6R8Zb+yhG/Dm/wHhrk9Pr6KZ37MEEF0JlDcCmbe8+zgB7LliqKLqSsd3CFVZ0VbjaIFx8kRFmi+RQ75pgZhs5h25Q9ocCACtyBMfx6rIR8zDAN2/LDIfGz9mtoYj4+Av9cibWt4eptLJbAqtpAIgMCKdlbfUW3fYLl3M446hFV5iiIcIl1pbaORRMVQlX6y/gdS7rh5yYij8Lhxg6xc9jm+e3QHzm9YtsPiw9iIgveqEfEMCVeSf94MRFjEM0KmkADj//20cC2HfeoO8WnOhO0a1CuEoW3dZz6FxWniNjroZDt9e4OZThyz6/hsBWdFQ3wWwGvdCP8WVs4Vzthl2mX8s4RqOqjwDOmP+rE0XX5zPpRXdChEu0+Pex7FFOFJohXOPmMATuvShmz+wzfpt7ONSL/ubgEDSfyLviveItxAeJtyM+pNY5G4eYtfKmgIZo2GbMccxANEo3AIede8WLDOhlAFogXHKIM3vHhupu0ZVmD8vB/osfj4kKz8K/z3xLhfQyGZeIJqoZwkV8PczPFHmMOc2FjufxcCgk1FGEClqgyFGEb96WeW0j460NGSP+nF+M+MfG0xvof0/cjnGIQukGIEmSP5pLaOgnhyYIly+7EsLViKJbhXA1s+jWzWEAFUNmH8/N5FBIyJ5E5JBfnD2ex8ChZ2FrPJZD4hPqIBiRIgiC5omffxgqiEO2zHCkoFpDEfH1XOjnjycsxaKZoxjHKJRqAN5wwdo9ARxRXrhsV9HcyaKrwqXClR2vTbi8HNoOTeKwEXdNTDwcYugUL49tntgC8ZnXNVJQrWMvIn6Up/ythwTQoPTHAKUagOnUHA9QokV3FEXXXqZbHDqHM451ChdfdITZRi5cboRzOOkX8AqmYA673gEwG0Av9GN8GVulXJlX0S1vfywTFIxSDYAhHFd30e3Eu4WJL7pVCJfP0Ud0eQ7FWtMI4eLn6A6HzmXlOTLmkhxONDhBCxAuV7xXvIX4IPF2xAcVIVfjELNW3lSWKyu+B9DrmeBgFG4Ajrhg3UsA2kuFS5iiE0W3OcLl9mo6h85l5Tky5oZwKMR7a0UJ+LLPryGwFR3VDbgEjfMLEDle0NxrORuHyHjrmIoRf84v8LnWdYaExtQAmJn0eNljEoquz6chRbc2DuWQUsLlGQ8vugEcipaywlUOzRCuCjn09Skh6SDueBazZw4AfmoPh5296G8j4gSNs0UImmUfsmWGIwXVGoqIL3uhX1ST4mp0XPH0arr5rdszDkEo1ACs6l+8mIxZPRLhcs1fAhNXdB3x5UuWL7sSHFZSdInbavZMIZ1KYeHyNVFNF66yHHKL5s0+npvJoZBQd6EX+oXHj4arRUjoYMYpCIUagEe22fkIAnbiR8sKV0jRzfk3pGCocKE0h0JC9iQFOAygYsg86cLl45BfnD2ex8ChZ2FrPJZD4hPqJgiCGAaIt5NrT3xmODLeGoqIb8yFfgHxpvjHAAU/AkjexNt9wmW72mYtutziXRGu4KKrwsXH+4czjrKb7RDDoVXYpHHEc9iIC3hbAAOaKRy8ePkivdAvIr76C/388YTDin43QHQDsN9nf7AIEE45dLroViFc5Ypu+zl0Dg856l0TLlD2h+DoI7o8h2Ltr51DwVQVhy0BgR4tHDyTLuFmDBIpp6AFxFOEb95m1asI8WY3S+BzHd8Zku2x4+aXME5eRDcAu298cH8AzEUHk150VbhUuJjZxiJc/ByxHIo7utEcOpeV58iYS3LYJpDZUjg2pVwDECBSXkET4jNThQrinM0aihDUohc1zrsVjPc+VyF+eDgZHMg4exHdAJjEHMkm1eiCUUXRFabohHA5l/WjM8IlhzRDuAI4FC3++WWPcsLqyz6/hsBWdFRbQQYPFg6eGm4AAkRqfg/GCFr+zwLx1jEUEd/8C/1sm8VVchAT4EV0A0Ap5RYad9GtQrhqLrptFC4retxFd9zCFQJfdg3g0N5q9kwhB43vkAlJB3HHs8ghcwDwU3s4nMCL/hLgnsLBhB2DRGrexeXnEW+xgAnx1lBEfJsu9PNyRS+k/zt2ByZQRFQD8LpPXr4bDPa2koLLUrboljsYG1N0Ra+GClejim4ThMvXRI2HQyEhe5ICHAZQMWT28dx2DtsJgrm3eHC6Mzcjf0x5hI+LDxJvR3zI/nE2DjFr5U0BIp+x5bkqGC9z1UOa7M9MICKqAZiZTl4DwGQSqLXo5vwbUjBGJ1zcooJ5Iouuj0N+8a4IF/EJ2V6lOZT3avsvPp1M8QcAY2hD8ehkl+xjbpNwghYgchThO2yz3CPi23uhn+A7ZzMUfR3AVIxzYsyrMgWto0XXkZA9iRZdPn5+OKDoejm0HbrFoXM441gnh3xRF2aL5LARX5LUZgzwq+LB6c6z7/lcGyRCuNnhyPigF9i1XwrkmjEVjB8ZVya6AYi9BuAVrly6VXQnX7j0rglmtkYKl8/RR3R5DsX6VjuHgklOLJzDlmPR1MzNxaOTPfkNQuB5CxW0AvFWjY+ItzZeRHxjLvTzxj+dfnn8royjE8ENwJFr1u5MwNO16Mo+s46TLlyCSYUrP7s3zO1TUrgaf/Gpj0PnsvIcGXO3xR/Afd/71O8WvwbApE+e/3teh1xi5BFv8TUR4q2hiPiy/8e/Eaf8g+MNpgYvZwaciDkD8HKATLMLRhXCVU3RFRy06LZeuOSQMEkh5i93DqFReU+RQ9Hin79O6fRlj9x4PRy2Hwb4SckZZhsAryBxNu44jIwPFm/GNnkX+snxBIDMKxgHJ4KvAUgJL5NTUeHSr1QNsU6CcPmyC99n/Db3cKh3TaB+DicDBCrcANDNb10K0OPdfLo45PZPgO+wLUj4HfZg4WfstT1XT3wh4Z+zZ4eiGoDwMwCGXupOZxRFV5o9LAf7L348Jio8i/D8ihfdnH/rim5Z4eIWFcwtEi4hIXuSAhwGUDFk9u3VtnM4SUh+VDh0yQ7PBKEXLkiEzAvpFcS8fc4WJP5cPCLEn4mPEv9cfLT457jy+jri80OGnkP/8/aVTACLoAZg1fnXLgPhBfxoFcLVzIJRt3Bp0c1NInLIL07cozFw6FnYGo/lkPiEWEflUJiiS9oPIKX02sLBNPPsOEHK/+kQaclm7YWI+G5c6AeRK8IUFm96MRPEIqgBeDjd9EIAi6WUVLj8bu6Hk150qxAu26FJHOpdE8xsI+fQDcr+6Aru//HuG35aONokz8kaPCKVGXb5ucQ7PxQRP7IL/XK2+YeRz9UarpgrkwRfCBh0DUBC5mVbl2hS0a1fuJzDGUctusIUKlyohkOfo4/o8hyK9ap2DgWTnFhXxR8ArkG/n5aI32/hT0HMrGGPb94WLN6MLWAvOm3OYyYgXtxPoVwViA/iKn2lY2ILQWcAUpiX2Etp0dWi60ysQxw6l/WjYg7dXuPmUA4J4zD8eOejOif+MMB/FI2duwDwBbO8eQQp8xpEirf1GkeIN3usBop3u27vC+Rqq838Bv3gxEXMRBaCGgADekGzim5zhKu5RbcK4SpRdJvGoWv+EvBln1/DJ1ExUeFZ2CMsh0J8een0ZVczh5266G8BlOIbhYOXrnwRkP8qYCAjPN5aIYhUSL1yCWLXL/TzxtNy7PLQsxknC94G4MizLnsiAY+xFqpNuOSQ2oVLXiUz3uyiK80eloP9Fz8eExWeRcUcBhDalOtPwoWL+PqQnynkoPE9FaeP73geD4dCQp0AGfzPjz578i9KTMB8juwSwxhByw9FxuuFfmHx6eA3GEcL3gYgTZIXiQvlEil/uPnKWc3CpUUXIoeNEC5uUcHcIg6FhOxJRA75xQOoGDL79mpzOSQ+oe6A8KVyE6QH5yec/8W8Plk/l3jnhyLi9UK/8HgiIDVBDYD3IkAy5oVWAlp03ePMMl0puo6E7ElKC5fcILT/4tMA4fJyaDt0i0PncCdgUvx90Vj69Ynb4dHZ677cdV8QPs4WLN6MLbiAOsSQRUC8uJE88aLwe+Kr4MrgRYyDhZBrALKdxAQKV3VF116mW0V3/MLlLliO2SI51Nv9mNlGzqEblP3RUdC1pU7/b176WgCLMvsk89pECpJVgyLEm90AgeI90Rf65c0WV3vTzW/YnlkoA7EB6Pf7CYDnT75wOYeHHLXoutAkDsVjr3YOBVNVwqV3TTidVfznYEy50/9ER/D7JFTQ5mxBB4EgaKxvQLwo3p54r3gL8UFcOeKDuWJsPFcG6dL9mIEMxAbg+yv23weglc618wOtFa5JL7pVCFfJott6Dp3LynNkzNVw6PYaN4cyfNnn1xDYio7qEKZ7M+biosFzt/+9bvbBvBU8r4LNOi7KCFpEfJcu9HM2DnPGgI8B5GsAzGA/kGl40fX5THrRnRDhEi1+0ZA9yolCM4Rr3ByGwL0XxeyZfcZvcw+HXb7obwFfvv6ik+4pHL1k5WEg2m7BECpGc/aQ+uTcBwWFe95URvhj4ofs3jo6Tq7IeyGg2ABQap4njJYULhladMujVRyGdCo+/QhJB3FNVDOEi/h6kZ8pZDMV5rB4I1onh0JCXQRRkpxTcoqjh/7mxt22woLm2tyh4u8Rackm7i1PvCyAcvxouHqhI7F5iB8BkDHPcYx04N1C2aJbhXA1s+jWzWHw/kZuJ7aIQyEhexKRQ35x4h6NgUPPwtZ4LIfEJ9RNGPzzDZ868cai4XTrqTuCMPf5f55TzjZnt4YEX8vEbe7AeILjtQ+In3cpEJ8ZjowP4soRH8/VY+mXR+3KDM7D3QAQGUPENgBtFS4hIXuS0kVXMqpwuRZX4bIdZS/bIYZDqyhK44jnsBF3TXQEZoBzS03Qmz4eoGX2gCByIfvBJXJ6oV94fFGuksXPZZwWhl0Dh5y1bg8AO9jTa9EtW3Tbz6FzOOPYbeFyI5xDvWvCBcr+6DyI8K0ffvbk60pO8k7GyDkyQ5zIC/HsCx4Yrxf6hcenqeMs/iyc1wD0Enp2fjr9StW5STovXD5HH9FdEC5+ju5w6FxWniNjLslhd0BITL/UBOvf/QpQuu/wlK6lwgqH67UtKNzzpjLCHxM/ZPfu2QZz5fwYfxbOBoASep7ziTe26ApTdKLohnPo9qlGuMRWrNEcOpeV58iYG8KhEC97lBNWX/b5NQS2oqM6CYO/u+EvTrq61ByUnjb0gHNwDEWIVMDx6rTphX7h8RmuqNhHAEQY6hy06I5fuOSQWA7rKboBHIqWssJVDs0Qrgo5DOkHAwhtyvUnC+Eq/kN40CTTZ5SZgG4/ZS8AR84yLAiStXEiBIl9oQPFWy/0k3PNuFl+e9Otq5jrOmbhbAAM8Myts8qHW7mDceKKriO+fMnyZVeCw0qKLnE9kj1TSKdSWLh8TVTThassh9yiebOP52ZyKCTUbRh8+IcXvnt9uUmSMwBitGBOeEL2gEvk9EK/8PhSXDmbhB62DH+0kwXbAKzqX7wYwJMs4Qo49ppSMFS4UJpDISF7kgIcBlAxZJ504fJxyC9O3KMxcOhZ2BqP5ZD4hDoO89+9GfOnZWagO07eE8CbmZHMr4UHMYLG+QXGs4IWGE8RvnlbZq9Gxo+VKyHeGOfHAOw1ABuX7vy0HmhKhYtfvCvCFVx0Vbj4eP9wxlF2sx1iOOSLnDBbJIeNuIC3W0gNzCnXX3TidLlZen8M0OKs0SVIITYIghRgc77YocJfMN5bD1wbsAVcEfbhF3c0AIlJn1Gn+AuTNky4yhXdbgiX3jXhAmV/CI4+ostzKNbG2jkUTFVx2DEY4OM//PSJV5aZg2496WkAHT9kyfyy7CG2gP3ltOmFfuHxMVwZPMPh7LgLIMEz5udpZNFV4VLhYmYbi3Dxc8RyKO7oRnPoXFaeI2MuyWH38L1kYD5cepZe7+OgrRrACVKEyAS/k2Xsztc4IF7cQ5547x4V4gsLP0bPFbkbAP4iQDJ7u+dsQtEVpuiEcDmX9aMzwiWH1C5c8iqZcZFD0eKfv07p9GWP3LiPrZioDuN+EL3p+otOKnXqn9a/6+Ug/OYsvzGClrdThKAx8VGClouPFv+h+ELiH8sVY6vnQj9f/BPohuNXME6uuwBo7/EJV4mi20LhikUzim4bhMuXXc0c6sWnEDkUjtVwDrsHMjj5R5855Vel5qBVPRBdCJCZNWRG84YhO2NjX9jAeL3QLzy+6K2Qsw8TLH/k6Ywj0wAQGQB7BSUVARUuR0Triq4Kl3cf6F0TqJ/DDoLMOTf8xcl/X3qe9bucBOA5tn5EiIzzfvWAeIIgaJ74+YehuQ7ZMsORgtp2rhJiPwawrgE47Nx1uxGBPV2QWaohBWN0wsUtKpgnsuj6OOQX74pwEZ8Q61iOQ3mvtv/iUxX/PAjmKzfsfsf7Ss/zqxMfA9DHwgWJsQUf0A4x5DPz28S944kXhd8TH7L3m84VYW9uJqsBSM3gScazOZpUdB0J2ZNo0eXj54erEC7boVscOoeHHPXiUxeCOewe1j08tfmt6PfT0jMtmvoUiLZfMESIjF7oFx4/slshc3YXV8aENQDJgJ5ExjgXbV7RHb9wNb/oqnDpXRPMbJVzKJjkxMI57B5+giVLjvrlJ0/eXHYiuu2UVSA6asjCefG2gP3ktEUJmusAKBBfSPxdx9iouIpoyGK4opT5WJ9pACgxe7omambR9WAEwtX8oitM0Qnhci7rR1XC1bCLT1t5AW/3cDMRHXLDJ992f9mJ6JbffSww+Iu5Ry4v3hZcWEIFLTBe3BOh4l8gPmRPN4mrsCbpSdws1kWAhvBkbrJWvlvohHDVXHQbL1xyiC/7fIDAVnRUeBb2CMuhEF+ndDaDw67B/Hc61XvlDZ855fayMxH1EySDvwWws1skHIIUJGhMPCFC0HICucDzAAAgAElEQVTx8w9Dcx2yZYYjnuvWOuatrQ3kSvSdx0q6ddWOeQ+rASAz+x0AGVuXhUuIlz3KFbRmFN02CJcvu/B9xm9zD4d61wTq57BroO/3Bnjlj//8nbdVMt36DacBODBAJBZspT7DFkTWZ5vfLwXiM/sxUlCtg2gCudo8bZ0FYG4DxJ7MbMFoq3A5xwsX3Zx/64puWeHiFhXMLRIuISF7kgIcBlAxZPbt1bZz2Dms3bR58Wuuv+ike6qYjG5/10tB9NEoQWJfyEBBKnq/+rxLgfjMcGS8NRQRH8wVYxsHV8bW9mwDQGQAenzWJCSSM7VZuLTo5iYROeQXJ+7RGDj0LGyNx3JIfEKso3IoTKHanwXhy9P37HjIz/7qHQ9WMt3N79odlH4VgP1lP5xI6X/0C48f6bv+PFcF44msMwCZiwCPPG/dTjNDm0WFiwtte9GtQrhshyZxqHdNMLONnEM3KPtDAcwQ8IEbPnPSOYB9E3YR0I2rFmNR+jUAj82NcN4RL6JL0ArGi/vAM6/YOHjiQ2pu1Vw5n2tAvPhcPfHzw0b+CCClLbvPhzZOuJzDGUctusIUKlyohkOfo4/o8hzKta9uDgWTpyir+OdAuA0m2f+GT598dmXiTzDYbuf/B+Clwws5xTvoQGDiCRHin4uffxi41rAtMxwaP2e3hiLiy3IVLN4MV6KvED88TLRn3jNzBmAGvd0TkBZdR/zEF93Wc+hc1o+KOXR7jZtDOSSMw4B9IlpV/AHAAFdMz/SO/cnn3rmh0olvO6UPQycsGAQx5OwhNv2PfvJaGVNDuDLYI++dOQOQpNitzcLV3KJbhXCFN1nWcNM4dM1fAr7s82v4JComKjwLe4TlUIgvL52+7EpwKOyzhW2q4g9goyHzez/c7c6DqhZ/uu3kt8LQB+cewSlI7IsXKEh6oR/jy9iax9XuyCH7j4CIHsPMKubo8yklXPIqmfFmF11p9rAc7L/48Zio8Cwq5jCA0KZcfxIuXMT1SPZMIQeN76k4fXKvSkM4FBLqIv5txgze9ZNP/86tVU9Mt5/0ehD+HwAjiiFnD7HV9V/qQsQwZq1hW8gx0EiuCsbLXO1Ivzh0iXnapfP/VTLbABizezZxXzmrWbi06ELksBHCxS0qmFvEoZCQPYnIIb94cH1BroVqGYfEJ9Q13IwUv/ujz558SR2T0+2nHAiirwCYChe0CJHRC/3C4p3PNSA+ukkasoc1SQZm8a4A5pvPzEcAlNKu4iStKrq8cHWl6DoSsicpLVxyg6B3TfAO3eLQOdwF3EvAB3sD88zaxP+2k18Nwj8DtNQp3kGCRradECH+ufj5h4FrDdsyw6Hxc3ZrKCK+7Rf6+eJNmvkYIH8GYHs3McO/2lB07WW06NqOdQoXv8GF2SI51Nv9mNlGzqEblP3RNdwDQ5/qzSQXXH/RSQ/UtQjdesqhAH0NSJcxo0F7xmkb+2nsAvEhNVZqHGLWyphawlVqMh/z568B2Ja9E6VxwqVF14XgoqtfkuREDIfemRrNoXNZPzyFp7Pib7ABwJp0+fJP/3jNCQ/XuRTdetIbYdIvw/pHP3DszUCRcL5uAfHivvDEe3VGiA86yF01I9TXdTy1iCsD4QwA0h0AkzU1ULi8MzW66FYhXCWLbus5dC4rz5ExV8Oh22u0HMbCl31+DYGt6KjJhLkewEXLljz8hesueO+mulejW0/5bZj007BqOCeGc/YQm17oFx4/9nf9gWsN20hqAIxZGbSmby2nz2QV3ZHeY10Vh97Sb4+wHArxssckCNe4OWQiIpooMXtmn/FTezjsxkV/P4Ghr/Rmkq9cf9FJ/zuKBYlgcNvJZ8GkZzCjgWLosDfyrIEw78Q9V098IeGfs28dMrTL8Eiue8R27uW16Prhy64BHHLHTT4+pFPx6UdIOmijcJXlkFtUMBdqRMfDoZDQRICAR43BVSBzCSXmkhs+deLPR7r+ncevwO0r/hqGVtmDoYLg2hsF46MFzVVDIuODxN+1zzvMVWoyGr/QABAZnH3Ztnxs24tuFcLVzKJbN4cBVAyZfTw3k0MhIXsSkUN+ceIejYFDz8LWeCyHxCfUVqSAuYmAGxLCDwjpVQ8vmv7BL//8PZv9odWDbjnxKZgx/wTQs3IjEQcptzdcr1eooBWMF8XQEx+yn13xQY2Dwz4JXBlsP2yZbwAO+NC6FVg693jiiq5kVOFyLT7hwrUFwMNzI/eF3XliPBympTjkD3phtlQet0d9HC5MGDl1uE8DQAZbDJmHYYiIcI8xuBcp7kGC20xKNw96yc1YtuxndV/EFwq67cTDAfMFADtkBwJFnrM760pAvChInnjvMS3EB4m3a4+H+rrq0KRw5TgD0Fs8WBK2KNgnFStcs8MhRddf1jomXKHDGcc6OYwWrkgOC158ehsBNxrQTUTJTcakNyWG7qBBcnc6Y+767p+/eSM/qULRDNAPTlyE3ZL3A/RBZP5ni+uADhW0wCaBs0ULmqs2RMYXFv9xc1UwvjauiG8Alkz1FqWDdCikCcKlt/u5QNkfgqOP6PIcijWhdg4BA9xDwDUAXQMkP0wXzfzwe594y72ujBWKpoNue+fTAfNlgJ6fG4koFqGCFhjvrDcB8XKRcM87cc/VE19I+OfsYU0S3wBsSWcWb32g91gzs9UgXE54DpZYDsVWrNEcOpd9FKB1MPi3NMXa75533H9X9VWqCsU4QdRPcPsdvw3gfAArcoNcRJgtStBcRaFAfCFBc9WdCEFUrly+/DUAi5JkEQ0GUtH1TA7Pk58k4ZJDYjkU2BKsAQ2S6GWPsBwK8XUqrpU94SEy9M8JmX94CIPLs5/PvrnGTBSK0YBuOfmZuP2OvwTwG7mRoDrltI39NHaB+BC9ccUHiaHDPvlcbUsEY+YuZ5pvAAYzM4uMMcIE9gLdFS5fdiU4FDbRwh4JmN9VM4ZnCulUfL2e08fXRLk67wyHAwCXEuiL09s8/K/X9096xJGwQtFa0J3Hr8D0ij+Aofch/1/99DR2eHxr3vUP2UfPVYLbVi0FvroJGGoAEuotJjMQc1XhcgTZwiVMW4xDISF7kgIcBlAxZPbxXJrDDUT4G0wln/nOWcf8is9CoWg3Zk/333kCBvQJGMp9V7vrIA4VtALvJK2HBQSxkKC56npE/Fi5Khgv8uyJL8PVlvsWA8g2AGkyWGQY9+YIF794U4TLs7A1Hssh8QmxjuU4lJusmjn8CZl0zfT9D//d9RedNM1noFC0H3T7KQfi9jvPAeh5bDEIKvAO+zjOGoTUwWDxbvhzzfxZB1dCfBVczSxbtNU03wCYlAiJ63sAmiBctkODhAt61wQzWziH14HMx65dc/QlejGfYpJBt550CIz5Y1D6Et4h4p0cayoYHy1orloQGR8kaK7aqlwFx2fXXbL1r4X/BNhD9gpAFS7nuD1lWfF3g7I/BEcf0eU5FPd9AQ6J8FOA+tede+w/zAr/Ma7FFYrWgqifYP0dh4PMBwD8RliRHrKH2Fp/GjsyPriQKleWOZ2xzwAkaTqdmp5zHhUu3hTSczjh2RCxHIqt2Fg5tLCeiN533YpffBH9fgoc5w1QKNoG2vDbu2HL1Ntw24YTYcyTnAeY/pe68PjWvOsfsjeOq2T+QtP5BoB6ZoA0P5drYnm8rcIVC1/2+TUEtqKjwrOwR1gOhfhyLGXWmAbo04NN9EH9T3yKSQRRfwq33XEwTHICpukoGCye3f+h72Th9rUXc2Xht0ULmutdT2R8YUEbN1cF4z1aORauyNgNwEy6aLqHge3sWGIShaspV/wvhAdw6Hqth2cSGiR3gow54AAUOLzKYPDOa845/meubBSKNoJoVQ+37voymJnVuP3O1TBml+xxEVqkI0Si6MVv0cI/ZA95c9ik5zr/sIlcCfGFhR9hXC1K7Y8AFg82DwbJlBXQTOHiFhXM5YTLkVY94i8kZE8icsgvHtxEI9dCFeaQHgHw4WuX/+Lc2dP9CkX7QRt+ezfMLH41QEfgdhyCZLAjkL+PqkSRdtmiBM118BeILyRorjpesaC5bJ3iyiUGjDFN5+vwwjUAWDozwEwmoLnCJTcIersf7zBqDg3MNYPEvFnv5Ve0GUT9KWy4c2+keB5S83LAvBLTtPdcg+uK4m3BHThXgyLXsh4WjBfF0BMfUjeDuYqIV67c8Qlmtj6abwCmZ6Y3Df8PqrYKl7sTc8wWKf56ux8zm/1EB4BZ8+j9Gz+o9/Mr2gBaf+JyYNnOSGceh4SejBRPRmKeAqJ9sf6uZwJmqX2Mh747g6M2hgp/5FrBguSJ9wqSEB8kSOPmylUkJ5yrmd58TZ5vAO55zM4P7nzvPXy4R5SaJFxyA1a3+AumYA59jj6ix87h+sTgTVeffczVnkRHBrr33dtisPTJoPTJIOwB0C4AdoVJtgXRDt4JFNUinf+RA7fhYj41Cnp3thhbv2TH0PYgLAKwMwjLgenZs/iEud8E9/ESUXgDjiOnbezvZAPXGrZ1lqsC8ePgqmfmzwBkPrR67ce/sYmApXws/+RihcvtNXbhEkOc2TsOFN482Rwa4JpkambVVR8//g5nijWD7jx9BZC+GMa8DITnAXgOgCeNK59uI7RIBxbORhTpyPjgdwKhzzUgXnyunvhCwj9nL/pcgZr2Rdu5csSX5Wows4fZ9/JbgOF/BDSLjRhuAEYpXKLFMz8CziyUgC/7/BoCW9FR4VnUzaEMQ+az969I3nNj/5gtJaaJBhEM7n7vc5GawwEcBtALALOo5EuuKAVXoxxauFxdbIH4xhfptnPlelOhXDlthbni9mRE/Faeh84AZBoAAh4EsKt/8hqEy+ngIt1hDij8TbnifyE8gEPXaz88U4joFeYw105kn/KHrzn36H7A6pWB7jz9SSB6KzbgLQD2GOXaCglC4QnxZYt0wXjPG5jwIh0ZX0WRLhI/EVxFxCtX4fHDXPWm7GsAAMAAG7PPbTzCFXz8ABjBN9O5FrbiY8RfSMieROSQX5y4R9VzuJmI3nbducd+2ZdeFaBbT12GxeY3QebtAB0AY913pRgrQotsQOESi6wn3ltkhfigIus6kEJ9XTVHuQqyRXHlKowd5mqw6NGtf+bOAJiNC8lOtHC5g0I6tArEn/iEWEfZy3YYDYf0IBGOvO7cY68U06sAdOfpu8LQ6SCcCMJ2da+niAV3HAUIl8sWXaRdezgyvnCRdh2koUW6LFcF45Wr8HhxT3rim8VVir2+/tDWB9lrAIjudy8wNBKgW3ULl3sjO2aLFP/RfMGPB4293c/cb2AOvfbco78jplcStP60nWHM7wJ0Kgjb1rmWoihCC09g4WxEkY6MDy4Aoc81ID66SRqyFxL+OXvR5wrUtC/azpVLZ2rjaqMxC4O5BgB3SSdVKftDcPSpW3nhko/1usVfMHmK0ARweC8ldNC1Zx3zQ0+ChUEbfm83pIvOgElPBrC8rnUUZeA6GEILl2vzFohvfJFuO1euWhIRH1BjnDblKjzef4Yk8x0s2QbA4K6qhMvt1XTxdy4rz5ExN4RDIV72cIwabDSEQ+oSfyIY3PXe40HmfBjayf7XqopmoFDhcdvEYyK0SBeIDzmmx1Ok3baJ4CoiXs8mhceHcfXA8IP8RwDsGQBi/pKSEoVLtJQVrnLwZY/cuCDz0VHhWYTn5+1TQqbD/L56BEiOvOacN/3AHxEPuvPUZ2FD8lkAL6ljfkVVCC2yAYVLLLKeeO8mFuKDiqzr4An1db3RUK6CbFFcud4NKVeMTTgDANqQf9e1wGWA8Lga4+GZnA5VCFeunQh5QTJp+RYWZFzoNuvmMICKIbOPZ5bDLWmavP47a970bWdqBUG3nroMU70zAXofMPzPqBXNQug7Dodv6SLt2reR8YWLtOvADC3SZbkqGK9chceLe9IT3x6u3GcAEjIbUu6sa3uFS554BOIvJGRPInLIL07co2o5JBBO+s6aN13uSy0WtP73n4Gk9zWAnlH13IoqEVp4AouR83gJiC9apIMKtMPeyOfqiS8k/HN25So8vrDwYzxcGaEBMD26C2SyIZXcqmbnNQLhci9umeoT/5DeYKuj7GY7xHDIHyzCbAsPP3ztucf8jZhaAdCG048C0V8DpLf1NRau4ya08Lg2bIH4QkXadUzUUaS7zpWrgClXrK0UVxENWd6WIvNv2pPhB1uweEMmLEi4mnqrmhCUmbKs+LtB2R+CY2O/JOnvrz3n6A+JqUWCqD9FG957Foj+EdB7+psLV+EpU6QLxmc2b5kiHRlvFZOI+M5xxfmV4SowvpNcFYyf5crdAHzrjw68F8DDMcLlcRiXcLmDosRfMMmJRYm/x2FcHP63wfJ3AsaXYDDo7jMeiw0PXg0yZ1Y1p6IOMBuuaOGZdykQnxmOjLeGIuLJVaQD4pWr8HiRK098NFdDti5zZcydw56ZBmDWxdwSI1xur3GLvxwiLOtcwzaXFH8EcCha/PPLHs7R+yjpve6ac17/oGeBYNCdpz8Jg8GVAF5U1ZyKqsEVngDhcsV7i6wQH1RkHfHBRZaxlTrlX5argvGd4Cr/sGB8Zk+W4SoyvjFcmfXDw1YDAOBXzReuEPiyC3uObk+fNWB+7vjLx4d0Kr4+JSQdLOxRY+jk685a/Ut/RBjojtP2AegqAE+tak5F1XAVHs6vTJEOiC9apC33iHjnu7PA59qId/0RXHeeq4h4lqvA+KZxlaSZjwDyXwcMUPp/zMzZRcYuXLl2giVYSsu3sCDjzg0oJmRPUoDDACqGzD6enRxedM3Zx17sTC0SdMdpL4TBpQB2qmpORZVwHSsRwss+LBAfVGQdtpAa4DxYCj7XeVNXuHIVLeWKtZXiyqUOJbl6eEZuAAjm/wyfOfzC5cnHaywlXO6gEYk/8QnZXqU5lJusEhz+cvHy3mm+1EJBd773NQD+BcCKquZUVIk6Ck/BeLHAe+K9BV6IDyrwDrtyFR6v/9EvPL4oV/4m6VHzvHX3D1utBiAx+JW0r2Xhsh1GJFzuoJAXsTLxdw5nHOvkkN8QwmwLD1MyeMu6/uqH8hFFQOtPfQFg/hkq/g1FaJGtpPC47d7jM6YYRcS35l3/kF25Co9XruxBws35EasBSIl+xf4Hdr3dzwnK/hAcfR1CeQ7FfSBwaAjnX3vOMdd6EgwCbTj1yaDk3wBsU8V8iirBHScBIu+yjbxIu46BiPiAY8NpG/u7/sC1hm2d5apAvJdnIb7pXBlY13XZZwBmejfR1CAwuaFFxiRczqAo8Rfg2Uyx4u/2GiuHv3x0xTZ/4kwtArT+tJ2R4lIY7FbFfIoqEVp4AouRc9974istshHx+l/q5LUyJuUqOL413w9BVgNg3QXwzf5r7wJw30JMo4XLmZI4pRAgyHx0VN5T5FC0+OcPe56ucPM71/ePfKTMFABA6/vLkeDrMHh62bkUVYLAHqS13YMtxAcV6bx9zhZcpMsImoOrIs8141IXV474wlyRchUT36bbRsn8b97K3QYIGPx8eKLGCpdnDTF7ZrPx+8Aj/i3/kiRj8E/Xnnv0N53pxcA89Hnot/k1DFUUnvzDgvGZYy4y3trkZYp0RHznuOL8ynAVGN9JrgrEz7sUiCcENgCE/ykvXLaraI4ULmdQJq16xF9IyJ6kAIcBVAyZfQ2CyOHmmTSt5L/y0R2nvQuGfrOKuRRVgCkGhHEVHvaYC4q3hiLiR/Yf/XI25So8PpqrIVsXuRJ9hXgCgIH/GgAAMIZ+RmmAtovCJTcI7b/i38uOR/z5xUfLIT753XOP+4UnQy/oztOfCdCasvMoqoKjaIX6OjdlTOHhhiPjg4ssYws4Hpy21l+8FrDWsK3TXEXGt5erGWx60PofP2wDkKb0M4C9F2BhxgaLf/kr/n3i7xwecmz8XRMP0PTUOWKKAaA7T18B4GIAy8rOpagCoYUnoJhEC/+QvdIiGxGvF6+FxytX4fGtudBvyJ4d/oV5wfXTeU+2AaBe8j9mEE7kiIXLM2VZ8XeDsj8ER1+HUJ5DcV+EcXjudRes/rWcZwAMXQjCM0rPoyiJsoXHtSELxBcq0q4938Qi3XauODGMiFeuwuPHfoZk/sGPuVnYawB23PLQLwHMsAuMX7icppCewwk5sWjxd3uNm0MAwD2Ll0/9qTPFQNCGPzgYhLeWnUdRFq7CU6ZIF4zPbM4yRToyXi/0C49n62oZrgLju8QVwVF8A+LnXQrEZ4aHHhjzIyaIbwC+2l+9BchfMVihcDnGy8Anu/k1BJmPjgrPwh5hORTiy7G0dQ1zYdn/+Ec39hcD6Z+VTkdRAkwxaEzhiYi3hiLi9UK/8Hi90C88vixXMU1GnivRV4iXnmuKG5hgx10AsxgKqFi4AlSsKVf8L4QHiD+3Z/IzOR24TeD0cPjkXhX2idIjiwf0KVcWwdh545kg7FV6HkVBOIpWqcJTMD6oyDrig4ssY2vMV6yGxOe5KhDfGa7yf5blKjJ+Erky0+FnAADAGHNDZuYA0a5XuHhTneIvJGRPIoo/v3gAFUNmX4MQyKExf7nuvGPvceYYAFp/5hNBppLbBxVF4Co8nF9A4XAeA574zDDnK8RbQxGFr2lfsRoSb3EVER/ElSNeuQqPD+aKsTWbq7vNPlfdwQzyFwECQEr04/n7AEThItZnYbQi4XKa6hN/4hNiHWUv22FMHFKSJBe68wxEMv1ngNEv+Rk5XMdCoHA6N2GB+KAi67CFHOPOg6Hgc503dYUrV1EK5cpV0ZQr21SWq4Lx4Vyxp/8BoQHomakbUpouJVzuZB2zRYq/3u7HzCZySFdc/Ymjf+5aKQR012kvR4rXl5lDUQRNLDwF4kOa9+AiHRGvXIXHN/L2QM+8Rblq5HP1xEc3SfSfjgndHwF88wOvvRWEe93T+oVLfj3rFn/B5BF2yv4QHH0dQnnxr5RDMp92rRSMgXl/6TkUESCwm6i5pxt5uzUUEa8X+oXHN/ZCPyG+EFdztrJcxeaacSvBlegrxEeLPwBKnN/yKl0ECAD/xU87bvF3LivPkTHz47Hi7/YarfgH4O7NDzz49digzIp3/cFzYei1ZeZQxMBVtMoUnoLxRQrPcJEO8mVsrbogK89VgfjOcJX/s0C8tSeVK9aWJt9hBgB4GgCi2QsBWeFyR3k8ooWLifbnIK/ms4bNL4q/aCnLIRPhKRyG6OLrLzrJ+k9QcYuk74f8LyIVlYEpHI1415/3FeKtoYjCpRevMb6OeOUqPH5yL/Tj7YRfmGd9awMzCEC4BgAAEoMfOYXLoVDe1yXv7xGuYZMouwxB/NQe8a/9dj9uUcHM+uRelQAOTWK+EpCRE7T+tL1BeGOZORQhcO3/QOHkilaob94WVGQdtpDjWirwMWtZJuUqyKYX+oXHj/0aksC1hm0EwBjn6X/AcwZgBoPvB3MGoM4r/usUfyEhexJR/PnF2SZqpBzSLVeffcw1/IqBSOh0+D8yUpSCq/CUEbSC8ZljqkyRjoxn93NMkc7bA+M7yVXBeCdXAfFFubLcI59rUa4IxbmadykQnxmO5Hp4iOA8/Q94Cvr+6X/+N4CNVmLssvWJv2dhazxW/IlPiHWUvWyHGPHnDxRhtmAOzb8AJuAJOrJa318OmNVF4xU+MAdzYwpPRDxbpAPjG3vxmnJlPywQX4irOVvR5woUf67zbiW4En2F+KB94YjPD6WD4mcA+v1+CuA/xydcW/8sK/5uOF9jy7H+2/3EPVOCQ0ro312rBqH34FEAVpaaQ+GAq2iVKTwF46ssPDHxrbogK89VgfjOcJX/s0C8tSfLcBURPxlc3Ydn7n4jEzAP/yldou87150bqEu4crPHhOUM/ByU/eFG2273yy758JJlW650rRwEohNKxSscYDZNI971RxROayiyyLJ7ObDINoKriPggrhzxylV4vN42OvvLYK0xXx0wQfMQLwKcncp83wgXQNQlXM4prQGHl5xYtPi7vezNRsIjLl728MX7YNau67/t0aLRdPcZj8Vg8JqSSSgycO37QOF0brgC8UFF1mELLrKMLaBeOG3KVXi8XugXHt/WC/2c89JljoTm4W0AUpr+fs9wblV8M50bPtlFblyQ+eio8CzC8/P2KSHTIa6JIgAw9G3/rAJm0uNg0Cs1h2IITSw8BeKDNm5okY6Ir+U/t7nsylWh+KJcTdxz9cQXEv45ewhX6SJvA+D9CGBd/6hfAbhLXC6g62rKFf8L4QHi7Wooh2fi9pJz0bzZ1yCU5zBBehW/eiAM/WapeMUcCOxm0VOzYfEiV574aK6GbMpVeHwhruZsRZ8rUPy5zruV4Er0FeILiX8UVzebZ13xv8xABqG3dX0/u1z9wsWCIZyf2iPuE3u7n/XgkfuXL3b+H2gf6O4zVgLYr2i8YitcRatM4SkYX3/h4W2dungtz1VkfKe4yg+V5SoifqK5Mt53/0BgA0Cg64b+tnKyFx96VEy4BJ/i4h/SG2x1lN1shxjx5zeDMFskh0Ov0Q9v7K/e4srCi0F6AAI+JlJIYDZKI971RxROayiyyLL7N7DINoKriHiWq8B45So8Xi/088T7P/8HAot7QuYaMrlF6xUuhw/ZJjGf3LDzhRt29IxXIP7iHqiWwx+5sggDvapcfJfhep0ChdO5yQrEBxUOhy24yDK2gP3ttClX4fF6oV94fOuvtwlYC5gBZq5wLJRB0BmAh7fd9F2AtoxQuELDcgZ+jljxd3s1XfzzQ6ZkA4BXl4zvKFyFp4ygFYzPbLgyRToynt27MUXa3s3KVaigleXKE58ZLvBci3KlZ0gYXzb+22bf637NTGohqAG47r2rN9HWd5OFhEsOEfTSuYZtFsRfXiUzLoq/aPHPH0JLUXDZG0M/Ljzfbe/bCcCzSiXVOTAHY1ThydkaVXgC4xt78ZrAtXIVHl/ouc7Zij5XoPhznXcrwZXoK8QHceWID+aKsaX0L8wAixPOEt4AACAASURBVJj/7V7if8n7ZDVMnN2eHmvtX/DDbRinh8Mn106EbIBMWsz49KJf8tkEYGrzS6D/+z8CrqIVc+DnH8bGj7nwdOritTxXkfGd4io/VJariPjOcQUgTf6VGWQRXOAJuGZkwpUxC+JPrDXnU4/4B1AxZPY1CLVw+MB1F6wOOg3Ewzy7eGzXwGyORpxujCic1lBkkWX3bGCRbQRXEfEsV4Hx3fs62hq4CoiP4ipnazVX9EPznG/fzASyCL7CO5miq2k6/1XwtQgXSyA/tSN+ftg9Pu/F7TFnPtxDYn0WRslyFWeL4NCzsPceUA+0AfDC9doECqdzYxWIDyocDltwkWVsAXvaaVOuwuPHfvFa4FrDts5yVSC+Kq6MCT79D0ScAfjW+1+/ATBDolKbcFnjxcTfOZxxlN1shxjxdx9IjtkiORQvnDS4xZVVIPYqGT/hcBWeMoJWMD5zzJQp0pHx7H6NKdJ5e2B8J7kqED/vUiA+M1zguRblSs8mMb6OeJartJ4GAAAM0msWEsrmkcvMDg4VrpxzyNTWcEgHMFm3+9lpkbnblVkg9iwZP6FgDsaowpOzNarwBMY39uI1gesuciX6CvGFnuucrehzBYo/13m3pnLliA/mirHxXP0K+1x7AzPgRFQDQDBrywuXc/KQBETnWPF3e9kvDnGPhCcjp1o/h4mhwg0A/d8f7gBg+6LxkwtX0Yo58PMPY+Pze69AfPWFJ8zWujMkea4i4zvFVX6oLFcR8Z3jivMjAOZiY4KUdB5x/+VtylyGmYX5i93u5wsi5i/HhBFR4VnYI6z4C/FRr0AkQjlMU3NP4UWWzDyucOzEwlU4PH6cXewOPfFW4YiILyz8iBAzxq5chccrV+HxUVxxezImfsjeVK5SXOxY2ImoMwBXfODI2wH8j9vDJ6uuJ2bH8zx5xL+rt/tlzFv/SB/kHQNA6S6FYycOTHceXXjKFOmh+EKFZy6+cOGhyCKtXIWvlTcx/Inxea4KxneCq/zDslwViK+Xq/81z776esZJRJH7vC8H6hSuOPFf8Ckr/vziARo+ZPY1CKMSf4CQbOadg7BzidgJQhMKT/7PAvFWgY8pPJxfmSIdGN8lrghCgQ94rs766InPDEe+VtZQ5L5oPVcR8UFcOeLDufoSs7gX0Q2AQfKt5l3x75V1/vj0OBD3yPlUuAIkzFYzh8akxRsAk2xbOHYiwBxgUYUnZ2tU4QmM1wv9wuPLchUqnBxXoq8QH/RcHfFFnyuo+L6Yd5tUrhhbzMduJv70P1CkAdi0aS2AGTGhDO9xwmX7uGXbMzzk6Ptc3n6hiHvknITbaMJsIZuiJIeGUPxbACldWji29XAU+KgDP/8wNj6/3wrEj6TwNIGr/J9luYqM7xRX+aFYrjg/5Yq1BXMFwJj/MvtecyM/KCO6Abj87NUPAPjOQlI5RAmXYPIIO2V/CI6+DqG8+DM67J6tcvHnTalJfE/cDZMsKhzbajAbQU83yrlm3CaBq8B4/Y9+4fH6H/3C44O5GkKa/r3s4Eax//Vu8E9+4XLASww8xA+/ph5iGn+7nxxSisMyMGnc3SGth6PwhAgfF+8tHEJ8UOFwxAcXWcZW6tRsgHC54ieeq7ypLFcF4zvBVf5hWa4KxI+Eq5xDD1/0OblQqAEgpP8I4X5Dn+wiNy7IfHRUeBb2CCv+Qnx56fVlV5bDgkiT/P98nmA0ofDk/ywQbxX4mMLD+cUU6f/f3rnH21VV9/439knCI1Eq1Ad4tYqgJockrUmvNoAFS4v4RJGISvnU2/q43t5qr1W5eqsp1AoqRfH68dF6Fan0o/HRohUVAyHnJBEkoMIJj/BULCThJRBykpyzxv3j7Jyz91pzzjXmXHutudZe4/v5QPYaa/7WnGuctecYY5659wnUW30l0Mfw1VCskHj4OnOqbb7y0It8ZdF7+SrD1bRk0z2ShiaCEoD1a153N4Dr+4x97y3LwA3ONd53XvDXj/sh34dTaavSh+EN5jXxpGy1mniE+tpu9HPog3zVtRX1le9Y+5oV8JWzrUMvuleLPvS5AKuvfPRhVX9PU7pE3jhL8J975QTfmTvo/ado4Mq5+SH/uF9Ox5nzQT5sPbYJ3ueNnz701acnngB9JRNPHXyVfhmgz7y/1FdWWyFfmdoV8ZVQP9S+sjKJPbu/5SNIE5wAjHSStQAqC1wzpwXOyQ3+2QZsOooU/Mv81IQCGH/4utzoHmtfs2HwlVCvG/3k+tquJjl+VrX3VR78HVq55TcBwlmCE4B1a15/GxhbZ4dSYuASx7UWftzPPR5lDsvEIwl8Jn3uxOHQiyYOi148yRpsutFPrteNfnJ9q1ZIqvKVACq2/A8USAAAgIGvzvybF7gcppx75/7/ORrmObF48HfOY4WDv7XbfNwDU8QTj3AyiDLxpE956o3Po88kHai3+kqgD/VVprnnvYb6ihHuq9kmAfq+056+br2vPPQiX1n0xTb6GaB7MXHEjwLFsxRKAEam6CsM7DOezDjK1cZ8nvv/Z6dmH/fzJW/06T4c3lL6MLzBnBNPjr5WE49QX9ulWYc+yFddW+i9AuH3OtusgK+cbR160XNh0Qf7itVXPvpBVv1z8i/R6rXTxS5SMAFY9w+v3c6cXO5uFRa48lTpls7g77TkX9/3R1W7v5PQSmwTvM8bP33oq09PPAH6SiaeOvgq/TJAn5ngi/jKQ986X5naFfGVUD/UvvIiwUjy5aIXAQomAADQIfy/jLFg4JqTC4K/ycfpK0n8nReDrW1S6YQG/xpgmDh0udE91r5mw+Arob6yb6lLXVd9Jdd7+6rHVntfhcDfL/LZ/14KJwDcecp/ALhvzpB5ERa4Kvm4HxvbzJ3lTFPn1SQ/8NwHCoPzYeuwTDySwGfS504cDr1o4rDoxZOswaYb/eR63egn17dqNSntK099GUv+vRD906AuVTgBWL/mxCkmzOxGHEDgmjktcFZu8M828An+5gfJcTXP4F/6pyYK/3aoaUgnHuGbOcrEkz7lO/GY2vlM0oF6q69y9H2nA+411FdDsULi4evW+8pDb/SVUD/wjX5G7sOO+d8f1MUKJwAAQJR8Brx/M2Be4LKTE9d6Gpb/cT/n81N68HeYBuXDocHwBnNOPDl674mnx1a7iUegL9VXDn3QvXZtofcKhN/rbLMCvnK2dehFvrLog33F6isffdlV/34In6cT1w/sa14HkgCsX3PavWDq+3vEdl+ancL9/7PTio/75SUIBX04NNgmeJ83fvowUN/3syky8XjqW7U0mz5V1Fce+tb5ytSuiK+E+qH2VWH2IJn6wiAvOJAEAABG5tHHrdF5wMHf3koY/B16d4tiP9S80af7yHGml2r4MPygdbnRPda+Zuorkd7LVymb+kqu9/ZVj632vhoYl9DSa7YP8oIDSwDWrXntLwBaB5QVuATBX6B3Nc19DtLtJT987v0nr2OHN6xvjl55qQ9fTbBMPJLAZ9LnThwOvWjisOjFk6zBphv95PpGrZCkfRWgb42v0i+L+spTX9WSf9/lO58Z9CUHlgAAQIfxiXICF5uf7fSVTM+VtdO0OS9B6DfWJfg7BjSESCce4Zs5ysSTPuU78Zja+UzSgXqrr3L0facD7jXUV7pCYmhr0auv5PpqNvoZoB/S0rFfDPqqA00Arvz7U68A6IZZw0ACF5vnPUMz+6Fp4u09a5rYHVczR2iHqbzgz+YBDRmGN5hz4snRe088PbbaTTwCfam+cuiD7rVrC71XIPxeZ5sV8JWzrUMv8pVFL/aVwaa+kutjVP2zTF9YxlUHmgAAxCB8CIAwcAkumRv8sw18gr/5oXRczTP4l/kHfsQ+bDS2Cd7njZ8+DNT3/cyKTDye+lYtzaZPFfWVh751vjK1K+IroX6ofVUKP8Po5sLf+29iwAkAcPU5r7ucE6xzteH+/zka5jm4ePA3xGH71QYe/B0m98DkPmw0hh+uLjca2hps6iu53stXKZv6Sq739lWPrfa+KpFO5++Iyul04AkAAFCH/7flKfEO/vZW2R8Mm46sF9CP+9UXy8STF7hs+tyJw6EXTRwWvXiSNdj0W+rk+katkKR9FaBvja/SL4v6ylMfdcl/lp9h8di/l3XxUhKAq8897acgfDNtZ8MrM4Lg77TkX7/MH2Pe6JE67wjz3qrmI514hG/mKBNP+pTvxGNq5zNJB+hnmwTo+04H3Guor3TzmqGtRa++kuujbfQzUGL1D5SUAAAAM38IPX8qeO7nKAiMJv/3nu+7oOW8o03uc5FOJ4wPg2tYeR07wrj1zeLpw8ZheIM5J54cvffE02Or3cQj0Bf1lbOtQx90r11b6L0C4fc626yuvrLoxb4y2PRjo3J9Par+/d3ehMVjl5XZRWkJwIa/f8M2Jv50n1E/7td33if4OwaUvUjj4r9tgvd546cPA/V9P6ciE4+nvlVLs+lTRX3loW+dr0ztfHwVqLf6SqCP4as6Vf376eBDREjK7aJEdo0c8BEAd8w8CwJHSmKXM/ibE4S5s+UF/5yOM+d9g/9AfVgrDD9QXW40tDXY1FdyvZevUjb1lVyf6yuHPqavRGOtlKtodGOp1T9QcgKwZc2rn0AHb4PkV+4V/IEfi9B8Ncmbp++Slo4ND7TofZk+LXkec31YJ0wTjyBw2fS5E4dDL5o4LHrxJGuw6UY/ub5RKyRpXwXoW+Or9MuivvLU1zP4J0jofVV0VGoCAABXn3PaVQz+F2cj/bifbWA9wT8vS4j+0Hpgm3hM7eo68aRP+U48pnbCe61F1Z9u69BnTnn4SjevGdpa9Oorub6OS/6z8D/TsvEtVfRUegIAAAuSzl8D2GE8WfuP+7kljm6tfWTNBYM/8nxYFwxvMOfEk6P3nnh6bLWbeAR6573m6HPv1aEX3atFH3qv4PDnYrbZsPrKYNONfnJ9Pav+/TwGWvCRqjqrJAFY97HXP0igd8ISyp3B32nJD4zFf6x5o5MFZ3vLPKvg+qb3Q+2wBEOvN376MFDfN2kVmXg89a1amk2f8vWVqV0RXwn1rfRVoN7qK4E+1FeZ5p73KvZVJBjn0uj6+6vqrpIEAACu/uhp3wHjojlLXuAyvTEM5x1tMs+Ju0VtdvzPyYc0+DPCJ57ZJgH6vtOeeuPEI9TrRj+5vrab19RX2cMAfZCvurbQewU87jUqN2DP5Keq7LCyBAAAdj3w4PsAbBIHLsMzm9dmzsw5bfqNdQn+jgFlLyLxYVRME48gcNn0uROHQy+aZC168cRjsOlGP7m+USskaV8F6Fvjq/TLAH3mmSziK5s+KnvQ4bNo5ZZ9+U0HR6UJwJYvvmMfMO8MMB50uz/75mDTUYTgn9Nx5rxv8JfkBvsb1u4R7sM28ZjaFZl4BPoYE89QbMjy8HXmVNt85aEX+cqiV1/J9XX4Hn8pjHNoyaabqu620gQAADZ89NRfgfm/wRVFCwR/88TvuJpn8K/m4355DfMe4pgPueHN6Jx4cvS5E49DHzTxdG1FJx7fsfY1K+ArZ1uHXnSvFr3oQbf4Wn0l1+tGP7m+GUv++/kZ9kx+IkbHlScAALDhY6svI8b7s2eKB3/ns1p68HeY3APzDv72VqY3TlXYgqHPGz99GKjv87enPjNplTVJp01t85WpXRFfCfWt9FWg3uorgT7UV5nmnvcq9lUteBzUeUvVS//7iZIAAMCGj53+SQAXzlliB3+3RPb45LVyBH8PvTP4R8Pww9PlRkNbg019Jdc7fZWj9/ZVj019JdcH+aprC71XwONeawTTu2h0bGus7qMlAAAw9g9veC+ILjH9kIzB30rEj/sZHnTzM5wT/Ev/I0llYZp4BIHLps+dOBx60SRr0YsnHoNNN/rJ9a1aIVFfeekzz2QRX9n0teJCWjp+ScwBRE0AAOKH5id/wcAV9p+V6eGytrC0SaUTkjdl3zNZTvB3DCh7kdoG/7RJELhseuvEI9CHTjyZ5h76odiQ5eHr1vvKQy/ylUWvvpLrm7TRrw/aBHrk7NijiJwAABNrVu/dt2DvGxgY228TxPAesykI2IX12/EveFidwd/c+XT+VQtgeDM6J54cfe7E49AHTTxdm2jicEw8vmPta1bAV862Dr1okrXog33F6isfvW70k+ubuOQ/wy9B806j0Ym9sQcSPQEAgGvWnPnokx5f9McA/i0Vrvv+SVN28C++4z8v+FtP9zQs+keSBo0tGPq88dOHgfq+n4OnPjNpFZl4PPSt85WpXRFfCfWt9FWg3uqrHH3f6YB7DfVV8zb69bIDSXJyld/256IWCQAAXP6ZV+wZOeCppxPo4hmLO/ib37CW84gR/O1w//8cDfMe6MjBnxE+8cw2CdBnJh4PvXHiEepL25ClvsqafAJvEV/12NRXcn3QvXZtofcKeNxrLXkElLyclm2+JfZA9jMv9gB6Wb/mxCmA33rc2V9/BETvdgV/5/u0cPC3dpuPe2Dewd/eKi/4D/KXANI3oqWtdaA+E4/ptKdePPEYbILnzGor7KtAvfpKrs9538p95alXX8n1omeytuwCOq+i0Y03xB5IL7VZAZiDePy8M94DpncAMPyOxC/4+5IXdtN9OMK8t0o+iuwZzjkfjk8W7jPxWKoDl5492vbaMs099EOxIcvD1633lYfe6CuhXj82Ktc3dqPfLA+DcAodM7Yx9kDS1DABmGH8vNVfTMDHAXzPnNX/43512fE/JxcEf9Pznr6StcGg3hi+E0+OPnficeiDJp6uTTRxOCYe37H2NSvgK2dbh140yVr0wb5i9ZWPPurHRj36apSvagrhLvD0sTS6cSy/cfXUNgEAgE3nnfHTefuSlQT6ESB4BlPGugR/x4CyF3EGf3PnxvaFfgNgELdu85oloZDoW+crU7sivhLqW+mrAP1skwBf950OuNdQXzV7o18XuhbJ1B/Q0p/cHHskNmqdAADA+gve/MAz7sArGMmHAewBMPDgbz3fZw4P/mwekLGhu1W2AZuOBvkeYQxo4vHUZyYeD71x4hHqK9vol7Kpr+R6b1/12NroK2dbhz7oXru20HsFPO61ztA38ej0CbT0mu2xR+Ki9gkAAKxdu3p643lvOjdB5xgwfpRtUSz4D8fH/coI/oIg32ercuKx6MUTj8HWqG9eS/sqQN8aX6VfFvWVp75VvkqfKuorm762TILpPRgdX02rNu+OPZg8GpEA7Gfzeatv33j+GScTYTVAO2asZQd/hynnueT+/zka5j3gsYK/YRyFJp4cfd9p34kjfcpDr5vX8sc6a1JfifW60U+ub/5GPwB0LQgraen4p4maMfhGJQD7GT/vjLXJXloM4v+Lnk8KlPNxv7wEwXzeN/jbW0UI/rZxGG0+E49DHzRxdG2iicMx8RjbCvSh99rXpCxfWfTBvmL1lY9e/z6EXN/8Jf/HAPwvbD18FY1unIg9GB9q9T0APmy+cPVDAP7nqvd+7ZOY1/kwAWcCWCDV54VdpM47wry3Sj6K7Blj8C8dwRvUmezk6HOSKadekqxZJx5JO4tdP4Mt13tN8C32lVeSlLJ7J0k99qDA37VX9lzUEMI0mL8Env5w3X/Xb6ORKwC9bLrgLfdsOv9Nf57sHTmSwZ8A8JuZM6YHrvcfy4NmeCOZn/Gc4F/lH/gp7T0jqCRmmwiqk7S+77SnPnPKQ68b/eR63egn1xf1lTj4GnzlbOvQBwX/rj70XoGmB/8EwFpMYZSO2fSOpgZ/YAgSgP1svnD1rzd//M3vX3Dw5DOYk9VE+DEMUbzM4D/XpmjwN3fOpqNSg7/Jlp54BEmCSV/JxGOwNWpDVtpXAfrW+Cr9sqivPPWt8lX6VFFf2fS1YwcYH0OHj6RjNq6m5RtvjT2gojT2VwA21q956ySAtQDWHnf2145MEpwO0OkAVsy0KC/4z5wWPMi5wT/bwCf4+39dUpoEAGXHlHnpk8VLA7/juqJgZrGXsgwt0JfqK4c+OPBDfVWKr0zPpGdfrfFVjSDsBuN76HQuxfxFl9PRl++JPaRBMnQJQC/j573lTgDnAzj/+Pdccvi+BfQnHaY/ZuB4AM+ebSgO/nZycoOehmV/3G/QbyjbYIpUHAH6RkzSTfeVLTOV+sozoTMeqq9ybc7Jpum+qgW3gWgdGJdj6uArafmPdsUeUFkMdQLQy9in/vQ+ABd3/8Ox7//XI6aRvKSTYBkDS8BYAsKRAA6yP+fmB5b7/2en9I/7Fa/9Xb0PZuIJ0OdOWg69OJOr4yTddF8J9V5JVsoew1e1vNccfVDg79orey4qZw+AuwC6CYwJdPh67OlspheN7Yw9sKpoTQKQZuPH3/SfAL7d/W+WF7/70qePzEuePUX8NOLOoUR4CggHEZKFnGQ/ZZAYXhnJfea7+p6Vd6PE2g33yTuMbXk9umnKxGPRN6bq77FX76ttAH/b/EzlPM9BbVP998nSv3JyXbNgW6MbpddMsk1t7QSmnBP9EGB/Bhzjz1ze0399zaW+TixNfZ6rgbAP6DwOxiQIDwN4GB3eCXTuweKx+5vyef2yaG0CYOOaT795O4DG7uocOAOpZAVt07bg4G8Khh76xlf9gr5mSSbouV8/29KhoihDjiYAiplaV7IWuy7NyvXGj6wpitImNAFQHAQsgzey6vfsy3jYdF8pitI2NAFQDJg+BghUt4ztqR/4qoGjr8xh7CX/or5SFKWtaAKgCKjxMraobeyqv8deK18pitJmNAFQcmjSMrY0+De96hf01WsT+0pRlDahCYBiIXYla7HrRj+5vt6fwVYUJTKaAChCml71e/ZlPAzQ195XiqK0FU0AFAF13LwWe9XAZm+4rxRFaQ2aACg5NGUZu+lVf9cey1eKorQOTQAUC01axpZW/UJ9Lap+QV+9tiK+UhSllWgCoNgpvZK12HWjn1xfxFeKorQaTQAUM42s+j37Mh5WteQf21eaDChK29EEQMky+we7GrR5TTf6yfUa/BVFgSYAipU6LmM3verv2mvnK0VR2ogmAIoB09/sbtIytjT4N73qz+mrz2QUv5LveMNDuXpnzpDzrMTylchmsSdlPVcmevxXnq8up9ENb/EYlNISNAFQcihayVrsutFPri9vhWQ+gKdYr6G+kuvr7atFlgsoLUcTAMVBHat+z76MhwH6oEk6tq+KVrIefbXeV4H6gVX9gr4UJYUmAIqF4OVGt752qwY2exmTdAN8VWol67hu7Z6L2L4qXPVb9IoyhyYAipCCE09jlmaLVrJdu/pKrldfyfUa/JUBogmAkkPRiccUDD30jV+aLVoJ5/TVZ2q7r4quGjj6yhw2yVeKYkYTAMVBGZOsUO9VnaXs3tVZj33oq/6UXX0l1zfWV2S5ttJ2NAFQDHQ/mhSt6vfsy3gYoA+apE0TvKe+0VW/sK9eW2t9VbTqF/TVa9PFACUHTQAUM8HLjXVcNbDZy5ikK/LV0Fb9FruuJsn1+k2PihBNAJQcik48w1j1d+0Dn6SH0VdFK1morwpX/aYva1IUTQAUJ0UnHukkHVi1zx42verP6avP1HZfFV01cPSVORxWXynKDJoAKBbSk0fR6sxg96rOUnbv6qzHPvRVf8quvpLrh9pXitKPJgCKgDpWsh59GYNhgD54ko7tq6KVrLCvXltrfVW06hf01WsT+0pRsmgCoORQdLlROkkXXTWw2cuYpD31ob4a2qrfYtfVJLleq35lAGgCoFgoOvGYJniPttGr/q69kkm66b6KXfV79mU8HEZfKYobTQAUA9PIfnlI0Uk6sGqfPWx61Z/TV5+p7b6KvWpgszfJV4qSjyYASj66NCvX60Y/ub4xKyQ99tr7SlHkaAKgOIhdyXr01ail2TpW/cK+em2t9VXRql/QV69N7CtF8UMTAMWCz3KjdJKOvWqQc93cYGix1/JeY1eyFrv6Sq7Xql8pGU0AlCzGLw6TVmcebRtf9cNjkm67r4pW/Z59GQ+H0VeKEo4mAIoA6SQduLQ6exioj1H1l1IJO/rKHLbdV0VXDWz2JvlKUYqhCYDioOgkK9B7V2c99qDqrGtvRNWfsquv5PrKq/6uvRJfKcpg0ARAsVBV1e/RV6OWZutY9Qv76rW11lexq37XNRRlMGgCoBhIYPwegDS13NDluK54abUp9xq76rfY1VdyvVb9SkQ0AVByaPrSbNFKFh6TdNt9VbTq9+zLeDiMvlKUctAEQHGgS7ODr4QdfWUO2+6roqsGNnuTfKUo5aEJgGJBl2ZlbWNXsj129ZVcX3tfKUr5aAKg5KMb/eT66FW/sK9eW2t9Fbvqd11DUcpHEwDFTYwNXZUsrUoDUsn32veyjlW/xa6+kuu16ldqiiYAiplGLc0WrWThMUmbgqFPX033VdGq37Mv4+Ew+kpRqkcTAMWA6WOAQHuWZotWwo6+Modt91XRVQObvUm+UpQ4aAKgCGj70mzsSrbHrr6S692+ugeEK8HJjWDcAhrZjnmdRzA9lYDoAEzTb4H4uQBeCPB/BfilABbm9w/PREdR4qEJgJJD25dmh7HqF/TVaxseX90DxsXodL5Gi9fdZrlwL9fMXuW6FfNx4MEvA9FZAF4H8EHG/sW+UpT4aAKgWIhd9TuuW7tl6Ni+il31G+z18tVWED6KF/7214nWTlsu4IRWbtkH4IcAfsg/X/U0jIy8F4R3AVg005VW/Urz6MQegNIUGMUm6R69KKCl7V2bOKAVCf4GvfcydpW+sugLVf1FfGXxf/W+2gXw2djOy2nxVZeGBv80tHzTDjpm7AMgPB/gSzT4K01FVwAUAaUvzcr0tVo1cPSVOWy7r4quGtjsTl9dC+I30uL1d1suWBhaMnYfgLP4xmO/B6J/BvAkDfxKk9AVACWH1CTrrIRzAlJudecISEGrBpgJSKGrBgxHQLOsUGQO1Ve5em9fpar+rK++BP7t48sM/r3Q0o3fwAhWAnxHFf0pyqDQBECxqI3nugAAEXRJREFUYFqaDVzaFQUki14ckAy2QjvXfe81fVjUVwH61vgq/bJXT+dj8VVvo9G1ew3i0qDF47eB5h8H4OdV9qsoRdAEQHEz0Eo2p2rutRsrWY+AZAyGwoAkrvpT+lpV/UJfD5evPktLrjybyCguHRpdfz/mzz8JhFtj9K8ovmgCoNjJDUgmW5VVv60aDdQ7A1KOvva+MtiGY6PfDIS1WPyHf2UQVwq9YP0DmBo5BcADsceiKHloAqCYGfjSrFAfWvUbA5rnqkHIvc4eNs1XpnY+vgrUW30lXDUwt70d8w78C6I1ieEClUPLN9wFwlkw35Ci1AZNAJQs08CAl2bz9ZlTnlV/6KoBwyOgGSpZ56pBm3yVo8/1lUPv9lUCprfQ0Zc/arhINGh04+Ug+nzscSiKC00AFAOmQipwaVaiFwckg61Rm9fSvgrQt8ZX6Zc2Pb5Ao1deazoRnWl8CMCO2MNQFBuaACg5+FayHku7xkrWIyAZg6EwINVr81q+XuQr36q/8b56HNT5W8PJWkDLxh8G6JzY41AUG5oAKA7qUPUbgpxu9JPrh2mjX9pG+DwtXvegoUF9WDjvSwDuiz0MRTGhCYBioejSbE5112fzCWimdh6rBj4rFJnDgHvte9k0XwXqrb4SrhqI2nKCqeQiQ4NaQc9dPwmC7gVQaokmAIoB0+zvtTRrtmdOeehru3ktJ3irr2R6b1/RVbR0w68MDevHNP0LzDelKFHRBEDJQrxv7iBgaTZj8wlIBlujNq+lfRWgb42v0i899MRfNzSsJbRs/E6AfhpxBJV+K6LSHDQBULJQZ8/MC1t15rG0a6xkPQKSMRgKA1J9N6+Z7SJf+Vb9Q+or4h8bTtQYvjJa18ST0fpWao0mAIqB6clqq35DkNONfnL9MG/0M+kZ99ILN9xlaFBjkvURO98TsW+lxuifA1YMdB7qD0qmydhml07wDr0oGFrs9flztHL9UPlKoA/11Zz5JouwvkwnExiJVm89HKtjpd7oCoCSJeGdg13GFupru3nNsEIxiGXsofSVQx/kK+MKyW0Gcb1Zds2vAeyK0jeT/l0CxYgmAEqWDnW/vcx7aVbY1mBry+Y19ZW/PpskbTc0rjXdv1B4f5TOGTuj9KvUHv0VgJLlsSd+hYUHTgMYmTM6lmtFwcxir+UydI5eVLVb9MGBH+qrOcNjFlHdeTxOt8m9cfpV6o6uACgZaHTtXgA9n7EeRCVrWNrVjX5yffs2+jnaclM/1hZnNz53bo/Sr1J7NAFQzDC27X9hOpk95RlkjBN8kWVsob42y9hV+ipQb/VVjr7vdMC95vtqkUHcBGKMex8enPfLCP0qDUATAMVCcoPfJG1oZwtIoasGjPBKePbQY4XCGtAk+q59KH3l0Afdq6Tq77M9yXCiAdAhlXfJuJVOXD9Veb9KI9AEQDHToS39Bu9JOmtr1ea1tK98K+E2+Sp9KkdP/BzDyVrD2045AMSHV94xYUt+I6Wt6CZAxQzTT+cmYWngt9h185pcXyjwe/bVVF8xvcBywfqy99GjwL2baiuC+frK+1Qag64AKEboOZfcBfDdfpO0YWlXN/rJ9ZVW/WlfBeqj+CpZxhOjCwwn6gvTijgd06Y4/SpNQBMAxcWVxZaxTe2KBDShvgnL2GlbYV8F6GebBOj7Tgfca6ivZvZFHAw+9PcNghrDJ0bo9BHcfMQNEfpVGoImAIqdhH8wd+ARJGq7ec2RUGQCmkTftRsDmlAf01fOtg590L36Vv05iQ7xKQZhLWFGB8CfVN4x4SpavXa68n6VxqAJgGJn977LAez2q+4Cqu5ZU2DVPntYddWfDmi+lXCbfJU+VdBXzGcygwyN68fW408EcET1HfN3q+9TaRKaAChWaHTt40ByRb/Vt5IVBqRaLGN76Eup+h0rFH0m9RWA38HEsScYLlRDkj+L0OkUOlOXRehXaRCaAChuuHNJz4GpgWcla6tGA/S5AcmhFwUki94ckGQ23egn1+f6ij5gaFAr+OaXPAeMN1bfMdbT4msfrLxfpVFoAqC42b33MhAecFZ3aVuhgOaxatC4ZWxTO+G91qLq9/hZGat+j+dC5Cs+mbce+xLDRevD9LwPAphffcd8cfV9Kk1DEwDFCY2u3YuEv5o5oRv95PqivhraFRLDz8rrOyMAJLiou8mudvAvjlsB8J9H6PphPMbfitCv0jBq+cZR6gZdBEL360R9Jmlp1S/UR6n60wHNt+pvk6/Sp3x9ZWrnCP4z/D5uWvWXeY2qhq9bMR8d/hxizLFEl9Cqzbsr71dpHJoAKLnQkZfeA8Y3daPfIKp+xwpFn0l9JYbofJ5Y9btyQQUcdOBHAVT/XQWEaUx1PlV5v0oj0QRAkdGZOhdA6o+KCCf5oftztDk23egn1/su+Zs5EEzf4htf/HRfYRnwjceuBuNv4nSOb9PyDXdF6VtpHJoAKCLod9ZuBfOXZo48gkyMP0fb99I3IKZPed5r41dIPHxtrPrL8JWII0Hzvse3HBv1LwXyL47/QxAuBqJ8R0GCJDk3Qr9KQ9EEQJHDCz4M8KOGE/ALaDn63IDm0GcCmmCsvZWsqBL2SXQE+tB77WtS16rf4OvBVP0mVmIaV/H1xz91EBfzhSeO/yN0ku8CODBG/yBcSss23xilb6WRaAKgiKGjLtkBwgX9Vlsw9Ky6+w4D9TGqfq+Apr4acNVv6mIFFiQb+MaXLB7cRQXdThz3dnDyfQCxViAmMU0fidS30lA0AVD8OGjBBWD8euagrsvYHvqiVb8ooPmukLTJV6XwQtDItXzTcWeV1cF++LoVh/DEqq+C+QsAYv6Fwk/QsvE7I/avNJBmfJe2Uiv47jeegoT/A73PjzGYAfJKVtg2bQtexjadKlLJeugL+ypQX3tflQDhCnToL2nx+G2DvCwzCBOr3gjQPwI4fJDXDuBuPJos0Y/+Kb5oAqAEwXes/hwI75w5kAYDg91ZyebonYmD47riSlQavGPfa44+KPB37ZX5qlSmAFwKnj6Plv7k5iIX4m+cPoIlvz4VoP8DoA4fPUyQdF5Gy8aujj0QpXloAqAEwff/6ULs2nsDkBxtOGtSWA6bUvXDI6CZgqFPX033VeSq3wVhM5i+Bpr+IY1uvl0i4etWzMfBB/wBpvEaEL0Z8Sv+ORgfo6UbPxh7GEoz0QRACYbvOu3FSDrjAOb1WE0tDYdFl7ED9LnB0KEfeCXs6CtzOKy+is4vAfwchFsBvg+Mx0D0BIBFSHAYiJ4D5heAsALAwrhDNXIdJidX0cot+2IPRGkmmgAoheA7Vn8A4POav4wdu+pP2YfaV8oA2IURetGg9zYo7UI/BaAUgp73jfOB5CvZM4xiAa1HH7yMXSSgccHgz2Z73r3ONgnU195XygBggN6lwV8piiYASnEePuztAK6cM9iWsdMBQRDk2KNtry3T3EOv3+iXP9ZZk4+vlIHAdA4dM579C52K4on+CkAZCPyr0w/F3mQzgOfPGTMvehVuW3AlazpVxyV/U5IUqI/iK1Pgt7VVBsilGN14JpE6WimOrgAoA4GetfYhIHk1gB0AApex0y8D9KGVrHEZ27MSLhT8m+YrUzuNSaXC+DEmJ/9Mg78yKHQFQBkovO30JaBkHcDPMJy1qQynPap2a0AS6htT9ffYa+8rZcD8DJOTJ9DKLb+JPRBleNAEQBk4fOfpL0AyvQ7AM3usppaW03VcxrZV/YF6a+Ig0DsThxy9Lvk3D8IWdPadTIuvfTD2UJThQhMApRT4jtOOBvNVAD/T0qLvH8NBjl1ayVrs+o1+cr1W/TEZwwFTr6KjrzH8FU5FKYbuAVBKgZ73rW3A1AkAUn+gpOd3xaKAZvm9vDigFQn+Br33kn+R4O/rK4u+UNWvwT8e9ENMTr5cg79SFpoAKKVBR112O6anXgxgbMZiC4ZFlvw99brRT643Jg4a/CtiLQ540mtp5ZYnYg9EGV70VwBK6fDE6QuwYOrzIH5r/ZexTYHfpy9T4PfR99hr7yulBBjgj2N00weJkMQejDLcaAKgVAbfduq7QfhHAJ1ilWxO27TNGLt8qv5AvTVxEOidiUOOvhJfKSXwGDqds2jJ2L/FHojSDjQBUCqFb3/Ny8H0FQBPT50xtRYGM4tdN/rJ9Vr1x+YWTONUWr7x1tgDUdqD7gFQKoWOuuwHGOHlAH4wYzH9Xtl381qR4G/Qey/5Fwn+Pfqg4O/rK4NNg39cmL6MA6ZerMFfqRpdAVCiwAzCttf8FQjnAzig50zfP4aDHHsZqwaOvjKHsZf8y/KVMnAIO5HQO2jp+HdiD0VpJ5oAKFHhba/5PYC+CvAx1S1jmwK/T1+mwO+j77Hrkn9b+S546m209JrtsQeitBdNAJTo8HVvn49D7v8bMP8tgIN6zpham23izWvDWPUL+uq1iX2llMADIH4/jW76cuyBKIomAEpt4Fte/VyM4LNgPsXSwmDSjX5ivVb9MUlA/DXsGXkvvWhsZ+zBKAqgCYBSQ/jWV54BogsAHNG1mFoVrPo92hZe8jclDgF6rfqbCeMnGOn8D1oydn3soShKL5oAKLWE//PVB+Nx/DWQvB/Ak1NndaOfj143+sXilyD+CJZsulj/hK9SRzQBUGoN3/y6wzCy930A3gPgAN3op0v+DeABgD6JhfM+Tc9dPxl7MIpiQxMApRHwtlOeh4TOBbAawEjPGVNrg6npVb+gr16bLvnH4CEQfQJTB3+Glv9oV+zBKEoemgAojYJvP/koTI98AOCzACwwtDAc6kY/pVTuA9FF2L37c7Ryy29iD0ZRpGgCoDQSvvM1T8e+qf8O8HsAHBJ/yV83+rUP3gbufBaL5n1Bl/qVJqIJgNJo+OY/Ogyd+W8H0ztB/Oy5E4FV/+xh7CV/3ehXUxIQ1gG4EEs2/kA39ylNRhMAZShgXtPBts0vA3feDU5eicyzXceqv2vXJf8msB3gr4DxT7R00x2xB6Mog0ATAGXo4Jtf8XwgeSeIzwTwVN3opwTSrfb5i9i9599p5ZZ9sQekKINEEwBlaGE+fQTbHj0RSXIWQK8HsLB7pqdR5gUMJ812rfqHla1gWgvGV2nZ+J2xB6MoZaEJgNIK+I6TDsG+zmlAciZALwUwohv9lB5uB/CvSJJLadnmW2IPRlGqQBMApXXwxMmHgqZfBcKrALwCsysDsy1MKsNL3ejXcPZX+t/F0vHrdUOf0jY0AVBaDU+csAgj808B86kAnwzgsFQL40td8m8kTwDYANB3Mb3vMlp+zb2xB6QoMdEEQFG6MK/p4Jarfw9MJ4HoJIBfiv1fNlSbqt91DcXAnQD/GOh8DwvnXaGf11eUOTQBUBQLfMMJv4UFIyeB+GQwXgbiIw2tbGqt+mNA+DUYV4DoCkwlP6blm3bEHpKi1BVNABRFCG89/nDw/OMAPgmE4wBeDNv3DehGv6q4D8A4mDaCMa6/y1cUOZoAKEogfOvLnomp5EQQrQL4JQAvBTBPN/qVBGEajF+AaAzAOIjGacnYfbGHpShNRRMARRkQfN2K+Vj45GXg6ePAtALgFQCWpFpZxLrkb+A+gLeAO1tA2AKa3kijmx+KPShFGRY0AVCUEuGJE56BJFmGEfpdcLIMwDIALwQwv9tCl/yBXSDcAvBWMF0PwhZg/g00uv7x2ANTlGFGEwBFqRieGF0AHDaKJDkGHbwAwNFgPhqgowFeFHt8JfIIGLeggwkk3X+nRm7Bsg136+/tFaV6NAFQlBrBW48/HFN4Pig5CoRng+lZIBwB8LMA/BcAT449RiuEnWDcC+Z7QHQ3mO5GJ7kbwD2Y7txDy8Yfjj1ERVHm0ARAURoET5ywCMnks8DznwbiQwE+FMChID4M6MwcMw4BsAgdzAdjIWa+yyD9714AuwxdTAN4FMDjAHaD8Rg6eAwJngDxLhA9AMZOEHYiwQ6gsx0j2IntIzvpxPVTlThBUZSB8P8BsyvDdVphMVcAAAAASUVORK5CYII=;" vertex="1" parent="1">
          <mxGeometry x="701.5" y="-73.5" width="37" height="37" as="geometry" />
        </mxCell>
        <mxCell id="sbt_hyZxBfFW6GqUvSIC-24" style="rounded=0;orthogonalLoop=1;jettySize=auto;html=1;endArrow=none;endFill=0;dashed=1;strokeWidth=2;strokeColor=#EA6B66;" parent="1" source="sbt_hyZxBfFW6GqUvSIC-28" target="sbt_hyZxBfFW6GqUvSIC-18" edge="1">
          <mxGeometry relative="1" as="geometry" />
        </mxCell>
        <mxCell id="jPVWJ0DvIGIK1T8upTcY-11" value="" style="shape=image;verticalLabelPosition=bottom;labelBackgroundColor=default;verticalAlign=top;aspect=fixed;imageAspect=0;image=data:image/png,iVBORw0KGgoAAAANSUhEUgAAAgAAAAIACAYAAAD0eNT6AAAABHNCSVQICAgIfAhkiAAAAAlwSFlzAAAOxAAADsQBlSsOGwAAABl0RVh0U29mdHdhcmUAd3d3Lmlua3NjYXBlLm9yZ5vuPBoAACAASURBVHic7d13kFRVwobxZwYkZwOKomJARVHWFRUzKKZVUVTMGDGsCTO6rphzDmvOYVVMKyZUMGJYxYSiAgZQERRFcpyZ74+zlOETGGa6+/Tt8/yqqKEEpl92m77vvSeVVX1FFZIkKSnlsQNIkqTCswBIkpQgC4AkSQmyAEiSlCALgCRJCbIASJKUIAuAJEkJsgBIkpQgC4AkSQmyAEiSlCALgCRJCbIASJKUIAuAJEkJsgBIkpQgC4AkSQmyAEiSlCALgCRJCbIASJKUIAuAJEkJsgBIkpQgC4AkSQmyAEiSlCALgCRJCbIASJKUIAuAJEkJsgBIkpQgC4AkSQmyAEiSlCALgCRJCbIASJKUIAuAJEkJsgBIkpQgC4AkSQmyAEiSlCALgCRJCbIASJKUIAuAJEkJsgBIkpQgC4AkSQmyAEiSlCALgCRJCbIASJKUIAuAJEkJsgBIkpQgC4AkSQmyAEiSlCALgCRJCbIASJKUIAuAJEkJsgBIkpQgC4AkSQmyAEiSlCALgCRJCbIASJKUIAuAJEkJsgBIkpQgC4AkSQmyAEiSlCALgCRJCbIASJKUIAuAJEkJsgBIkpQgC4AkSQmyAEiSlCALgCRJCbIASJKUIAuAJEkJsgBIkpQgC4AkSQmyAEiSlCALgCRJCbIASJKUIAuAJEkJsgBIkpQgC4AkSQmyAEiSlCALgCRJCbIASJKUIAuAJEkJsgBIkpQgC4AkSQmyAEiSlCALgCRJCbIASJKUIAuAJEkJsgBIkpQgC4AkSQmyAEiSlCALgCRJCbIASJKUIAuAJEkJsgBIkpQgC4AkSQmyAEiSlCALgCRJCbIASJKUIAuAJEkJsgBIkpQgC4AkSQmyAEiSlCALgCRJCbIASJKUIAuAJEkJsgBIkpQgC4AkSQmyAEiSlCALgCRJCbIASJKUIAuAJEkJsgBIkpQgC4AkSQmyAEiSlCALgCRJCbIASJKUIAuAJEkJsgBIkpQgC4AkSQmyAEiSlCALgCRJCbIASJKUIAuAJEkJsgBIkpQgC4AkSQmyAEiSlCALgCRJCbIASJKUIAuAJEkJsgBIkpQgC4AkSQmyAEiSlCALgCRJCbIASJKUIAuAJEkJsgBIkpQgC4AkSQmyAEiSlCALgCRJCbIASJKUIAuAJEkJsgBIkpQgC4AkSQmyAEiSlCALgCRJCbIASJKUIAuAJEkJsgBIkpQgC4AkSQmyAEiSlCALgCRJCbIASJKUIAuAJEkJsgBIkpQgC4AkSQmyAEiSlCALgCRJCbIASJKUIAuAJEkJsgBIkpQgC4AkSQmyAEiSlCALgCRJCbIASJKUIAuAJEkJsgBIkpQgC4AkSQmyAEiSlCALgCRJCbIASJKUIAuAJEkJsgBIkpQgC4AkSQmyAEiSlCALgCRJCbIASJKUIAuAJEkJsgBIkpQgC4AkSQmyAEiSlCALgCRJCbIASJKUIAuAJEkJsgBIkpQgC4AkSQmyAEiSlCALgCRJCbIASJKUIAuAJEkJsgBIkpQgC4AkSQmyAEiSlCALgCRJCbIASJKUIAuAJEkJsgBIkpQgC4AkSQmyAEiSlCALgCRJCbIASJKUIAuAJEkJsgBIkpQgC4AkSQmyAEiSlCALgCRJCbIASJKUIAuAJEkJsgBIkpQgC4AkSQmyAEiSlCALgCRJCbIASJKUIAuAJEkJsgBIkpQgC4AkSQmyAEiSlCALgCRJCbIASJKUIAuAJEkJsgBIkpQgC4AkSQmyAEiSlCALgCRJCbIASJKUIAuAJEkJsgBIkpQgC4AkSQmyAEiSlCALgCRJCbIASJKUIAuAJEkJsgBIkpQgC4AkSQmqGzuAJCm/5s2DCRPh2/Ew/kf48WeYPAV+mQKTp8LsOeH3TZ0efm9ZGbRo9uufb9EM6tSBVi2gVfPwdcmW4ecrLAfNm8b5e6l2LACSVCImTYb3P4GPPoORX8Gor2DU1/DN91BZmb/XbdkcVloeVl4hfF1rNVhvLVhnDWjSKH+vq9opq/qKqtghJEmLp6ICPhgBr78Lr70Dw4bD19/GTvV75eWw6orQqQNs2Am22hj+0iE8TVB8FgCpCA0eCnseHTtFza21Ggx9JHaK0jN2HDz3Cjz7cniPTJ0eO9Hia9YEttgQttwY/tY1vFcUhwVAKkLPvQI7HBQ7Rc2t0x6GD4qdojR8ORYefjr8eP+T2Glyr8PqsPv2sPsOYdhAheMcAEkqMlOmwYMD4Y6H4e0PYqfJrxGjwo/zroP27eCwveGgPWDpVrGTlT6XAUpSkfjwUzjkVGizERxxRulf/P9o5Fdw6kXQtgvsezy8+t/YiUqbBUCSInvuFei+P3TaEe4cANNnxE4U1+w58O8nYcu9YINd4MkXocrB6pyzAEhSJC8OhY12DfM9XhwaO01xGjYcevSB9XaAAc9YBHLJAiBJBfbW+7DJ7uGu/78fxk6TDcM/h15HQ+ce8OZ7sdOUBguAJBXIt+Nh/xPCxd+LWM0MGw6b7gEHnxJ2N1TNWQAkKc8qKuDau2CtreH+J3yMXVtVVXDXI7BGN7j+Hv/3rCkLgCTl0Scjwx3r8efAtMQn9+Xa5KlwbH/Y9gD4bnzsNNljAZCkPLnnMdhw1/SW8xXai0Nh7W3hgf/ETpItFgBJyrGff4GdD4UDT4IZM2OnScPkqbBfXzis36+nG2rhLACSlEMffRZmqj81JHaSNN3+EGy1dzj2WAtnAZCkHBnwDHTpGfbvVzxvvQ8b9oD3Po6dpLhZACQpB666HfY+1kf+xeKb72HzXvC4h1ItkAVAkmqhqgpOugBOPB8qK2On0W/NmBk2D7rvidhJipMFQJJqqKoKjjsbrrwtdhItyLwK6H1i2C9Av+dxwJJUA5WV0Of0cGSvitv8olZZCccdFDtN8fAJgCTVQN9zvfhnSVVV2IzpxvtiJykeFgBJWkznXAPX3R07hWrimP5htYYsAJK0WO5+FM6+OnYK1VRlZZgT8MrbsZPEZwGQpGp6YxgccUbsFKqtWbOhR5+waVPKLACSVA3fjYeeR7rNbKmYPDVs1zxxUuwk8VgAJGkRKivhwJM9f77UjB0Hex0D8+bFThKHBUCSFuHca2Hw0NgplA9D3oB/XB47RRwWAElaiLc/gPOvj51C+XTZLfDw07FTFJ4FQJIWYNZsOPgUqKiInUT5VFUFh52W3iFOFgBJWoBzr4VPR8dOoUKYOh0OOjmt8xwsAJL0J0aPcY//1Lz2Dlx+a+wUhWMBkKQ/cfw5LvlL0VlXprM/gAVAkv7ghdfhmZdip1AMs+fAgSfBnLmxk+SfBUCS/uCfV8ROoJg+GJHG8I8FQJJ+44nnw9I/pe3868NGQaXMAiBJv3HxjbETqBhMnxGOfC5lFgBJ+p+X3vTuX796fBA8PSR2ivyxAEjS/6Qw7qvFc/y5pXtWgAVAkgjjvc++EjuFikm7tnDj+VC3buwk+WEBkCTg1n+75a+CunXguIPgo+eg+2ax0+RPifYaSaq+igq485HYKVQMOnWA2y6Gv3aMnST/LACSkvfaO/Dd+NgpCqt5U9hgXVhtJVhpeViqFbRoFn6tshImT4VfpsCUaTBlKnwxFkZ+CV9+U5r75TdsAGcdByf3Kd1H/n+UyF9TkhZswDOxE+RfWRls8lfYdVv4W1dYc9Xw3xbX5KnwxjB4+S148kX47IvcZy20rTaGWy6C1VeOnaSwyqq+oip2CEm/99wrsMNBsVPU3DrtYfig2Cmqp7IS2mwEEybGTpIfTRpBn33gyP2gfbvcf/+PR4b5E/c8Fp4YZEmLZnDp6XDYXjUrQ1nnJEBJSRv2cWle/OvUgaN7w+hX4Moz83Pxh1D2rukPY4bCeSdBqxb5eZ1c2207+OR56LN3mhd/sABIStygV2MnyL01VoHXB8D150DrpQrzms2awJnHwMgh4aJaXqRXl+WWgUdvhMdugjatY6eJq0j/L5KkwhhUYmv/d+oG7zwJG/8lzusv2TKMpw++H1ZYNk6GP1NWFh71j3gBem4fO01xsABIStbsOfDOR7FT5M4hveCJW6Bp49hJwsS6D5+F7beMnSRM7hvyANx68a8rHWQBkJSwYcNDCSgF++0Kt14Uxv6LRasWMPC2MBchhrp14LQjQxHZauM4GYqZywAlJeut92MnyI3O68LtlxTnuHvdumEuQqvmcN51hXvd9dcJG/r8Ze3CvWbWWAAkJev9T2InqL0mjWDAv6B+vdhJFu7cE0NBOeea/L5Oo4Zwdl844ZB0NvSpKf/nkZSsj0fGTlB7550UdvLLgrP7wsRJcMM9+fn+3TaBWy6EVVfKz/cvNUX4wEiS8m/ePPh0dOwUtdOuLRwTaXy9pq7tDztvndvv2bJ5GAJ58T4v/ovDAiApSWPHZX8C4GlHZu8xd3k53H0FrLxCbr7fHjuEpX2H9Ep3Q5+asgBIStKY72InqJ3GjcLM/yxq2RwevgHqLVHz77Hs0mHuw4B/hZ9r8VkAJCVp7LjYCWpn123DBMCs6rwuXHza4v+5sjI4Yl/4bHC4+1fNWQAkJSnrx/9ut0XsBLXX9xDYZZvq//41VoGXH4SbLgjHGat2LACSkvTTL7ET1M4WG8ZOUHtlZXDj+eEcgYVZoi6ccTR88Exp/L2LhQVAUpJ+mhQ7Qc01bZydpX+L0qY1nHPCgn+9Uwd48zG44GRoUL9wuVJgAZCUpKydXf9bq+fpaN9YjukdLvS/1aghXPEPePdJ+GvHOLlKnQVAUpJmzY6doOaWahk7QW7VrRtOEJy/lfEWG8L7T8OJhxXX2QalJmMrSCUpN+bOi52g5hpnePb/gnReF07uAx1Wh949XdNfCBYASUmak+FNgKqqYifIj0v6xU6QFocAJCUpy4+WZ86KnUClwAIgKUmNGsZOUHNTpsVOoFJgAZCUpIYNYieouazvYqjiYAGQlKRGGS4A4yZkexWDioMFQFKSsvwEoKoKPvw0dgplnQVAUpKyPAcA4LV3YidQ1lkAJCUp6wVg0CuxEyjrLACSkrRki9gJamfIm9k/0VBxWQAkJWmlFWInqJ3KSrjrkdgplGUWAElJWrFN7AS1d9UdMHV67BTKKguApCSVQgH4aRJcfkvsFMoqC4CkJLVeqjTOl7/wBnj/k9gplEUWAElJKiuDtsvFTlF78yrgwJNg2ozYSZQ1FgBJyVo54xMB5xv+ORxwQpgYKFWXBUBSsjp1iJ0gd554Hg7rZwlQ9VkAJCWr83qxE+TWnQPg0NNg3rzYSZQFFgBJydqwxAoAhL0Buu0LEyfFTqJiZwGQlKyVlodlloydIvdeewe67AbvDo+dRMXMAiApaaU2DDDf6DGw6e5w6c1QURE7jYqRBUBS0kpxGGC+OXPhtIthg13gjWGx06jYWAAkJa37ZrET5N8HI2CzPaH3iTBhYuw0KhYWAElJ26gTLLt07BT5V1UF9z4Oa24N198Dc10pkDwLgKSklZfDTt1ipyicX6bAsf1h9a3gln+7ZDBlFgBJyeuxbewEhTfmOzjiDFi9q0UgVRYAScnbZlNo3Ch2iji+/jYUgTW3CXsIWATSYQGQlLwG9WH7LWOniOuLMXDwKbDqlnDlbTBlWuxEyjcLgCQBffaOnaA4jB0HJ10AK2wMx58ThgpUmiwAkgRsuzm0bxc7RfGYOh2uvQtW2QJ2PhTeej92IuWaBUCSgLIyOGLf2CmKT2UlPDUEuvSErfaGR591nkCpsABI0v8c0ivdyYDV8crbsMffYcVN4eyrPXAo6ywAkvQ/LZrB3jvHTlH8vv8BzrkmzBPofSJ8+GnsRKoJC4Ak/cbJfaBundgpsmH2nLC7YKcdYcu94BGHBzLFAiBJv7HmqnDwnrFTZM+r/4U9HR7IFAuAJP1B/+OhYYPYKbJp/vDAiptAn37w8cjYibQgFgBJ+oPll4XjD46dIttmzoLbHoKO24WTCAcODgcSqXhYACTpT5x2JCzZMnaK0jD0XdjlMGjfFa65E2bMjJ1IYAGQpD/Vohmcf1LsFKVl9Bjoe26YJ3DmFTBhYuxEabMASNICHLEvbLdF7BSl56dJcMH1sNKmYRnhqK9jJ0qTBUCSFqCsDG6+EJo1iZ2kNM1fRrjm1tDraBgxKnaitFgAJGkhVloeLjsjdorSVlkJA56BjttDzyPhnY9iJ0qDBUCSFqHP3uGwIOVXZSU8Pgg27BEOIPpgROxEpc0CIEmLUFYGD1wD7drGTpKOp4bA+juFIuBWw/lhAZCkaliyJTx2EzRqGDtJOqqqfi0CvY52smCuWQAkqZo6dYDbLg5PBFQ48+cIrN0djjoTfvw5dqLSYAGQpMWwzy5w6hGxU6Rp7jy46X5YZfNw3sDsObETZZsFQJIW0wUnw+47xE6RrmkzwnkDHbeD/7wQO012WQAkaTHVqRMmBe7ULXaStI36GnY9HLbZH4Z/HjtN9lgAJKkG6i0Bj94EO3aNnUSDh8L6f4Pjz4HpM2KnyQ4LgCTVUL0l4JF/QdcusZNoXgVcexesuwO8ODR2mmywAEhSLTRsAE/eZgkoFl+OhW0PgMP6waTJsdMUNwuAJNVSk0bw7F1hhYDiq6qC2x+CDt3hyRdjpyleFgBJyoH69eD+q6H/8bGTaL7xP0KPPuHEwRkzY6cpPhYAScqRsjI4uy/cejHUrRM7jea793Ho3AM++ix2kuJiAZCkHDtsL3j8FmjZPHYSzTdiFHTpCbc+GDtJ8bAASFIe7NQNhg2EDTrGTqL5ZsyEw0+HfY6DmbNip4nPAiBJedKuLbz+CBx3UOwk+q0HB8Imu8M338dOEpcFQJLyqH49uKZ/mCDYpFHsNJrvgxGwSU94/5PYSeKxAEhSAezbA4YPgm6bxE6i+b4dD5v3gscHxU4ShwVAkgpk5RXgxfvg2rOhsU8DisL0GbDH3+GaO2MnKTwLgCQVUFkZHHsgDH/O3QOLRWUl9D0XLrg+dpLCsgBIUgTt2oanAdef43LBYnHmFXDJTbFTFI4FQJIiKS+Ho3vD6JfDSoE6bh4UXb9L4JxrYqcoDAuAJEXWqkVYKfDmY7BRp9hpdPbVcH4CwwEWAEkqEp3XhTcehdsvgeWXjZ0mbWddGbYQLmUWAEkqIuXlcEgv+PJVuPlCWLpV7ERpqqqCQ0+Fl96MnSR/LACSVITqLQGH7wNfvAoXnwZNG8dOlJ6582DPo2HU17GT5IcFQJKKWNPGcNqR8NlgOGr/sLOgCuenSbDzoTBpcuwkuWcBkKQMaNMa/nUefPEK9D0EGjWMnSgdn38JB54UO0XuWQAkKUOWXxau+ieMGQr9j4cWzWInSsPAwaV3lLAFQJIyaKmWcHbfMFnw3BOh9VKxE5W+E8+DL8bETpE7FgBJyrCWzeGfx8LYN+DuK6DjGrETla5pM+CAE6GiInaS3LAASFIJqLcE9O4JHz4Lz98L228Zzh1Qbr35Hlx8Y+wUuWEBkKQSUlYG3TeDZ++CjwfBEft68mCunXddaSwNtABIUonqsDrcdAGMexuuPiscQKTamz0HjjkrdoraswBIUolr1gSOPxhGvQSP3wzdNomdKPuefw2efTl2itqxAEhSIurUgV23hcH3w+dDwgmEDg/UXL9LoLIydoqaswBIUoLatwsnEDo8UHMffQaPPhc7Rc1ZACQpYb8dHnjsJthq49iJsuW8a8PBQVlkAZAkUacO7LYdvPRveP/pcBBRg/qxUxW/4Z/Dc6/ETlEzFgBJ0u906hCOIv7yVTjjaFiyZexExe3yW2MnqBkLgCTpTy23DFxwMnz3VthlcO32sRMVpyFvwIhRsVMsPguAJGmh6tcLuwwOfw6evA02+WvsRMXntodiJ1h8FgBJUrWUlcHOW8PQR8Jcge22iJ2oeNzzWNggKEssAJKkxbbVxvDc3fDBM3DAblC3TuxEcf00KWwOlCUWAElSja23FtxzJXzyAuy1U9oHED30VOwEi8cCIEmqtfbt4MHr4O0noGuX2GniePKFbA0DWAAkSTnTeV0Y8gC8cF9YTpiSqdPh9Xdip6g+C4AkKee22RSGDYQ7L4PWS8VOUzjPvBw7QfVZACRJeVFeDgftASNegIP3TGN+wKBXYyeoPguAJCmvWrWAOy4NqwaWXTp2mvwaMSqsCMgCC4AkqSC23Rw+fBa23zJ2kvypqoKhw2KnqB4LgCSpYJZZEp6+A045PHaS/Bn6buwE1WMBkCQVVHk5XHo63HJROIWw1Lz/SewE1WMBkCRF0WfvMDegvMSuRO9ZACRJWrjePeHG82OnyK2fJsG4CbFTLJoFQJIU1eH7wDG9Y6fIrdFjYidYNAuAJCm6K86EjTrFTpE7Y8fFTrBoFgBJUnT1loDbL4El6sZOkhtjv4udYNEsAJKkorB2ezjmwNgpcsMnAJIkLYbT/w4NG8ROUXsWAEmSFsPSrWDfHrFT1J4FQJKkxdRn79gJau/b72MnWDQLgCSpqHReN/tHCE+dHs4FKGYWAKkIzZ0XO0HtpHDsq/KnvDz7BwZVVsLsObFTLJwFQCpCs2bHTlA7SywRO0Fcn30BOxyUrbPhi80G68ZOUHszZ8VOsHAlsuJSKi3FfuewKKWylntxTZoMZ18N/7oX5lXAp6Nh+CBo2jh2suzpsFrsBLU3Yya0bB47xYL5BEAqQnMsAJkybx7ccA+sthVce1e4+AOM+Q76XRIzWXatsUrsBLU3o8ifAFgApCI0eWrsBLWT0hDAkDdg/Z3gmP7w8y///9dvvA9efqvwubKumO+cq2vGzNgJFs4CoEyZNgNOvQiGfx47SX5NmBg7Qe00ahg7Qf599Q3sfhRsvd/C349VVXBYP5g+o3DZSkGjhlC3TuwUtVPscwAsAMqMR56FtbaGy26BE8+LnSa/fvgpdoLaad40doL8mT4DzrwCOnSHx56r3p/5YgyccVl+c5WiUtgRsJhZAFT0Rn4F2/WGPf8O344P/+3FofDki3Fz5VPWnwCUYgGoqoIH/gNrbg0XXL/4KzWuvweefy0/2UpRVVXxj6EvSv16sRMsnAVARWvmrDCjer0d/vyD88Tzsz9bfkG+HBs7Qe2UWgF472PYohfs1/fXErq4KivhgBPguxr++dRMmQYVFbFT1E6D+rETLJwFQEVp4GBYe1s455oF32l9MQauu7uwuQphztzwd8uyFs1iJ8iNCRPD+H3nHvD6u7X/fj/8FEpE1i9shfBNBrbSXZR6RT4Z1gKgovLVN7DLYeHHV98s+vefd23p3VGN+ir7OwEuu3TsBLUzdx5ccSus0Q1ufyjcvefKK2/DyRfm7vuVqo8+jZ2g9poV+ZMwC4CKwuw5cP714a5/4ODq/7kp0+D4c/OXK4ZSWOGw3DKxE9Tcsy9Dx+3CRTpfyzGvvgNueyg/37tUvPdJ7AS1U14OrYp8KaMFQNENejV84P7zipotm3n02cUrDcXutXdiJ6i9Nq1jJ1h8I7+CnQ6FHQ+Gz7/M/+sd/c/wNEB/7qmM/5tu0QzqFPkyRguAovl2fJjZv/2BMOrr2n2vY84KewSUglK4KLTJ0BOAKdPglAtDCX16SOFed85c6NEHPhhRuNfMik9HF6aE5dOSLWInWDQLgApu7rywln+trcPa/lwYOw7OujI33yum8T/CiFGxU9RO86bQKgMffpWVcMfD0L4rXH5ruCAX2uSpoQCPzvikz1y7+YHYCWqvbZvYCRbNAqCCevkt6LRj2M0v13fs19wZ9gfIsgHPFP8Z4ouy2sqxEyzaG8Ngo13h0NPi77kwYSJ03796k15T8MuUUMyyrl3b2AkWzQKgghj/I/Q+Ebrtm7873MpK2L9veK2suu/x2Alqb7WVYidYsHET4IgzYPNe8O7w2Gl+9fW3sOke2X/6kwsX3gBTp8dOUXurWACUunnzwp35mlvDvY/n/+52wkQ45NRs3kV/MhL++2HsFLW3ahEWgFmzw4WlfTe45d+5XdaXK9//sOhzBUrdJyPDColSsMqKsRMsmgVAefPGMNhgF+h7bmFPt3v2Zbjq9sK9Xq5cdGPsBLnRcY3YCX7v8UFheek/Li/+A3nG/wib7RHew6mZNRsOPDn7e2DMV2z/Dv6MBUA59+PPYWx1sz3hw0ibefS7BF54Pc5r18ToMfDgwNgpcqNTh9gJgo9Hwjb7Q88js7W18pRpsPNh4eyAlBx3NgwromGZ2mhQH9ZYJXaKRbMAKGcqK+Gm+8Pj/jsejvsYfu68sMTwk5HxMiyOY84qje1hGzeC1VeOm+HnX+DY/vCXHWFwRieFVlSEv8N+fUtjPHxRLr4Rbn0wdorc6bA61K0bO8WiWQCUE+8Oh413g6PODB/AxWDyVNi2d+33GMi3ex4LmyGVgnXXjLf5SUUF3HhfGOe//h6YVwKF6oH/wPp/K5074z9zxa1w+qWxU+TWBh1jJ6geC4BqZdJk+Ps/w5Kqdz6Kneb/GzcBuu0TdnkrRsM/D3f/paLL+nFe96U3Yf2dwnvxp0lxMuTL6DHQpWe4SNZkp8xiVVEBJ5xXmucibLFh7ATVYwFQjVRVwZ0DwmEpN95XnLOq5/t2PGy6O7z5XuwkvzduAux0SGk94t1sg8K+3qzZYain277w0WeFfe1CmjsvPCbvuD0890rsNLU3/kf42yGlM+P/j7bYKHaC6rEAaLF9+GlYR33IqWHCXxZMnBSWWBXLASyffxkmSY4dFztJ7pSVwaYFLgAN6oeNY1LxxRjY4aAwuTGrS0bvfwLW2a50hr3+qF1baLtc7BTVYwFQtU2ZFpb0bbAzDM3B2eiFNnMW9OkH+xwX9zHxU0PCpi+ltvPbmqvCMksW/nUvPT2cvJaSwUPDnJvdjsjOv8W3P4Cu+8D+J5TeMM1v7dg1doLqS+yfjWrqgf+E2f3X3Jn9yVUPDoQ1tg6zjgs58/6Hn+DgU2DnQ0vzA3C7LeK87l/Whn13ifPaMVVVwRPPhydJG+wSJpMW4xyBIoQDTAAACvRJREFUV94ORaVLz7AVeKnbeevYCaqvrOorMrhnmgrl09Fw9FlhklUpWn1lOPVIOGA3qF8vP6/xzfehON14H8yYmZ/XKAbP3wvdN4vz2mO+CwV11uw4r18smjaGHt1hr51h282h3hJxcnz/Azz6HNz2YLy9QGJo2hh+fC9/nyW5ZgHQn5o1G/pfFXbUK5WduRamZXPYYwfYe2fY5K9hbLk2Rn0dStODA8MdUDFPksyFxo3gp/fjfvCdcmE41U9B08ZhMlq3LtC1C6y3Vv6GSubNg2Efw6v/hacGw+vvlv57/s/ssws8cE3sFNVnAdCfmjcP1twmTDpKTYP60Hld6LxeONhm1ZXC2d4tmkHDBuFDdMZMqKyCH38KEwy//wFGfQUjRofz3cdNiP23KKye28OjkbcynjIN1u4eVn3o/2vUENZePRSBddYI7+vlW8Nyy0DrpcIkzkWZMRPG/RDe35+ODstYPxkJ736U+9M9s+jZu2D7LWOnqD4LgBbo7kfhoJNjp1AWPHQ99Ppb7BTw5IvQo0/sFNmzRF1o2iSU3PIyaN7s11+bNDl8nfhzKFn6c8stA9+8EW8jrJqwAGiBKiqgQ/fi3URHxaFJI5jwbrjDLAa9joYBz8ROodScegRc0i92isXjKgAtUJ068M/jYqdQsdule/Fc/AGuPTvM6ZAKpU4dOGr/2CkWnwVAC7XPztk41lLxHNordoLfW3bpsDeAVCi7bAMrrxA7xeKzAGih6tSBq0tor3rl1hqrhBnmxebQXmE5nFQIfQ+JnaBmLABapG6bwO47xE6hYnT4PtWbPV5oZWVw52XZvCtTtmy2QXYO//kjJwGqWr75Pmy0Usob2WjxNG0MY98IM8eL1dsfwOZ7prGXheJ4+UHYMiOH//yRTwBULW2Xg1MOj51CxeTI/Yr74g+wUSfof3zsFCpV3TfL7sUffAKgxTB7TjgI6OORsZMotvr14MtXoU3r2EkWrbIynKD3/Guxk6iU1K0D7z2d7UnSPgFQtdWvB3deHt74Stuhe2Xj4g9h58YHrwunFUq5csR+2b74g08AVAP/uBwuvCF2CsXSpBGMejkst8uSL8aEI3QnluBJjCqspVrC50OgVYvYSWrHJwBabGcdB+u0j51CsZx4WPYu/hD2vn/s5uyc1Kbidd052b/4gwVANVC/Xnik2rhR7CQqtDat4eQMTwbdvDPcenFxLl1UNvTcPpwaWgosAKqRtdvDTRfETqFCu/LMsPwvyw7YDS48JXYKZVHrpeBf58VOkTsWANXY/rvCEfvGTqFC2WZT2Gun2Clyo99RcHbf2CmUJeXlcM+VoQSUCguAauXqs+CvHWOnUL41aVR6T3z6Hw9nHhM7hbLiH0fDtpvHTpFbFgDVSoP68MQtsMKysZMon646K0yiKzXnnRSOcZUWZseupbmhlAVAtbbCsvDMXdC8aewkyoce3eGwvWKnyJ9L+lkCtGAd1wiTnuuU4P4n7gOgnBk8FHY8GObMjZ1EudKuLbz7ZGkseVqUq++Aky4IOwdKAMstA289Diu2iZ0kP3wCoJzZetOwxKrcd1VJaNgAHrspjYs/hCNdH7zOfQIULNkSXri3dC/+YAFQjvXuCTdfaAnIurIyuPUi6NQhdpLC2nNHeP5eaNk8dhLF1KwJPHd3WO5cyvyYVs4dtle4eFgCsuv8k2C/XWOniGOLDeG1h2GVFWMnUQwtm8Oge2CDBFY3+RGtvDikF9zmcEAmHbU/nHF07BRxrd0ehg0MEyCVjtZLwUv/ho3/EjtJYfjxrLw5eE+490rHVLOkd0+47uzYKYpDi2bw+M1w6emegJmCVVeCVx+G9daKnaRwXAWgvHvzPejRB378OXYSLcxeO8F9V0HdurGTFJ/X3oG9j4VxE2InUT50WT/sZ7LMkrGTFJZPAJR3XdaHoY9C+3axk2hBDt8H7r/ai/+CbN4Z3nsKdtkmdhLl2oG7h8f+qV38wQKgAll9ZXjzMejaJXYS/VZZWdgN7+YLS3Ojk1xqvRT851Z44BpYulXsNKqthg3CsuW7Lk93mNIhABVURQWcey1ccEP4ueJpUD98AO6f6Gz/2vjxZzi2Pzz0VOwkqok1V4WHrod114ydJC4LgKJ4+S3Y/wT4bnzsJGlaafmwyc/668ROkm1PPA9Hn+XcgKwoLw8bPp1/UngCkDoLgKKZOAkOPhmeGhI7SVp26gZ3Xg5LtYydpDRMnwGX3wqX3RJ+ruLUvh3cdkmYz6HAAqDoBg6Gv58J3/o0IK8aNoCLToXjDgpj/8qtiZPgvGvhhnsd3iomDRuEw576HRWGvfQrC4CKwi9T4IzL4OYHPIwlH7ptEib6rVaCR/oWm48+g1MuhOdfi50kbWVlYWvnS08PQ176/ywAKipvvQ/H9Idhw2MnKQ3LLAmX/yNM9POuv7Deeh8uuQmefNFSW2hdu4RjnjuvGztJcbMAqOhUVcFjz8FZV8GIUbHTZFPDBuFRf7+jwo52iuezL8Icgfseh9lzYqcpbV27hG2st9k0dpJssACoaFVUwANPwjnXwBdjYqfJhiXqQu/dof/x0Ha52Gn0W+MmwNV3wB0D4KdJsdOUjvJy2HlrOO3IsOmYqs8CoKI3dx488B+4/m5416GBP9WwARzaC04+3PHOYjd7Tpj4eucAGPSqEwZrqmXzcOjY3/f35MaasgAoU97+IBSBAc/4OBXCxf7I/eDQvdydLovGTYB7HoO7HoHPv4ydpviVl0O3LnDgHtBzO2jUMHaibLMAKJMmTAx3UA8OhA8/jZ2msBrUD2v5e+8OO27lFr6l4p2PYOCL4enAByNipykeZWWwQUfYY0fYZxeHtnLJAqDMG/kVPPw0DHg6LMEqRfXrhQlOu+8Ae+zgxL5SN3YcPD0krCB46c30nnbVrwebdYa/dYWe2zuslS8WAJWUz78MH5wvvRmOcJ08NXaimlt5hbB+f4etYPstoUmj2IkUw7QZ8Po74VjtN4aFYbCp02Onyq06dWC9tWCLDaH7ZrDVxj7eLwQLgEpWRUV4lPryW+HH2x+EQ1yKUd06sM4asOF6sPFfwgdgu7axU6kYVVTAxyNh6LuhFAz7GEZ/HSbLZsXyy8L6a4ezKLqsD5v8FZo2jp0qPRYAJeWHn2D4Z+ED9OPPw5DB518W7klBk0bQtg2s2CZc8NdaFTquCeu0945HNTdvHnz5DXwyMryfP/si7KEx6uuwy2YMDepDm9bhSdaaq8Jaq4WvHdcIRysrPguABMyYGc4iGP8jfPv9/76OD4e7/DIlbE40/+vkqVD5v381deuEO5cllggX93r1oHHDMIa59JLhQt+mNSzfOlz4vctRoc2cFd7P3/8QnoCNmxAm0U6YGPYjmD4T5syBWbNh5myYOzcMO8x/z7doFibi/e4r4Wt5edhtctmlYYXl/vd1WVhuGWjVIvbfXItiAZAkKUHlsQNIkqTCswBIkpQgC4AkSQmyAEiSlCALgCRJCbIASJKUIAuAJEkJsgBIkpQgC4AkSQmyAEiSlCALgCRJCbIASJKUIAuAJEkJsgBIkpQgC4AkSQmyAEiSlCALgCRJCbIASJKUIAuAJEkJsgBIkpQgC4AkSQmyAEiSlCALgCRJCbIASJKUIAuAJEkJsgBIkpQgC4AkSQmyAEiSlCALgCRJCbIASJKUIAuAJEkJsgBIkpQgC4AkSQmyAEiSlCALgCRJCbIASJKUIAuAJEkJsgBIkpQgC4AkSQn6P8BUmDe050zIAAAAAElFTkSuQmCC;" vertex="1" parent="1">
          <mxGeometry x="698.25" y="40" width="43.5" height="43.5" as="geometry" />
        </mxCell>
        <mxCell id="jPVWJ0DvIGIK1T8upTcY-12" value="" style="shape=image;verticalLabelPosition=bottom;labelBackgroundColor=default;verticalAlign=top;aspect=fixed;imageAspect=0;image=data:image/png,iVBORw0KGgoAAAANSUhEUgAAAgAAAAIACAYAAAD0eNT6AAAABHNCSVQICAgIfAhkiAAAAAlwSFlzAAAN1wAADdcBQiibeAAAABl0RVh0U29mdHdhcmUAd3d3Lmlua3NjYXBlLm9yZ5vuPBoAACasSURBVHja7d1ZkBx3neBxZoeYjWUmdidiYx/mYSZiI3jZjZiI4WGfZh+ImHmY2JEtW7bBGFgGGAOWZMuHfCFfGF8gM9iAMdggjBljm8MYY7E2xnS3jm4d3bpa6lZLaqkl9a2+pD7UV1VuZkkyRshSd1VWVWblJyM+j7aqqivz962q/7/qfUEQvA+qqXtw6kOhO0PfCr0Sagp1hWZCAZAurZ1jj7q2JZ8HgWoM/D8NfTj0xNlB76IJNWTPobGToa+73gkAODf43x9aHupzkYSaD4BABAgAiIb/1aEDLo6QqQAQAQKADA/+vw1tdVGEzAaACBAAZHD4XxEad0GEzAeACBAAZGj43xPKuxiCABABAoBsDP4/C73kIggCQAQIALIVAOtcAEEAXCQARIAAoAaH/y0ufsACAkAECABqaPj/U2jexQ9YYACIAAFADQz/D4bGXPiARQaACBAApDwAXnXRA4oMABEgAEjp8P97FzygxAAQAQKAFAbAZhc8IIYAEAECgJR9058LHhBXAIgAAUBKAqDJxQ6IOQBEgAAg4cP/r3zVL1CmABABAoAEB8DnXOiAMgaACBAAJDQA1rvQAWUOABEgAEjY8P+L0LQLHVCBABABAoAEBcCHXeSACgaACBAAJCQArnORAyocACJAAJCAAFjtIgdUIQBEgACgygHwNRc5oEoBIAIEAFUMgBdd5IAqBoAIEABUKQDedpEDqhwAIkAAUIUAqHeRAxIQACJAACAAgIwGgAgQAAgAIKMBIAIEAAIAyGgAiAABgAAAMhoAIkAAIACAjAaACBAACAAgowEgAgQAAgDIaACIAAGAAAAyGgAiQAAgAICMBoAIEAAIACCjASACBAACAMhoAIgAAYAAADIaACJAACAAgIwGgAgQAAgAIKMBIAIEAAIAyGgAZD4CDDQEAJDVAMh0BBhoCAAgywGQ2Qgw0BAAQNYDIJMRYKAhAAABkMEIMNAQAIAAyGAEGGgIAEAAZDACDDQEACAAMhgBBhoCABAAGYwAAw0BAAiADEaAgYYAAARABiPAQEMAAAIggxFgoCEAAAGQwQgw0BAAgADIYAQYaAgAQABkMAIMNAQAIAAyGAEGGgIAEAAZjAADDQEACIAMRoCBhgAABEAGI8BAQwAAAiCDEWCgIQAAAZDBCDDQEACAAMhgBBhoCABAAGQwAgw0BAAgADIYAQYaAgAQABmMAAMNAQAIgAxGgIGGAAAEQAYjwEBDAAACIIMRYKAhAAABkMEIMNAQAIAAyGAEGGgIAEAAZDACDDQEACAAMhgBBhoCABAAGYwAAw0BAAiADEaAgYYAAARABiPAQEMAAAIggxFgoCEAAAGQwQgw0BAAQNwBMGyYJz8CDDQEABCr1kNjBw3y5EeAgYYAAGK1t/NkiyGe/Agw0BAAQKz2HT65yQBPfgQYaAgAIFbtXafqDe/kR4CBhgAAYnXg2HiDwZ38CDDQEABArLr6JjsM7eRHgIGGAADKsRXwmKGd7Agw0BAAgHUAGYyA4v7DG/7570I3hB4MPRt6LfQG2ZC77drG+Ts+0QxUxPa5NZ9tnP7K7fWT311bN/bqy5t7u/qHkx4AR3ondhvWyY6AxQz9D4WeDHWFAgCqZj4M8V0Tz32zvuf48HhCIyAXDqoBwzq5EbCQwf/fQz8O5Z10AAmzfMnQ+A+faujpG59N4G4AHwMkOAIuNfzXhGacZADJll+59Ohgy679CYuAGYsBkxsB7zX4PxB62UkFkCoTo+tfbUpSBBzqHt9sSCczAi40/P9zqNmJBJBK+egjgQRFQL61c6zdkE5eBJw//P9D6HUnEECq5UbeemNbgnYEtIYDasaQTlYEnB8AX3HiANSCJScHWts7kxIBB4+PbzSgkxUB7x7+/9sJA1BDCwNXXdXWPTCZT0oEtB05aVdAgiLg3QHQ6IQBqC1jv/xpY4LWA8zv7TzZYkAnIwLODf9lThSA2twemKTvCDg+MDUmApIRAecCYIMTBaA2JW1rYPROgI8Dqh8B0fD/b9GKUScJQG2avf+GTUn8uuCzCwPtDqhSBEQB8BknCEBNf13wSHf/+FxCfzSo1fcEVCcCogB40QkCUNtObN22N8G/Hpg/+42Bvja4ghEQBcBGJwdAje8GeO1njUn/CeHotwPO/oCQXxGsQAREAXDIyQFQ2ybWPVmfggB456eEj/RO7G7vOlXvXYHyRUAUAJNODoDaNv343WkKgD/Q1TfZceDYeEMUBPsOn9wUbSNsPTR2MBxkw6GTLF5r59ij73NiANS+mYdv3pDWAKA8BACAAEAAACAAEAAACAAEAAACAAEAgABAAAAgABAAAAgABAAAAgABAIAAQAAAIAAQAAAIAAQAAAIAAQCAAEAAACAAEAAACAAEAAACgKQGwC3XjAff/tKu4Off2xw8ctPBYMVl85k4Ke/8xIngB49vD158qim471+7y/bvrLh8LvjqbR3BL3+4KXjzpxtqyvoXNwRPrtkb3LRsqiyP3c1XTQRfuaUjeO5r2wqP39rV7Zl4ft64dDp8XFsL9/l7X2kunJc3XjFdtdtzx8eHgnVrm4OXnm4K7r/+mIFeVAA0GHokIwCii2jjW/XB3OzhIAhywR8eE8HEqV3BN+7dU3Mn4q3XnAo62xqCXK43OP/I54eDE31Nwb2fjScG1q3dHpye3Bv+n08HtX/MBTPTHcHrL2yM5bH74qf6g30t9eEf5dQF/q2JoO/YpmDNv/TU3PPz0VUdwdjwtgs+Z/L5E8G2+rpg9bWjFbktN189ERxorQ9y8z0XuC0jwVD/luCBzx813L0DQJoC4JEbD50dTJc6ckH7zvqyvbqrtGcfbbngxeyPj/HCq9vlS/LFRcZHTgbHDm0MsnqMnthWGODF/p1e+f7m8P8ys4B/aSKoe+3tmnhuRu8SdeyuL4TUJY8wir7z0M6y3p6nv7wzmJ8/tqC/we9+2VD0uSIAEAAVFL0VHQTTi7qgT03sCVZclkv1CXhmqCzuiF79LPbfiWJpbrYzyPoRvVq965ODi378fvOzhgu8I3Xx47e/qEv9gOhsb1jkI3y68PFVOW5L9JFY+Bdc1K050rHBkBcAJDkAVi6dDWZO7y/qgr75zfrUnnzRq9F8frSYMRZ89+Edi/q3omhwnDmGB7Ys6rH75n17ivyX5gsft6T1+Vn3WrHPmdPBmk/3xr4uJp8fKurWlCtIBAACIAYtG+tKuJyfDh5a2ZnKk29saHvR9zo3311YJLnQt00X+8qp1o9oEdtC/07RupOi33HIDRY+eknbc/PLy48s8OOOCx/RR01x3p7oc/2iz5Vcf8XWJwgABMAiRYvcSjnaWtL3LkC0SKnU45V1Cxtig71NJv55x/RU24Ieu2gXSqlHMR/ZVNvJkeYS7/V8bKvy1/xLX8l/g2hXiGEvAEhYAEQXiVKP8ZM7U3fi/eS7jSXf7/27FjZYFrZoKnMJUPjo6VKPXbQjpfRjPvjqrR2peW6e+ay99OOnzzTGcnt+9OTWkm9LtJbBsBcAJCwAootE6Qu7TqZute/e5tIHS/TW9KX+ndUfGzHr3+OI9u5f6vHrPrIpln9rcnxPKp6jq5ZNLnBHyqWPHZviWQQZ/X9KPaLdRYa9ACBhAbCrsS6Wi030NmGaTryRE9tiCJ/hS/47j9/ebtK/xxG90r3U4xcN7mqsO6iWPVvrYru/vUfjub/xfIQ1YdgLAJIWAK3b41mdXs5vzCvLAsDh5hgC4NKLy6JvrIvegnb88fHlFYcv+fhNLeh7KWpjQWCpC//OP/q74/kIYGhgawy3ZtqwFwAIgGwFQGR25qBp/8crR4LlS3IVDYDoONia3M+ix0aaY72vAkAAIAAEQJUDoPvwRvO+iPUT5QiApC4IjGvhnwAQAAgAAZCgAIje6g5Hman/+0cuePrBagVA8hYExrnwTwAIAASAAEhQAETqX/dNgOeOjj0L35dfjgCIjtd+tDExz8XdW+rKch8FgABAAAiABARA9IpzdGhb5of/9On2Rf2IVLkCIPpNgts+Olb15+GDN8S78E8ACAAEgABIWACci4Az7wRk8eOAXLA3fK7duHRmUY9ZuQKgsCBwb/UXBMa98E8ACAAEgABIYAC8e01AtDDwzO6A2t4iOD93NBjoaSz8oE8xj1U5A6CwIPC2/TW18E8ACAAEgABIcACc/z0BX797b2FRXKlmpjtiuE+jsdyWaODH8RZ7eQPgzE9aV2NBYLkW/gkAAYAAEAApCYA4TZws/Ydzoi/LSdJ9KncARMev/r3yCwLLtfBPAAgABIAAEAACIKELAsu58E8ACAAEgAAQAAIgoQsCy7nwTwAIAASAABAAAiCBCwJ//K0tFVuAKQAEAAJAAAgAAZCABYGVWPgnAAQAAkAACAABkLAFgbua6ip6XwSAAEAACAABIACqvCDwzMK/aQGAAEAACAABkMQAiI5D+xrK8HzbXvH7IQAEAAJAAAgAAbDIBYFrV7encuGfABAACAABIAAEQEkLAltjWRB4ZuFftwAQAAIAASAABEAaAiA6Xn+h9AWBlV74JwAEAAJAAAgAAVDy33eopAWB1Vj4JwAEAAJAAAgAAVDlBYHVWPgnAAQAAkAACAABEMuRK2pB4Avf3BJU+xAAAgABIAAEgACo4ILAm5ZNVW3hnwAQAAgAASAABECMx/ofL3xB4K7GukTcZgEgABAAAkAACIAYFgSuvnb0krf3S1/oqurCPwEgABAAAkAACICYj862Sy8IHBvanpjbKwAEAAJAAAgAARDTgsDHb29P9MI/ASAAEAACQAAIgHIsCJy88ILApCz8EwACAAEgAASAAKjggsCkLPwTAAIAASAABIAAqNCCwCQt/BMAAgABIAAEgAB45+80XBDrgsD2hrIt/JubPSwABAACQAAIAAFQ6jE/3x38v5c3lGVBYDkW/j37aIsAEAAIAAEgAARAHAEQLdw7PbUv1kF9Orxt8/PHY/1/DvacGdoCQAAgAFITAK89vylYt7Y5Naan2gRAhgIg+n/9251thVfuyT0mgjWf7hUAAgABkK4AyOIhANIVAJEjHRsS+3xqfKv+ndspAAQAAkAACAABEGMA3P6xaEHgSOKeS3OzncHKpbMCQACAABAAAqAcARB586fJexcgWvj37tsoAAQAAkAACAABEHMALF+Si2UNSNwL/wSAAAABIAAEQBkDIPL1u6P/bz5RC/8EgAAAASAABECZAyBy9GD1Pwp498I/ASAAQAAIAAFQgQC447rqLgg8f+GfABAAIAAEgACoQABE3vp5Q2IW/gkAAQACQAAIgAoFQGFB4On2RCz8EwACAASAABAAFQqAyJNrWiu8IPDCC/8EgAAAASAABEAFAyBy7NDGij1vNv+m/pK3RwAIAASAABAAAqACAXDHx4fCv+doVRf+CQABAAJAAAiACgdAYUHgK+VfEPjMIzsWdFsEgABAAAgAASAAKhQA0YLAkyPNZXu+dLY1LPh+CwABgAAQAAJAAFQoACKrrx0N5ue6Yn+uTI7vWdBb/wJAACAABIAAEABVCIBzXxA0Nrw9tudJtMBw1bLJRd0GASAAEAACQAAIgAoHwJmPA/LBK+s2hf9+a7GPZDA20hysW7u9qPstAAQAAiA1AbDxjfrgVz/alBqzMwcFgABYkHs+0xM8/eCuQhBc6nn18+9tDr55357grk+W9jgKAAGAAEhNANz3r92pOvHGhpsFgABILAEgABAAAkAACAABIAAEAAJAAAgAASAABIAAQAAIAAEgAASAABAACAABIAAEgAAQAAIAASAABIAAEAACQAAgAASAABAAAkAACAAEgAAQAAJAAAgAAYAAEAACQAAIgPIFQL7wt0yKk6Mtwd7m+uAn320Mr13HBQACQAAIAAEgAMoTAEk+8sHB1obg5qsmBAACQAAIAAEgALITAGefJ3NHg2/c0yoAEAACQAAIAAGQpQA4c04PB3d+4oQAQAAIAAEgAARAlgIgOk70NQkABIAAEAACQABkLQCi40dPbhUACAABIAAEgADI2tHZ3iAAEAACQAAIAAGQteN0+LwTAAgAASAABIAAyF4CBCsunxMA1HYA1L0WRwDMV2sPbdGOH95Y8r2em+1M1H3qP7655Ps0c3p/ou7TUP+Wku/T1ERr6gIgnxso+X537K6P5bYc3t+QwQCYCW5cOiMAqO0AiPa9lnrMzhxM3QX27VdLv6j1Ht2UqPu06Y3SY+7owQ2Juk/b6utKvk8HWutT9/wcPbGt5Pv9ix/E8/z89UsbMjf+p6fafARA7QfATVeejl7LlnSydB/ZlLoLbBzh07A+WYPlOw/tLPk+vfXzhkTdpx88vr3k+/TKuvQ9P3dsKj18Hl4ZzztUa1e3Zy4AjnRsEADUfgBExsd2lHSyvPpc+i6wNy2bKnzpR/FHLvjqrR2Juk+3XDMe3qexkj7KeWhlsj7WWP2xkfB2jZfyWi645zM9qXt+PvXA7pLOydx8T7B8SS6W27Jy6WwsH0mk6Xj5O40CgGwEQHTRjxa9FHOMn9wZXmjyqfwlrugkL/Zo35nMt5Vf+1Hxaxt2b6lL5H1686fFvwXd9Nu6VD43I8cOFf+3/N5jLbHeluefyM5CwLHh7b4IiOwEQGTzm8V8fjwZ3H/9sVT/HGcxC+eixX/RRyeJ/fx4aPGfH89Md1Rq0dOiRYF5qoh3qaKtXCsum0/tc/PWa04VXskv9ogW7SV14WzSj2hnz5pP9woAshUAKy7LFX4RK/plrIWdKCeC5762LfW/x7362tFgZBELrqJB+XDC3iY/312fHFzUwJw+3R48eMORRN+nL36qP5g4tWtRwz/tcRp5/Pb2MDiPLGrrX7l25ERBEseujKQeuVx/7O+cCABSEQDnPP3grsKvYl3qInPHdcOpv7i+26/+fWOh/i/yuj/Yubkusa+SL/Sq+cxb5+MX3eq0vaGuUvudY7lPv/tlFKkTF/3Mv/Gt+lS/8r/QepXoI6do3cnFgvzFpyrzHfbRosp8frSmhn9P16bCiwE/B0ymAyCyatlkYfV184a6wnak6FVv9+GNwVuvNBRWBNfS4H+3Oz4+VFgXsK+lvvBqM3oVeWhfQ+Fz9bS+mozeDfjJdxuDth2/v08H9zYUFm7e+9nuVN6nu/9vf/CzZzcH+3fVB5Pjuwv7/KOtftFgSuOCv4WK3qVZ/+KGwgr16F2bU6MthXUbL3xzS3DbR8cqeltu/9hw8NK3m4K9zfWFdUDz88cLX7iUFrPTB4LjnRsLu16qvJhXAJCsAABAACAAABAACAAABAACAAABgAAAQAAgAAAQAAgAAAQAAgBAABh6CAAAAYAAcGIACAAEAAACAAEAgABAAAAgABAAAAgABAAAAgABAIAAQAAAIABIUADknBwANR4Aj9zaYOhxfgD0OTkAatvUtx+pM/Q4PwB2ODkAatupl5/baOhxfgD82skBUNuG3/5Ns6HH+QHwsJMDoKbl+jp7Bg09zg+A/+XkAKhduVs+ssfA40IB8CehbicJQG2aePbf6g08/jgAgkIEfNVJAlCTZvv3H+k28HivAPivoTEnCkCN7f9/bLX9/1wkAM5EwN1OFoCaMtF3uPeEYcelAuA/hdqcMAA18tn/D77hs38WEABnIuCDoREnDkC6zd7/hU2GHAsPgDMR8I+heScQQDrlb756b0/v2GlDjsUFwJkI+D+hk04kgJTt+V993Y7eo4OjBhzFBcCZCPgfoYNOKICUrPiPfvGvf3zOcKO0ADgTAf8ltDY07eQCSOhb/iuXHhld/2qToUZ8AfD7EPib0A9CU042gIRYcfnx8Ree8aqfMgbA70PgA6ErQs+FDoQmnYQAFZEPli8Zihb4TX3robrBll37DTEqFwAXjoK/DP3P0N+RDSeamn4RXnw6gArYsbujf//h4z19p2YMLZIVAGRO+MTx5SIAAgABAIAAQAAAIAAQAAAIAAQAAAIAAQCAAEAAACAAEAAACAAEAAACAAEAgABAAAAgABAAAAgABAAAAgABACAAQAAACAAQAAACAAQAgAAAAQAgABAAAAgABAAAAgABAIAAQAAAIAAQAAAIAAQAAAIAAQCAAEAAACAAEAAACAAEAAACAAEAgABAAAAgABAAAALAQEMAAAgAEAAAAgAEAIAAAAEAIAAQAAAIAAQAAAIAAQCAAEAAACAAEAAACAAEAAACAAEAgABAAAAgABAAAAgABAAAAgABAIAAQAAAIAAQAAAIAAQAgAAAAQAgAEAAAAgAEAAAAgABACxab1f/8OivX9sy/fjd9blbPrInd/vHW6YfW90w/vzTDf1tB496jBAACACoMadeWrchuOGfJ0LBe5ieeuqR+p6+UzMeLwQAAgDS/qr/6ODo3JrPNF1k8P+B/I1XdA7saev02CEAEACQYvNf/PSWhQ7/dyLgpmUdPb0npz1+CAAEAKTQyJvrty52+J8zvfYu5xoCAAEAadPTMzoZrLi8p9gACOUHWvcf9lgiABAAkL5Ff0Epot0BHksEAAIAUiTa5ldqAMyt+WyjxxIBgACAlOjfd7Cr1OFfsOLyHo8nAgABAClx+skH6uIIgPzNV+/zeCIAEACQBgOTuRIX/71j9oHlGz2mCAAEAKTAcN3bLbG8/R+afOZx5xsCAAEAaTB33+c3xRUAJ7Zt9xEAAgABAIn/2t/jQ6fCwT0Zy+f/N15xyGOKAEAAQEb2/r/z9v+zX3OuIQAQAJCVvf9nzfcd6u73mCIAEACQlb3/ofk7PrndY4oAQACQSD1947MDu/cdij739njEt/c/Mvbaz5ri+zudmon+Tj3dIxP+TggABADFLXI70jc0/ZU76qMvqAkH1fS5H63Jr1x6ZO7e6zef2LK1Nbt7/y+LZe9/sHzJaKk/Bdzf0dUz8/DNG/KrlrWH/8/Zs//vXP7GKzqjXQqDLbs6PJ8FAAgAFmTs1Z9sDofT8CUGWC76GduenrEpe/+LM/PIrRtKWoj44vc3BDcsOXWJf2d26lsP1UXv4nhuCwAQALznW8hz91zfuKgtbCuXHunt6h+297+Ivf9bi9/7P/fFzzQt6u+0all7X2f3gOe5AAABwB8N//m7PrW1qF+yu+/zmzO093+q2nv/z7zyL+rf7BQBAgAEALEM/3NG3nh9q73/5d/733egq2cBb/uLAAQAAoDyD/+zHwV02ftf/r3/s1++aUMM7z6IAAEAAsDwL334n9N7dHC0dvf+HziShL3/+RuvPBjTRxAiQACAADD84zHUUL/T3v/y7f3v6RmNfntgPq7bIQIEAAgAwz8W488/3WDvf/n2/g8272iP+28mAgQACADDv2Qjb66vyYWASdn7H223LMffTQQIABAAhn9JohXq9v6Xb+9/JFhxebcIQAAgAEjM8I++OdDe//Lt/S/2C4BEAAYaAsDwL9/wj/a1f+erdfb+l2fv/7sNNTZGWxFzIgABgACg6sM/v+qqtu7+iXl7/8uz9/980Y80lfXvKQIEAALAyWP4L8DM4M7WA/b+l2/v/4W2A+ZXLj0qAhAACACqNvxr+SuAk7D3/73j5GBXsOKyXhGAAEAAYPjX4N5/EYAAQABg+Gdw778IQAAgADD8M7r3XwQgABAAGP4Z3PsvAhAACAAM/wzu/RcBCAAEAIZ/Rvf+iwAEAAIAwz+De/9FAAIAAYDhn9G9/yIAAYAAMPwN/4zu/RcBCAAEgOFv+Gd0778IQAAgAAx/wz+je/9FAAIAAWD4G/4Z3fsvAhAACADD3/DP6N5/EYAAQAAY/oZ/Rvf+iwAEAALA8Df8M7r3XwQgABAAhr/hn9G9/yIAAYAAMPwN/4zu/RcBCAAEgOFv+Gd0778IQAAgAAx/wz+je/9FAAIAAWD4G/4Z3fsvAhAACADD3/C/0N7/F79f83v/RQAGGgLA8Df8M7r3XwQIABAAhj8Z3fsvAgQACADDn2jv/xP3Z27vvwgQACAADH97/zO6918ECAAQAIZ/hvf+/zbTe/9FgAAAAWD4Z3Xv/+as7/0XAQIABIDhb+9/Rvf+iwABAALA8Lf3P6N7/0WAAAABYPjb+5/Rvf8iQACAADD87f3P6N5/ESAAQAAY/vb+Z3TvvwgQACAADH97/zO6918ECAAQAIa/vf8Z3fsvAgQAAkAAGP72/md0778IEAAIACeQ4W/vf0b3/osAAYAAwPC39z+je/9FgABAAGD42/uf0b3/IkAAIAAw/FNnYG+Hvf8iQACAAEjuwjLD395/EbDYCLjyYE/P2JTHWwAgACpq9PVXGg3/VOz977X3v3YjYHrtXa5TAgABUMFV5V39Q+FAGDT87f2n6hGQO9HYtMdjLQAQABV6W/m+3xn+9v6TjAjI3XbtLo+zAEAAVGZV+e3XNRv+9v6TmAiYiD7u8TgLAARA2QXLlwwb/vb+k5wIGNjT1ukxFgAIgHJ//l+O4R9MfP8Jj7e9/zVvcHtLWznOn9H1r9qhIQAQAGVfWZ4PLzjjsV/Eli8ZGtzZesBjbO9/zcbzsRMnczdfs7ccATDYvKPdYywAEADlf3V560d3l+WzTBFg77/hX9THZ9GXcnmcBQACoOxmHlvdULZdACLA3n/Df3GLNFdd1eZxFgAIgAotZjrQFdcKcxFg77/h7/N/AYAASJGJdU9uKOs3AYoAe/8N/0uau/f6zR5rAYAAqPhbzblbPrJXBCRr4Nj7n53hHyy/bKD3SP+wx1sAIAAqf5E70jeav2nZQRFg7z+VHv7OCwGAABAB2Ptv+CMAEADViYB+EWDvv/PA8BcACAAR4OJn77/h7/kvABAAIsBF0N5/w9/zXgAgAESAi6G9/4a/57sAQACIABdFe/8Nf89zAYAAEAEujvb+G/6e3wIAASACXCTt/Tf8EQAIgNRGwAEXS3v/DX/PZwGAABABLpr2/hv+nscCAAEgAlw87f03/A1/AYAAEAEuovb+G/4IAASACHAxtfff8EcAIABEgItqtPf/3s/Z+2/4IwAQACIgSxdXe/8NfwQAAkAEZPAie+rH37P33/BHACAAREDWLra5W65ptfff8EcAIABEQIYuuvb+G/4IAARAbV18u0TAwvb+32fvv+GPAEAA1GQEdLgI2/tv+CMAEAAiwMX43N7/373VbO+/4Y8AQACIgIxdlO39N/wRAAgAEZCxi7O9/4Y/AgABIAIyeJG299/wRwAgAERABi/W9v4b/ggABIAIyNhF295/wx8BgAAQARm8eNv7b/gjABAAIiBrEWDvv+GPAEAAkL0IsPff8EcAIADIYATY+2/4IwAQAJwfAauW7a/li7u9/4Y/AgABQAYjwN5/wx8BgAAggxFg77/hjwBAAJCxCLD33/BHACAAyGAE2Ptv+CMAEAAsOAIGaiMC7P03/BEACACyFwH2/hv+CAAEABmMAHv/DX8EAAKAjEXA2b3/p+39N/wRAAgAEh4BcW6xs/d/YWskcrd+dJfhjwBAAFDVCJi/61Nb7f2vnInvP1Fv+CMAEAAsMAKuKmsEnPz5C5tK3vvfuv+wvf8L+n6EKcMfAYAAIBkRsOKyHnv/y2/2/i9sMvwRAAgAEhUBvUf6huz9L6/8yisOG/4IAAQAiYqA4brfttj7Xz493SMT4f3LGf4IAAQAiYqA8eefbrD3v3wGt7e0Gf4IAAQAiYuAkbfe2Gbvfxn/ZkcHRw1/BAACgMRFQN+h40Vtu7P3fzFrAC4/ZvgjABAAJCcCli85Ye9/+c2t+Wyj4Y8AQACQmAgY/+FTRX3+b+//ItcBNO9oD+/rnOGPAEAAUPUIyN127a7ugcm8vf+VMfWNB+sMfwQAAoB4I+Dmq/ctcqiM9bcdPFrC3v8+e/8XuR2w79RMGGuL2xGw/LIBw18AgADgYsNlNnyF2bCQt5nn7/hES9+Bo332/lfh79QzNjW99q76hXwvwNy91zf2Hukf9vwWACAAWMhnzQdyqz+25wLfOz+fv/HKw6defq6x5AVt9v6X7ERj057oI5jwMZg47zEpvEswuv7VJs9nAQACgGLeps8PtLZ3RYPkxNZt+3p6RmN5m93e/9j/TrmBPW2d0d8pWigYfUzg+YsAQACQOPb+gwBAAJBB9v6DAEAAkDH2/oMAQACQQfb+gwBAAJDBxWr2/oMAQACQte2FLbv22/sPAgABQMaM/eIle/9BACAAyJqpb3ypzt5/EAAIADJm9v4vbLL3HwQAAoCMiQa3vf8gABAAZMyJpi2t9v6DAEAAkDHRd9SHQ3yylAAYeeuNbR5LEAAIAFJmYt2TRX8MkFt9XYvHEAQAAoB0fhlQPnf7x1uKCIDTgztbD3gMQQAgAEipvkPH+/Mrlx5dxPAfH9q4YZfHDgQAAoC0rwfoHTt9+skHou8FmLnonv9VV7UNbm9p85iBAEAAUEMG9rR1Tq+9qz63+rodwfIlQ9Fb/fmblnXM3Xv95uG63/rMHwQAAoCsrBHwOIAAQAAAIAAQAAAIAAQAAAIAAQCAAEAAAAgAEAAAAgAEAIAAAAEAIAAQAAIAQAAgAAAQAAgAAAQAAgAAAYAAAEAAIAAAEAAIAAAEAAIAAAGAAABAACAAABAACAAABAACAAABgAAAQAAgAAAEgIGGAAAQACAAAAQACAAAAQCFAHjbyQOQajkDjWIC4EUnD0Cq9RloFBMAX3PyAKRai4FGMQGw2skDkGqvG2gUEwDXOXkAUu0ZA41iAuDDTh6AVHvAQKOYAPiL0LQTCCC1/sFAo9gIWO8EAkilkdD7DTOKDYDPOYkAUun56DpumFFsAPxVKO9EAkidKwUApUZAkxMJIFUmQx8QAJQaAFc4mQBS5bFz13CDjFIjYLMTCiAVhkN/KQCIKwD+3kkFkAq3vfv6bYgRRwS86sQCSLSjof8oAIg7AD4YGnOCASRStGPr8vOv3QYYcUXAP4XmnWgAiXP/ha7bhhdxRsAtTjSARPlZ6E8EAJWIgHVOOIBE2B368/e6XhtaxB0AfxZ6yYkHUPXh/9cXu14bWpQrBO7xVcEAVXvb/88vdZ02rCj3NwWOOxkBKrba//73+sxfAFDpCPjb0FYnJkDZ9/lfvpjrsyFFpULg6tABJylA7F/ve9v5X/IjAEhaBLw/tDzU56QFKEn0q36Pdb/ru/0FAGkIgT8NfTj0RKjLiQywICOh50NXdp/9Sd9SGEgkIQg+FLoz9K3QK6Gms2Ew44QHMiZ39l3SltDroWdCD4T+IXoXNc5r7/8HL0kUaa3Jj+UAAAAASUVORK5CYII=;" vertex="1" parent="1">
          <mxGeometry x="696.5" y="-21" width="42" height="42" as="geometry" />
        </mxCell>
        <mxCell id="jPVWJ0DvIGIK1T8upTcY-13" style="rounded=0;orthogonalLoop=1;jettySize=auto;html=1;entryX=0.008;entryY=0.57;entryDx=0;entryDy=0;entryPerimeter=0;endArrow=none;endFill=0;dashed=1;strokeColor=#0000FF;strokeWidth=2;" edge="1" parent="1" source="sbt_hyZxBfFW6GqUvSIC-7" target="jPVWJ0DvIGIK1T8upTcY-9">
          <mxGeometry relative="1" as="geometry" />
        </mxCell>
        <mxCell id="jPVWJ0DvIGIK1T8upTcY-14" style="rounded=0;orthogonalLoop=1;jettySize=auto;html=1;entryX=0;entryY=0.405;entryDx=0;entryDy=0;entryPerimeter=0;endArrow=none;endFill=0;dashed=1;strokeColor=#0000FF;strokeWidth=2;exitX=1;exitY=0.5;exitDx=0;exitDy=0;" edge="1" parent="1" source="sbt_hyZxBfFW6GqUvSIC-28" target="jPVWJ0DvIGIK1T8upTcY-9">
          <mxGeometry relative="1" as="geometry">
            <mxPoint x="577" y="130" as="sourcePoint" />
            <mxPoint x="671" y="24" as="targetPoint" />
          </mxGeometry>
        </mxCell>
        <mxCell id="sbt_hyZxBfFW6GqUvSIC-31" style="rounded=0;orthogonalLoop=1;jettySize=auto;html=1;exitX=0.625;exitY=0.2;exitDx=0;exitDy=0;exitPerimeter=0;" parent="1" source="sbt_hyZxBfFW6GqUvSIC-30" target="jPVWJ0DvIGIK1T8upTcY-17" edge="1">
          <mxGeometry relative="1" as="geometry" />
        </mxCell>
        <mxCell id="jPVWJ0DvIGIK1T8upTcY-18" style="rounded=0;orthogonalLoop=1;jettySize=auto;html=1;entryX=0.25;entryY=0;entryDx=0;entryDy=0;endArrow=none;endFill=0;strokeWidth=4;" edge="1" parent="1" source="jPVWJ0DvIGIK1T8upTcY-17" target="sbt_hyZxBfFW6GqUvSIC-27">
          <mxGeometry relative="1" as="geometry" />
        </mxCell>
        <mxCell id="jPVWJ0DvIGIK1T8upTcY-17" value="K8s Ingress" style="ellipse;whiteSpace=wrap;html=1;fillColor=#f8cecc;strokeColor=#b85450;fontStyle=1" vertex="1" parent="1">
          <mxGeometry x="254" y="-75" width="80" height="40" as="geometry" />
        </mxCell>
        <mxCell id="sbt_hyZxBfFW6GqUvSIC-29" value="" style="group" parent="1" vertex="1" connectable="0">
          <mxGeometry x="350" y="-40" width="150" height="90" as="geometry" />
        </mxCell>
        <mxCell id="sbt_hyZxBfFW6GqUvSIC-2" value="" style="rounded=0;whiteSpace=wrap;html=1;" parent="sbt_hyZxBfFW6GqUvSIC-29" vertex="1">
          <mxGeometry width="110" height="50" as="geometry" />
        </mxCell>
        <mxCell id="sbt_hyZxBfFW6GqUvSIC-25" value="" style="rounded=0;whiteSpace=wrap;html=1;" parent="sbt_hyZxBfFW6GqUvSIC-29" vertex="1">
          <mxGeometry x="10" y="10" width="110" height="50" as="geometry" />
        </mxCell>
        <mxCell id="sbt_hyZxBfFW6GqUvSIC-26" value="" style="rounded=0;whiteSpace=wrap;html=1;" parent="sbt_hyZxBfFW6GqUvSIC-29" vertex="1">
          <mxGeometry x="20" y="20" width="110" height="50" as="geometry" />
        </mxCell>
        <mxCell id="sbt_hyZxBfFW6GqUvSIC-27" value="" style="rounded=0;whiteSpace=wrap;html=1;" parent="sbt_hyZxBfFW6GqUvSIC-29" vertex="1">
          <mxGeometry x="30" y="30" width="110" height="50" as="geometry" />
        </mxCell>
        <mxCell id="sbt_hyZxBfFW6GqUvSIC-28" value="MatchMaking Lobby&lt;br&gt;(Docker Image)" style="rounded=0;whiteSpace=wrap;html=1;" parent="sbt_hyZxBfFW6GqUvSIC-29" vertex="1">
          <mxGeometry x="40" y="40" width="110" height="50" as="geometry" />
        </mxCell>
        <mxCell id="jPVWJ0DvIGIK1T8upTcY-6" value="&lt;div&gt;&lt;font style=&quot;font-size: 18px;&quot;&gt;&lt;b&gt;User&lt;/b&gt;&lt;/font&gt;&lt;/div&gt;&lt;div&gt;&lt;br&gt;&lt;/div&gt;&lt;div&gt;ISE AG&lt;br&gt;&lt;/div&gt;" style="ellipse;shape=cloud;whiteSpace=wrap;html=1;fillColor=#dae8fc;strokeColor=#6c8ebf;" vertex="1" parent="1">
          <mxGeometry x="310" y="-260" width="140" height="120" as="geometry" />
        </mxCell>
        <mxCell id="sbt_hyZxBfFW6GqUvSIC-30" value="&lt;div&gt;&lt;font style=&quot;font-size: 18px;&quot;&gt;&lt;b&gt;User&lt;/b&gt;&lt;/font&gt;&lt;/div&gt;&lt;div&gt;&lt;br&gt;&lt;/div&gt;&lt;div&gt;sipcall AG&lt;br&gt;&lt;/div&gt;" style="ellipse;shape=cloud;whiteSpace=wrap;html=1;fillColor=#fff2cc;strokeColor=#d6b656;" parent="1" vertex="1">
          <mxGeometry x="180" y="-240" width="140" height="120" as="geometry" />
        </mxCell>
      </root>
    </mxGraphModel>
  </diagram>
</mxfile>
